{
	"meshes":[{
		"name":"JAR_C4D",
		"primitives":[{
			"attributes":{
				"POSITION":1,
				"NORMAL":2,
				"TEXCOORD_0":3
			},
			"indices":0
		}]
	}],
	"asset":{
		"version":"2.0",
		"generator":"Maxon Cinema 4D 试用 2025.0.2 (#200000219)"
	},
	"scenes":[{
		"nodes":[0]
	}],
	"nodes":[{
		"name":"JAR_C4D",
		"mesh":0
	}],
	"accessors":[{
		"bufferView":0,
		"type":"SCALAR",
		"componentType":5123,
		"count":20448,
		"min":[0],
		"byteOffset":0,
		"max":[20447]
	},
	{
		"bufferView":1,
		"type":"VEC3",
		"componentType":5126,
		"count":20448,
		"min":[-0.9952499866485596,
		-1.0,
		-0.9952499866485596],
		"byteOffset":0,
		"max":[0.9952499866485596,
		2.1617469787597658,
		0.9952499866485596]
	},
	{
		"bufferView":1,
		"type":"VEC3",
		"componentType":5126,
		"count":20448,
		"min":[-1.0,
		-1.0,
		-1.0],
		"byteOffset":12,
		"max":[1.0,
		1.0,
		1.0]
	},
	{
		"bufferView":1,
		"type":"VEC2",
		"componentType":5126,
		"count":20448,
		"min":[0.0,
		0.0],
		"byteOffset":24,
		"max":[1.0,
		1.0]
	}],
	"bufferViews":[{
		"buffer":0,
		"target":34963,
		"byteOffset":0,
		"byteLength":40896
	},
	{
		"buffer":0,
		"target":34962,
		"byteOffset":40896,
		"byteLength":654336,
		"byteStride":32
	}],
	"buffers":[{
		"uri":"data:application/octet-stream;base64,",
		"byteLength":695232
	}]
}