M48
; DRILL file {KiCad 8.0.5} date 2024-11-23T17:52:20+0000
; FORMAT={-:-/ absolute / inch / decimal}
; #@! TF.CreationDate,2024-11-23T17:52:20+00:00
; #@! TF.GenerationSoftware,Kicad,Pcbnew,8.0.5
; #@! TF.FileFunction,Plated,1,2,PTH
FMAT,2
INCH
; #@! TA.AperFunction,Plated,PTH,ViaDrill
T1C0.0118
; #@! TA.AperFunction,Plated,PTH,ComponentDrill
T2C0.0276
; #@! TA.AperFunction,Plated,PTH,ComponentDrill
T3C0.0350
; #@! TA.AperFunction,Plated,PTH,ComponentDrill
T4C0.0394
%
G90
G05
T1
X3.4Y-5.2
X3.4843Y-4.6457
X3.5Y-5.4
X3.7Y-5.4
X3.7402Y-4.9016
X3.8Y-5.4
X3.9Y-5.4
X3.9173Y-4.1142
X4.0Y-3.8
T2
X4.0Y-4.4488
X4.05Y-4.4988
X4.1Y-4.4488
T3
X3.4Y-3.1
X3.4Y-3.2
X3.4Y-3.3
X3.4Y-3.4
X3.4Y-3.5
X3.4Y-3.6
X3.4Y-3.7
X4.0Y-3.1
X4.0Y-3.2
X4.0Y-3.3
X4.0Y-3.4
X4.0Y-3.5
X4.0Y-3.6
X4.0Y-3.7
T4
X3.2Y-3.4
X3.2Y-3.5
X3.2Y-3.6
X3.2Y-3.7
X3.2Y-3.8
X3.2Y-4.7
X3.2Y-4.8
X3.2Y-5.2
X3.2Y-5.3
X3.3Y-5.0
X3.4Y-5.0
X3.5Y-5.0
X3.6Y-5.0
X3.8Y-4.0
X3.8Y-4.1
X3.8Y-4.2
X3.8Y-4.3
X3.8Y-4.4
X3.8Y-4.5
X3.8Y-5.0
X3.9Y-5.0
X4.0Y-3.9
X4.0Y-5.0
X4.1Y-3.9
X4.1Y-5.0
M30
