%TF.GenerationSoftware,KiCad,Pcbnew,8.0.5*%
%TF.CreationDate,2024-11-23T17:52:30+00:00*%
%TF.ProjectId,DataGadget,44617461-4761-4646-9765-742e6b696361,rev?*%
%TF.SameCoordinates,Original*%
%TF.FileFunction,Soldermask,Top*%
%TF.FilePolarity,Negative*%
%FSLAX46Y46*%
G04 Gerber Fmt 4.6, Leading zero omitted, Abs format (unit mm)*
G04 Created by KiCad (PCBNEW 8.0.5) date 2024-11-23 17:52:30*
%MOMM*%
%LPD*%
G01*
G04 APERTURE LIST*
G04 Aperture macros list*
%AMRoundRect*
0 Rectangle with rounded corners*
0 $1 Rounding radius*
0 $2 $3 $4 $5 $6 $7 $8 $9 X,Y pos of 4 corners*
0 Add a 4 corners polygon primitive as box body*
4,1,4,$2,$3,$4,$5,$6,$7,$8,$9,$2,$3,0*
0 Add four circle primitives for the rounded corners*
1,1,$1+$1,$2,$3*
1,1,$1+$1,$4,$5*
1,1,$1+$1,$6,$7*
1,1,$1+$1,$8,$9*
0 Add four rect primitives between the rounded corners*
20,1,$1+$1,$2,$3,$4,$5,0*
20,1,$1+$1,$4,$5,$6,$7,0*
20,1,$1+$1,$6,$7,$8,$9,0*
20,1,$1+$1,$8,$9,$2,$3,0*%
G04 Aperture macros list end*
%ADD10R,1.700000X1.700000*%
%ADD11O,1.700000X1.700000*%
%ADD12O,2.000000X3.000000*%
%ADD13RoundRect,0.152400X1.063600X0.609600X-1.063600X0.609600X-1.063600X-0.609600X1.063600X-0.609600X0*%
%ADD14C,1.524000*%
%ADD15RoundRect,0.152400X-1.063600X-0.609600X1.063600X-0.609600X1.063600X0.609600X-1.063600X0.609600X0*%
%ADD16O,1.600000X1.200000*%
%ADD17O,1.200000X1.200000*%
G04 APERTURE END LIST*
D10*
%TO.C,A1*%
X83820000Y-127000000D03*
D11*
X86360000Y-127000000D03*
X88900000Y-127000000D03*
X91440000Y-127000000D03*
%TD*%
D10*
%TO.C,J1*%
X104140000Y-127000000D03*
D11*
X101600000Y-127000000D03*
X99060000Y-127000000D03*
X96520000Y-127000000D03*
%TD*%
D10*
%TO.C,A3*%
X96520000Y-101600000D03*
D11*
X96520000Y-104140000D03*
X96520000Y-106680000D03*
X96520000Y-109220000D03*
X96520000Y-111760000D03*
X96520000Y-114300000D03*
%TD*%
D10*
%TO.C,BT1*%
X81280000Y-119380000D03*
D11*
X81280000Y-121920000D03*
%TD*%
D10*
%TO.C,SW1*%
X81280000Y-86360000D03*
D11*
X81280000Y-88900000D03*
X81280000Y-91440000D03*
%TD*%
D10*
%TO.C,J2*%
X81280000Y-96520000D03*
D11*
X81280000Y-93980000D03*
%TD*%
D12*
%TO.C,J4*%
X101600000Y-140500000D03*
X99060000Y-140500000D03*
X96520000Y-140500000D03*
X93980000Y-140500000D03*
X91440000Y-140500000D03*
X88900000Y-140500000D03*
X86360000Y-140500000D03*
X83820000Y-140500000D03*
%TD*%
D10*
%TO.C,C1*%
X101600000Y-99060000D03*
D11*
X104140000Y-99060000D03*
%TD*%
D13*
%TO.C,A2*%
X85525000Y-78740000D03*
D14*
X86360000Y-78740000D03*
D13*
X85525000Y-81280000D03*
D14*
X86360000Y-81280000D03*
D13*
X85525000Y-83820000D03*
D14*
X86360000Y-83820000D03*
D13*
X85525000Y-86360000D03*
D14*
X86360000Y-86360000D03*
D13*
X85525000Y-88900000D03*
D14*
X86360000Y-88900000D03*
D13*
X85525000Y-91440000D03*
D14*
X86360000Y-91440000D03*
D13*
X85525000Y-93980000D03*
D14*
X86360000Y-93980000D03*
X101600000Y-93980000D03*
D15*
X102435000Y-93980000D03*
D14*
X101600000Y-91440000D03*
D15*
X102435000Y-91440000D03*
D14*
X101600000Y-88900000D03*
D15*
X102435000Y-88900000D03*
D14*
X101600000Y-86360000D03*
D15*
X102435000Y-86360000D03*
D14*
X101600000Y-83820000D03*
D15*
X102435000Y-83820000D03*
D14*
X101600000Y-81280000D03*
D15*
X102435000Y-81280000D03*
D14*
X101600000Y-78740000D03*
D15*
X102435000Y-78740000D03*
%TD*%
D10*
%TO.C,J3*%
X81280000Y-134620000D03*
D11*
X81280000Y-132080000D03*
%TD*%
D16*
%TO.C,Q1*%
X101600000Y-113000000D03*
D17*
X102870000Y-114270000D03*
X104140000Y-113000000D03*
%TD*%
M02*
