%TF.GenerationSoftware,KiCad,Pcbnew,8.0.5*%
%TF.CreationDate,2024-11-23T17:52:30+00:00*%
%TF.ProjectId,DataGadget,44617461-4761-4646-9765-742e6b696361,rev?*%
%TF.SameCoordinates,Original*%
%TF.FileFunction,Copper,L2,Bot*%
%TF.FilePolarity,Positive*%
%FSLAX46Y46*%
G04 Gerber Fmt 4.6, Leading zero omitted, Abs format (unit mm)*
G04 Created by KiCad (PCBNEW 8.0.5) date 2024-11-23 17:52:30*
%MOMM*%
%LPD*%
G01*
G04 APERTURE LIST*
%TA.AperFunction,ComponentPad*%
%ADD10R,1.700000X1.700000*%
%TD*%
%TA.AperFunction,ComponentPad*%
%ADD11O,1.700000X1.700000*%
%TD*%
%TA.AperFunction,ComponentPad*%
%ADD12C,1.524000*%
%TD*%
%TA.AperFunction,ComponentPad*%
%ADD13O,1.600000X1.200000*%
%TD*%
%TA.AperFunction,ComponentPad*%
%ADD14O,1.200000X1.200000*%
%TD*%
%TA.AperFunction,ViaPad*%
%ADD15C,0.600000*%
%TD*%
%TA.AperFunction,Conductor*%
%ADD16C,0.200000*%
%TD*%
G04 APERTURE END LIST*
D10*
%TO.P,A1,1,GND*%
%TO.N,GND*%
X83820000Y-127000000D03*
D11*
%TO.P,A1,2,VCC*%
%TO.N,+3V3*%
X86360000Y-127000000D03*
%TO.P,A1,3,SCL*%
%TO.N,Net-(A1-SCL)*%
X88900000Y-127000000D03*
%TO.P,A1,4,SDA*%
%TO.N,Net-(A1-SDA)*%
X91440000Y-127000000D03*
%TD*%
D10*
%TO.P,J1,1,Pin_1*%
%TO.N,Net-(A2-A1_D1)*%
X104140000Y-127000000D03*
D11*
%TO.P,J1,2,Pin_2*%
%TO.N,Net-(A2-A2_D2)*%
X101600000Y-127000000D03*
%TO.P,J1,3,Pin_3*%
%TO.N,Net-(A2-A3_D3)*%
X99060000Y-127000000D03*
%TO.P,J1,4,Pin_4*%
%TO.N,GND*%
X96520000Y-127000000D03*
%TD*%
D10*
%TO.P,A3,1,3V3*%
%TO.N,+3V3*%
X96520000Y-101600000D03*
D11*
%TO.P,A3,2,CS*%
%TO.N,Net-(A2-A0_D0)*%
X96520000Y-104140000D03*
%TO.P,A3,3,MOSI*%
%TO.N,Net-(A2-MOSI_D10)*%
X96520000Y-106680000D03*
%TO.P,A3,4,CLK*%
%TO.N,Net-(A2-SCK_D8)*%
X96520000Y-109220000D03*
%TO.P,A3,5,MISO*%
%TO.N,Net-(A2-MISO_D9)*%
X96520000Y-111760000D03*
%TO.P,A3,6,GND*%
%TO.N,GND*%
X96520000Y-114300000D03*
%TD*%
D10*
%TO.P,BT1,1,+*%
%TO.N,Net-(BT1-+)*%
X81280000Y-119380000D03*
D11*
%TO.P,BT1,2,-*%
%TO.N,Net-(BT1--)*%
X81280000Y-121920000D03*
%TD*%
D10*
%TO.P,SW1,1,A*%
%TO.N,Net-(J2-Pin_2)*%
X81280000Y-86360000D03*
D11*
%TO.P,SW1,2,B*%
%TO.N,Net-(BT1-+)*%
X81280000Y-88900000D03*
%TO.P,SW1,3,C*%
%TO.N,unconnected-(SW1-C-Pad3)*%
X81280000Y-91440000D03*
%TD*%
D10*
%TO.P,J2,1,Pin_1*%
%TO.N,Net-(BT1--)*%
X81280000Y-96520000D03*
D11*
%TO.P,J2,2,Pin_2*%
%TO.N,Net-(J2-Pin_2)*%
X81280000Y-93980000D03*
%TD*%
D10*
%TO.P,C1,1*%
%TO.N,+3V3*%
X101600000Y-99060000D03*
D11*
%TO.P,C1,2*%
%TO.N,GND*%
X104140000Y-99060000D03*
%TD*%
D12*
%TO.P,A2,1,A0_D0*%
%TO.N,Net-(A2-A0_D0)*%
X86360000Y-78740000D03*
%TO.P,A2,2,A1_D1*%
%TO.N,Net-(A2-A1_D1)*%
X86360000Y-81280000D03*
%TO.P,A2,3,A2_D2*%
%TO.N,Net-(A2-A2_D2)*%
X86360000Y-83820000D03*
%TO.P,A2,4,A3_D3*%
%TO.N,Net-(A2-A3_D3)*%
X86360000Y-86360000D03*
%TO.P,A2,5,SDA_D4*%
%TO.N,Net-(A1-SDA)*%
X86360000Y-88900000D03*
%TO.P,A2,6,SCL_D5*%
%TO.N,Net-(A1-SCL)*%
X86360000Y-91440000D03*
%TO.P,A2,7,TX_D6*%
%TO.N,Net-(A2-TX_D6)*%
X86360000Y-93980000D03*
%TO.P,A2,8,RX_D7*%
%TO.N,Net-(A2-RX_D7)*%
X101600000Y-93980000D03*
%TO.P,A2,9,SCK_D8*%
%TO.N,Net-(A2-SCK_D8)*%
X101600000Y-91440000D03*
%TO.P,A2,10,MISO_D9*%
%TO.N,Net-(A2-MISO_D9)*%
X101600000Y-88900000D03*
%TO.P,A2,11,MOSI_D10*%
%TO.N,Net-(A2-MOSI_D10)*%
X101600000Y-86360000D03*
%TO.P,A2,12,3V3*%
%TO.N,+3V3*%
X101600000Y-83820000D03*
%TO.P,A2,13,GND*%
%TO.N,GND*%
X101600000Y-81280000D03*
%TO.P,A2,14,5V*%
%TO.N,unconnected-(A2-5V-Pad14)*%
X101600000Y-78740000D03*
%TD*%
D10*
%TO.P,J3,1,Pin_1*%
%TO.N,Net-(J3-Pin_1)*%
X81280000Y-134620000D03*
D11*
%TO.P,J3,2,Pin_2*%
%TO.N,GND*%
X81280000Y-132080000D03*
%TD*%
D13*
%TO.P,Q1,1,E*%
%TO.N,Net-(J3-Pin_1)*%
X101600000Y-113000000D03*
D14*
%TO.P,Q1,2,B*%
%TO.N,Net-(A2-TX_D6)*%
X102870000Y-114270000D03*
%TO.P,Q1,3,C*%
%TO.N,+3V3*%
X104140000Y-113000000D03*
%TD*%
D15*
%TO.N,Net-(A2-MISO_D9)*%
X88500000Y-118000000D03*
X95000000Y-124500000D03*
%TO.N,Net-(A2-TX_D6)*%
X99500000Y-104500000D03*
X101600000Y-96520000D03*
%TO.N,Net-(A2-SCK_D8)*%
X86360000Y-132080000D03*
X88900000Y-137160000D03*
%TO.N,Net-(A2-MOSI_D10)*%
X99060000Y-137160000D03*
%TO.N,Net-(A1-SCL)*%
X96520000Y-137160000D03*
%TO.N,Net-(A1-SDA)*%
X93980000Y-137160000D03*
%TD*%
D16*
%TO.N,Net-(A2-MISO_D9)*%
X95000000Y-124500000D02*
X88500000Y-118000000D01*
%TO.N,Net-(A2-TX_D6)*%
X99500000Y-100000000D02*
X99500000Y-104500000D01*
X101600000Y-96760000D02*
X99500000Y-98860000D01*
X99500000Y-98860000D02*
X99500000Y-100000000D01*
X101600000Y-96520000D02*
X101600000Y-96760000D01*
%TO.N,Net-(A2-SCK_D8)*%
X86360000Y-134620000D02*
X86360000Y-132080000D01*
X88900000Y-137160000D02*
X86360000Y-134620000D01*
%TO.N,Net-(A2-MOSI_D10)*%
X93500000Y-109700000D02*
X96520000Y-106680000D01*
X93500000Y-114000000D02*
X93500000Y-109700000D01*
X105290000Y-125790000D02*
X93500000Y-114000000D01*
X105290000Y-130930000D02*
X105290000Y-125790000D01*
X99060000Y-137160000D02*
X105290000Y-130930000D01*
%TO.N,Net-(A2-MISO_D9)*%
X106000000Y-102280000D02*
X106000000Y-93300000D01*
X106000000Y-93300000D02*
X101600000Y-88900000D01*
X96520000Y-111760000D02*
X106000000Y-102280000D01*
%TO.N,Net-(A2-SCK_D8)*%
X98500000Y-107240000D02*
X98500000Y-94540000D01*
X98500000Y-94540000D02*
X101600000Y-91440000D01*
X96520000Y-109220000D02*
X98500000Y-107240000D01*
%TO.N,Net-(A2-MOSI_D10)*%
X97670000Y-90290000D02*
X101600000Y-86360000D01*
X97670000Y-105530000D02*
X97670000Y-90290000D01*
X96520000Y-106680000D02*
X97670000Y-105530000D01*
%TO.N,Net-(A2-A0_D0)*%
X94000000Y-86380000D02*
X86360000Y-78740000D01*
X94000000Y-101620000D02*
X94000000Y-86380000D01*
X96520000Y-104140000D02*
X94000000Y-101620000D01*
%TO.N,Net-(A1-SCL)*%
X85298000Y-92502000D02*
X86360000Y-91440000D01*
X88900000Y-127000000D02*
X85298000Y-123398000D01*
X85298000Y-123398000D02*
X85298000Y-92502000D01*
%TO.N,Net-(A1-SDA)*%
X87600000Y-90140000D02*
X86360000Y-88900000D01*
X87600000Y-123160000D02*
X87600000Y-90140000D01*
X91440000Y-127000000D02*
X87600000Y-123160000D01*
%TO.N,Net-(A2-A1_D1)*%
X92000000Y-86920000D02*
X86360000Y-81280000D01*
X92000000Y-115000000D02*
X92000000Y-86920000D01*
X104000000Y-127000000D02*
X92000000Y-115000000D01*
X104140000Y-127000000D02*
X104000000Y-127000000D01*
%TO.N,Net-(A2-A2_D2)*%
X90000000Y-115400000D02*
X90000000Y-87460000D01*
X101600000Y-127000000D02*
X90000000Y-115400000D01*
X90000000Y-87460000D02*
X86360000Y-83820000D01*
%TO.N,Net-(A2-A3_D3)*%
X88000000Y-88000000D02*
X86360000Y-86360000D01*
X88000000Y-115940000D02*
X88000000Y-88000000D01*
X99060000Y-127000000D02*
X88000000Y-115940000D01*
%TO.N,Net-(A1-SCL)*%
X88900000Y-134620000D02*
X88900000Y-127000000D01*
X92040000Y-137760000D02*
X88900000Y-134620000D01*
X96520000Y-137160000D02*
X95920000Y-137760000D01*
X95920000Y-137760000D02*
X92040000Y-137760000D01*
%TO.N,Net-(A1-SDA)*%
X93980000Y-137160000D02*
X91440000Y-134620000D01*
X91440000Y-134620000D02*
X91440000Y-127000000D01*
%TD*%
%TA.AperFunction,Conductor*%
%TO.N,GND*%
G36*
X95086583Y-109065165D02*
G01*
X95142516Y-109107037D01*
X95166933Y-109172501D01*
X95166777Y-109192154D01*
X95164341Y-109219997D01*
X95164341Y-109220000D01*
X95184936Y-109455403D01*
X95184938Y-109455413D01*
X95246094Y-109683655D01*
X95246096Y-109683659D01*
X95246097Y-109683663D01*
X95295238Y-109789046D01*
X95345965Y-109897830D01*
X95345967Y-109897834D01*
X95481501Y-110091395D01*
X95481506Y-110091402D01*
X95648597Y-110258493D01*
X95648603Y-110258498D01*
X95834158Y-110388425D01*
X95877783Y-110443002D01*
X95884977Y-110512500D01*
X95853454Y-110574855D01*
X95834158Y-110591575D01*
X95648597Y-110721505D01*
X95481505Y-110888597D01*
X95345965Y-111082169D01*
X95345964Y-111082171D01*
X95246098Y-111296335D01*
X95246094Y-111296344D01*
X95184938Y-111524586D01*
X95184936Y-111524596D01*
X95164341Y-111759999D01*
X95164341Y-111760000D01*
X95184936Y-111995403D01*
X95184938Y-111995413D01*
X95246094Y-112223655D01*
X95246096Y-112223659D01*
X95246097Y-112223663D01*
X95345965Y-112437830D01*
X95345967Y-112437834D01*
X95443799Y-112577552D01*
X95481505Y-112631401D01*
X95648599Y-112798495D01*
X95812684Y-112913389D01*
X95834594Y-112928730D01*
X95878219Y-112983307D01*
X95885413Y-113052805D01*
X95853890Y-113115160D01*
X95834595Y-113131880D01*
X95648922Y-113261890D01*
X95648920Y-113261891D01*
X95481891Y-113428920D01*
X95481886Y-113428926D01*
X95346400Y-113622420D01*
X95346399Y-113622422D01*
X95246570Y-113836507D01*
X95246567Y-113836513D01*
X95189364Y-114049999D01*
X95189364Y-114050000D01*
X96086988Y-114050000D01*
X96054075Y-114107007D01*
X96020000Y-114234174D01*
X96020000Y-114365826D01*
X96054075Y-114492993D01*
X96086988Y-114550000D01*
X95189364Y-114550000D01*
X95170123Y-114575074D01*
X95134952Y-114627034D01*
X95070723Y-114654535D01*
X95001821Y-114642945D01*
X94968327Y-114619092D01*
X94136819Y-113787584D01*
X94103334Y-113726261D01*
X94100500Y-113699903D01*
X94100500Y-110000096D01*
X94120185Y-109933057D01*
X94136814Y-109912419D01*
X94955568Y-109093665D01*
X95016891Y-109060181D01*
X95086583Y-109065165D01*
G37*
%TD.AperFunction*%
%TA.AperFunction,Conductor*%
G36*
X104390000Y-100390633D02*
G01*
X104603483Y-100333433D01*
X104603492Y-100333429D01*
X104817578Y-100233600D01*
X105011082Y-100098105D01*
X105178101Y-99931086D01*
X105180503Y-99928224D01*
X105181880Y-99927307D01*
X105181938Y-99927250D01*
X105181949Y-99927261D01*
X105238671Y-99889516D01*
X105308532Y-99888402D01*
X105367905Y-99925233D01*
X105397941Y-99988318D01*
X105399500Y-100007921D01*
X105399500Y-101979902D01*
X105379815Y-102046941D01*
X105363181Y-102067583D01*
X98084432Y-109346331D01*
X98023109Y-109379816D01*
X97953417Y-109374832D01*
X97897484Y-109332960D01*
X97873067Y-109267496D01*
X97873223Y-109247842D01*
X97875659Y-109220000D01*
X97875659Y-109219999D01*
X97855063Y-108984596D01*
X97855063Y-108984592D01*
X97820671Y-108856239D01*
X97822334Y-108786393D01*
X97852763Y-108736470D01*
X98868713Y-107720521D01*
X98868716Y-107720520D01*
X98980520Y-107608716D01*
X99030639Y-107521904D01*
X99059577Y-107471785D01*
X99100501Y-107319057D01*
X99100501Y-107160943D01*
X99100501Y-107153348D01*
X99100500Y-107153330D01*
X99100500Y-105383062D01*
X99120185Y-105316023D01*
X99172989Y-105270268D01*
X99242147Y-105260324D01*
X99265448Y-105266018D01*
X99320745Y-105285368D01*
X99320748Y-105285368D01*
X99320750Y-105285369D01*
X99499996Y-105305565D01*
X99500000Y-105305565D01*
X99500004Y-105305565D01*
X99679249Y-105285369D01*
X99679252Y-105285368D01*
X99679255Y-105285368D01*
X99849522Y-105225789D01*
X100002262Y-105129816D01*
X100129816Y-105002262D01*
X100225789Y-104849522D01*
X100285368Y-104679255D01*
X100305565Y-104500000D01*
X100291526Y-104375403D01*
X100285369Y-104320750D01*
X100285368Y-104320745D01*
X100225788Y-104150476D01*
X100129813Y-103997734D01*
X100127550Y-103994896D01*
X100126659Y-103992715D01*
X100126111Y-103991842D01*
X100126264Y-103991745D01*
X100101144Y-103930209D01*
X100100500Y-103917587D01*
X100100500Y-100250102D01*
X100120185Y-100183063D01*
X100172989Y-100137308D01*
X100242147Y-100127364D01*
X100305703Y-100156389D01*
X100323762Y-100175786D01*
X100392454Y-100267546D01*
X100438643Y-100302123D01*
X100507664Y-100353793D01*
X100507671Y-100353797D01*
X100642517Y-100404091D01*
X100642516Y-100404091D01*
X100649444Y-100404835D01*
X100702127Y-100410500D01*
X102497872Y-100410499D01*
X102557483Y-100404091D01*
X102692331Y-100353796D01*
X102807546Y-100267546D01*
X102893796Y-100152331D01*
X102943002Y-100020401D01*
X102984872Y-99964468D01*
X103050337Y-99940050D01*
X103118610Y-99954901D01*
X103146865Y-99976053D01*
X103268917Y-100098105D01*
X103462421Y-100233600D01*
X103676507Y-100333429D01*
X103676516Y-100333433D01*
X103890000Y-100390634D01*
X103890000Y-99493012D01*
X103947007Y-99525925D01*
X104074174Y-99560000D01*
X104205826Y-99560000D01*
X104332993Y-99525925D01*
X104390000Y-99493012D01*
X104390000Y-100390633D01*
G37*
%TD.AperFunction*%
%TA.AperFunction,Conductor*%
G36*
X103052671Y-91204108D02*
G01*
X103067626Y-91216861D01*
X105363181Y-93512416D01*
X105396666Y-93573739D01*
X105399500Y-93600097D01*
X105399500Y-98112077D01*
X105379815Y-98179116D01*
X105327011Y-98224871D01*
X105257853Y-98234815D01*
X105194297Y-98205790D01*
X105180514Y-98191787D01*
X105178108Y-98188920D01*
X105011082Y-98021894D01*
X104817578Y-97886399D01*
X104603492Y-97786570D01*
X104603486Y-97786567D01*
X104390000Y-97729364D01*
X104390000Y-98626988D01*
X104332993Y-98594075D01*
X104205826Y-98560000D01*
X104074174Y-98560000D01*
X103947007Y-98594075D01*
X103890000Y-98626988D01*
X103890000Y-97729364D01*
X103889999Y-97729364D01*
X103676513Y-97786567D01*
X103676507Y-97786570D01*
X103462422Y-97886399D01*
X103462420Y-97886400D01*
X103268926Y-98021886D01*
X103146865Y-98143947D01*
X103085542Y-98177431D01*
X103015850Y-98172447D01*
X102959917Y-98130575D01*
X102943002Y-98099598D01*
X102893797Y-97967671D01*
X102893793Y-97967664D01*
X102807547Y-97852455D01*
X102807544Y-97852452D01*
X102692335Y-97766206D01*
X102692328Y-97766202D01*
X102557482Y-97715908D01*
X102557483Y-97715908D01*
X102497883Y-97709501D01*
X102497881Y-97709500D01*
X102497873Y-97709500D01*
X102497865Y-97709500D01*
X101799096Y-97709500D01*
X101732057Y-97689815D01*
X101686302Y-97637011D01*
X101676358Y-97567853D01*
X101705383Y-97504297D01*
X101711415Y-97497819D01*
X101791370Y-97417864D01*
X101958506Y-97250728D01*
X101958511Y-97250724D01*
X101968714Y-97240520D01*
X101968716Y-97240520D01*
X101977112Y-97232122D01*
X101998823Y-97214810D01*
X102102262Y-97149816D01*
X102229816Y-97022262D01*
X102325789Y-96869522D01*
X102385368Y-96699255D01*
X102405565Y-96520000D01*
X102385368Y-96340745D01*
X102325789Y-96170478D01*
X102229816Y-96017738D01*
X102102262Y-95890184D01*
X101949523Y-95794211D01*
X101779254Y-95734631D01*
X101779249Y-95734630D01*
X101600004Y-95714435D01*
X101599996Y-95714435D01*
X101420750Y-95734630D01*
X101420745Y-95734631D01*
X101250476Y-95794211D01*
X101097737Y-95890184D01*
X100970184Y-96017737D01*
X100874211Y-96170476D01*
X100814631Y-96340745D01*
X100814630Y-96340750D01*
X100794435Y-96519996D01*
X100794435Y-96520003D01*
X100807629Y-96637109D01*
X100795574Y-96705931D01*
X100772090Y-96738673D01*
X99312181Y-98198583D01*
X99250858Y-98232068D01*
X99181166Y-98227084D01*
X99125233Y-98185212D01*
X99100816Y-98119748D01*
X99100500Y-98110902D01*
X99100500Y-94840096D01*
X99120185Y-94773057D01*
X99136814Y-94752420D01*
X100132375Y-93756858D01*
X100193696Y-93723375D01*
X100263387Y-93728359D01*
X100319321Y-93770231D01*
X100343738Y-93835695D01*
X100343582Y-93855348D01*
X100332677Y-93979997D01*
X100332677Y-93980002D01*
X100351929Y-94200062D01*
X100351930Y-94200070D01*
X100409104Y-94413445D01*
X100409105Y-94413447D01*
X100409106Y-94413450D01*
X100423195Y-94443664D01*
X100502466Y-94613662D01*
X100502468Y-94613666D01*
X100629170Y-94794615D01*
X100629175Y-94794621D01*
X100785378Y-94950824D01*
X100785384Y-94950829D01*
X100966333Y-95077531D01*
X100966335Y-95077532D01*
X100966338Y-95077534D01*
X101166550Y-95170894D01*
X101379932Y-95228070D01*
X101537123Y-95241822D01*
X101599998Y-95247323D01*
X101600000Y-95247323D01*
X101600002Y-95247323D01*
X101655017Y-95242509D01*
X101820068Y-95228070D01*
X102033450Y-95170894D01*
X102233662Y-95077534D01*
X102414620Y-94950826D01*
X102570826Y-94794620D01*
X102697534Y-94613662D01*
X102790894Y-94413450D01*
X102848070Y-94200068D01*
X102867323Y-93980000D01*
X102848070Y-93759932D01*
X102790894Y-93546550D01*
X102697534Y-93346339D01*
X102570826Y-93165380D01*
X102414620Y-93009174D01*
X102414616Y-93009171D01*
X102414615Y-93009170D01*
X102233666Y-92882468D01*
X102233658Y-92882464D01*
X102104811Y-92822382D01*
X102052371Y-92776210D01*
X102033219Y-92709017D01*
X102053435Y-92642135D01*
X102104811Y-92597618D01*
X102118905Y-92591046D01*
X102233662Y-92537534D01*
X102414620Y-92410826D01*
X102570826Y-92254620D01*
X102697534Y-92073662D01*
X102790894Y-91873450D01*
X102848070Y-91660068D01*
X102867323Y-91440000D01*
X102856417Y-91315347D01*
X102870183Y-91246850D01*
X102918798Y-91196667D01*
X102986827Y-91180733D01*
X103052671Y-91204108D01*
G37*
%TD.AperFunction*%
%TA.AperFunction,Conductor*%
G36*
X104905546Y-73470185D02*
G01*
X104951301Y-73522989D01*
X104961245Y-73592147D01*
X104932220Y-73655703D01*
X104897526Y-73683554D01*
X104894785Y-73685037D01*
X104886493Y-73689524D01*
X104690257Y-73842261D01*
X104521833Y-74025217D01*
X104385826Y-74233393D01*
X104285936Y-74461118D01*
X104224892Y-74702175D01*
X104224890Y-74702187D01*
X104204357Y-74949994D01*
X104204357Y-74950005D01*
X104224890Y-75197812D01*
X104224892Y-75197824D01*
X104285936Y-75438881D01*
X104385826Y-75666606D01*
X104521833Y-75874782D01*
X104521836Y-75874785D01*
X104690256Y-76057738D01*
X104886491Y-76210474D01*
X105105190Y-76328828D01*
X105340386Y-76409571D01*
X105585665Y-76450500D01*
X105834335Y-76450500D01*
X106079614Y-76409571D01*
X106314810Y-76328828D01*
X106533509Y-76210474D01*
X106729744Y-76057738D01*
X106898164Y-75874785D01*
X106981691Y-75746937D01*
X107034837Y-75701580D01*
X107104069Y-75692156D01*
X107167404Y-75721658D01*
X107204736Y-75780718D01*
X107209500Y-75814758D01*
X107209500Y-140085241D01*
X107189815Y-140152280D01*
X107137011Y-140198035D01*
X107067853Y-140207979D01*
X107004297Y-140178954D01*
X106981691Y-140153063D01*
X106959620Y-140119281D01*
X106898164Y-140025215D01*
X106729744Y-139842262D01*
X106533509Y-139689526D01*
X106533507Y-139689525D01*
X106533506Y-139689524D01*
X106314811Y-139571172D01*
X106314802Y-139571169D01*
X106079616Y-139490429D01*
X105834335Y-139449500D01*
X105585665Y-139449500D01*
X105340383Y-139490429D01*
X105105197Y-139571169D01*
X105105188Y-139571172D01*
X104886493Y-139689524D01*
X104690257Y-139842261D01*
X104521833Y-140025217D01*
X104385826Y-140233393D01*
X104285936Y-140461118D01*
X104224892Y-140702175D01*
X104224890Y-140702187D01*
X104204357Y-140949994D01*
X104204357Y-140950005D01*
X104224890Y-141197812D01*
X104224892Y-141197824D01*
X104285936Y-141438881D01*
X104385826Y-141666606D01*
X104521833Y-141874782D01*
X104521836Y-141874785D01*
X104690256Y-142057738D01*
X104886491Y-142210474D01*
X104897525Y-142216445D01*
X104947115Y-142265665D01*
X104962223Y-142333881D01*
X104938053Y-142399437D01*
X104882277Y-142441518D01*
X104838507Y-142449500D01*
X80581493Y-142449500D01*
X80514454Y-142429815D01*
X80468699Y-142377011D01*
X80458755Y-142307853D01*
X80487780Y-142244297D01*
X80522473Y-142216445D01*
X80533509Y-142210474D01*
X80729744Y-142057738D01*
X80898164Y-141874785D01*
X81034173Y-141666607D01*
X81134063Y-141438881D01*
X81195108Y-141197821D01*
X81195109Y-141197812D01*
X81215643Y-140950005D01*
X81215643Y-140949994D01*
X81195109Y-140702187D01*
X81195107Y-140702175D01*
X81134063Y-140461118D01*
X81034173Y-140233393D01*
X80898166Y-140025217D01*
X80876557Y-140001744D01*
X80729744Y-139842262D01*
X80533509Y-139689526D01*
X80533507Y-139689525D01*
X80533506Y-139689524D01*
X80314811Y-139571172D01*
X80314802Y-139571169D01*
X80079616Y-139490429D01*
X79834335Y-139449500D01*
X79585665Y-139449500D01*
X79340383Y-139490429D01*
X79105197Y-139571169D01*
X79105188Y-139571172D01*
X78886493Y-139689524D01*
X78690257Y-139842261D01*
X78521836Y-140025215D01*
X78438309Y-140153063D01*
X78385162Y-140198419D01*
X78315931Y-140207843D01*
X78252595Y-140178341D01*
X78215264Y-140119281D01*
X78210500Y-140085241D01*
X78210500Y-133722135D01*
X79929500Y-133722135D01*
X79929500Y-135517870D01*
X79929501Y-135517876D01*
X79935908Y-135577483D01*
X79986202Y-135712328D01*
X79986206Y-135712335D01*
X80072452Y-135827544D01*
X80072455Y-135827547D01*
X80187664Y-135913793D01*
X80187671Y-135913797D01*
X80322517Y-135964091D01*
X80322516Y-135964091D01*
X80329444Y-135964835D01*
X80382127Y-135970500D01*
X82177872Y-135970499D01*
X82237483Y-135964091D01*
X82372331Y-135913796D01*
X82487546Y-135827546D01*
X82573796Y-135712331D01*
X82624091Y-135577483D01*
X82630500Y-135517873D01*
X82630499Y-133722128D01*
X82624091Y-133662517D01*
X82573796Y-133527669D01*
X82573795Y-133527668D01*
X82573793Y-133527664D01*
X82487547Y-133412455D01*
X82487544Y-133412452D01*
X82372335Y-133326206D01*
X82372328Y-133326202D01*
X82240401Y-133276997D01*
X82184467Y-133235126D01*
X82160050Y-133169662D01*
X82174902Y-133101389D01*
X82196053Y-133073133D01*
X82318108Y-132951078D01*
X82453600Y-132757578D01*
X82553429Y-132543492D01*
X82553432Y-132543486D01*
X82610636Y-132330000D01*
X81713012Y-132330000D01*
X81745925Y-132272993D01*
X81780000Y-132145826D01*
X81780000Y-132079996D01*
X85554435Y-132079996D01*
X85554435Y-132080003D01*
X85574630Y-132259249D01*
X85574631Y-132259254D01*
X85634211Y-132429523D01*
X85694515Y-132525496D01*
X85705819Y-132543486D01*
X85730185Y-132582263D01*
X85732445Y-132585097D01*
X85733334Y-132587275D01*
X85733889Y-132588158D01*
X85733734Y-132588255D01*
X85758855Y-132649783D01*
X85759500Y-132662412D01*
X85759500Y-134533330D01*
X85759499Y-134533348D01*
X85759499Y-134699054D01*
X85759498Y-134699054D01*
X85800423Y-134851785D01*
X85829358Y-134901900D01*
X85829359Y-134901904D01*
X85829360Y-134901904D01*
X85879479Y-134988714D01*
X85879481Y-134988717D01*
X85998349Y-135107585D01*
X85998355Y-135107590D01*
X88069298Y-137178533D01*
X88102783Y-137239856D01*
X88104837Y-137252330D01*
X88114630Y-137339249D01*
X88174210Y-137509521D01*
X88270184Y-137662262D01*
X88397738Y-137789816D01*
X88550478Y-137885789D01*
X88720742Y-137945367D01*
X88720745Y-137945368D01*
X88720750Y-137945369D01*
X88899996Y-137965565D01*
X88900000Y-137965565D01*
X88900004Y-137965565D01*
X89079249Y-137945369D01*
X89079252Y-137945368D01*
X89079255Y-137945368D01*
X89249522Y-137885789D01*
X89402262Y-137789816D01*
X89529816Y-137662262D01*
X89625789Y-137509522D01*
X89685368Y-137339255D01*
X89695162Y-137252330D01*
X89705565Y-137160003D01*
X89705565Y-137159996D01*
X89685369Y-136980750D01*
X89685368Y-136980745D01*
X89625788Y-136810476D01*
X89529815Y-136657737D01*
X89402262Y-136530184D01*
X89249521Y-136434210D01*
X89079249Y-136374630D01*
X88992330Y-136364837D01*
X88927916Y-136337770D01*
X88918533Y-136329298D01*
X86996819Y-134407584D01*
X86963334Y-134346261D01*
X86960500Y-134319903D01*
X86960500Y-132662412D01*
X86980185Y-132595373D01*
X86987555Y-132585097D01*
X86989810Y-132582267D01*
X86989816Y-132582262D01*
X87085789Y-132429522D01*
X87145368Y-132259255D01*
X87145369Y-132259249D01*
X87165565Y-132080003D01*
X87165565Y-132079996D01*
X87145369Y-131900750D01*
X87145368Y-131900745D01*
X87120613Y-131829999D01*
X87085789Y-131730478D01*
X86989816Y-131577738D01*
X86862262Y-131450184D01*
X86709523Y-131354211D01*
X86539254Y-131294631D01*
X86539249Y-131294630D01*
X86360004Y-131274435D01*
X86359996Y-131274435D01*
X86180750Y-131294630D01*
X86180745Y-131294631D01*
X86010476Y-131354211D01*
X85857737Y-131450184D01*
X85730184Y-131577737D01*
X85634211Y-131730476D01*
X85574631Y-131900745D01*
X85574630Y-131900750D01*
X85554435Y-132079996D01*
X81780000Y-132079996D01*
X81780000Y-132014174D01*
X81745925Y-131887007D01*
X81713012Y-131830000D01*
X82610636Y-131830000D01*
X82610635Y-131829999D01*
X82553432Y-131616513D01*
X82553429Y-131616507D01*
X82453600Y-131402422D01*
X82453599Y-131402420D01*
X82318113Y-131208926D01*
X82318108Y-131208920D01*
X82151082Y-131041894D01*
X81957578Y-130906399D01*
X81743492Y-130806570D01*
X81743486Y-130806567D01*
X81530000Y-130749364D01*
X81530000Y-131646988D01*
X81472993Y-131614075D01*
X81345826Y-131580000D01*
X81214174Y-131580000D01*
X81087007Y-131614075D01*
X81030000Y-131646988D01*
X81030000Y-130749364D01*
X81029999Y-130749364D01*
X80816513Y-130806567D01*
X80816507Y-130806570D01*
X80602422Y-130906399D01*
X80602420Y-130906400D01*
X80408926Y-131041886D01*
X80408920Y-131041891D01*
X80241891Y-131208920D01*
X80241886Y-131208926D01*
X80106400Y-131402420D01*
X80106399Y-131402422D01*
X80006570Y-131616507D01*
X80006567Y-131616513D01*
X79949364Y-131829999D01*
X79949364Y-131830000D01*
X80846988Y-131830000D01*
X80814075Y-131887007D01*
X80780000Y-132014174D01*
X80780000Y-132145826D01*
X80814075Y-132272993D01*
X80846988Y-132330000D01*
X79949364Y-132330000D01*
X80006567Y-132543486D01*
X80006570Y-132543492D01*
X80106399Y-132757578D01*
X80241894Y-132951082D01*
X80363946Y-133073134D01*
X80397431Y-133134457D01*
X80392447Y-133204149D01*
X80350575Y-133260082D01*
X80319598Y-133276997D01*
X80187671Y-133326202D01*
X80187664Y-133326206D01*
X80072455Y-133412452D01*
X80072452Y-133412455D01*
X79986206Y-133527664D01*
X79986202Y-133527671D01*
X79935908Y-133662517D01*
X79929501Y-133722116D01*
X79929501Y-133722123D01*
X79929500Y-133722135D01*
X78210500Y-133722135D01*
X78210500Y-126102155D01*
X82470000Y-126102155D01*
X82470000Y-126750000D01*
X83386988Y-126750000D01*
X83354075Y-126807007D01*
X83320000Y-126934174D01*
X83320000Y-127065826D01*
X83354075Y-127192993D01*
X83386988Y-127250000D01*
X82470000Y-127250000D01*
X82470000Y-127897844D01*
X82476401Y-127957372D01*
X82476403Y-127957379D01*
X82526645Y-128092086D01*
X82526649Y-128092093D01*
X82612809Y-128207187D01*
X82612812Y-128207190D01*
X82727906Y-128293350D01*
X82727913Y-128293354D01*
X82862620Y-128343596D01*
X82862627Y-128343598D01*
X82922155Y-128349999D01*
X82922172Y-128350000D01*
X83570000Y-128350000D01*
X83570000Y-127433012D01*
X83627007Y-127465925D01*
X83754174Y-127500000D01*
X83885826Y-127500000D01*
X84012993Y-127465925D01*
X84070000Y-127433012D01*
X84070000Y-128350000D01*
X84717828Y-128350000D01*
X84717844Y-128349999D01*
X84777372Y-128343598D01*
X84777379Y-128343596D01*
X84912086Y-128293354D01*
X84912093Y-128293350D01*
X85027187Y-128207190D01*
X85027190Y-128207187D01*
X85113350Y-128092093D01*
X85113354Y-128092086D01*
X85162422Y-127960529D01*
X85204293Y-127904595D01*
X85269757Y-127880178D01*
X85338030Y-127895030D01*
X85366285Y-127916181D01*
X85488599Y-128038495D01*
X85585384Y-128106265D01*
X85682165Y-128174032D01*
X85682167Y-128174033D01*
X85682170Y-128174035D01*
X85896337Y-128273903D01*
X86124592Y-128335063D01*
X86301034Y-128350500D01*
X86359999Y-128355659D01*
X86360000Y-128355659D01*
X86360001Y-128355659D01*
X86418966Y-128350500D01*
X86595408Y-128335063D01*
X86823663Y-128273903D01*
X87037830Y-128174035D01*
X87231401Y-128038495D01*
X87398495Y-127871401D01*
X87528425Y-127685842D01*
X87583002Y-127642217D01*
X87652500Y-127635023D01*
X87714855Y-127666546D01*
X87731575Y-127685842D01*
X87861500Y-127871395D01*
X87861505Y-127871401D01*
X88028599Y-128038495D01*
X88125384Y-128106265D01*
X88222165Y-128174032D01*
X88222167Y-128174033D01*
X88222170Y-128174035D01*
X88227898Y-128176706D01*
X88280339Y-128222872D01*
X88299500Y-128289090D01*
X88299500Y-134533330D01*
X88299499Y-134533348D01*
X88299499Y-134699054D01*
X88299498Y-134699054D01*
X88340423Y-134851785D01*
X88369358Y-134901900D01*
X88369359Y-134901904D01*
X88369360Y-134901904D01*
X88419479Y-134988714D01*
X88419481Y-134988717D01*
X88538349Y-135107585D01*
X88538354Y-135107589D01*
X91671284Y-138240520D01*
X91671286Y-138240521D01*
X91671290Y-138240524D01*
X91808209Y-138319573D01*
X91808216Y-138319577D01*
X91960943Y-138360501D01*
X91960945Y-138360501D01*
X92126654Y-138360501D01*
X92126670Y-138360500D01*
X95833331Y-138360500D01*
X95833347Y-138360501D01*
X95840943Y-138360501D01*
X95999054Y-138360501D01*
X95999057Y-138360501D01*
X96151785Y-138319577D01*
X96201904Y-138290639D01*
X96288716Y-138240520D01*
X96400520Y-138128716D01*
X96400520Y-138128714D01*
X96410728Y-138118507D01*
X96410730Y-138118504D01*
X96538535Y-137990698D01*
X96599856Y-137957215D01*
X96612311Y-137955163D01*
X96699255Y-137945368D01*
X96869522Y-137885789D01*
X97022262Y-137789816D01*
X97149816Y-137662262D01*
X97245789Y-137509522D01*
X97305368Y-137339255D01*
X97315162Y-137252330D01*
X97325565Y-137160003D01*
X97325565Y-137159996D01*
X97305369Y-136980750D01*
X97305368Y-136980745D01*
X97245788Y-136810476D01*
X97149815Y-136657737D01*
X97022262Y-136530184D01*
X96869523Y-136434211D01*
X96699254Y-136374631D01*
X96699249Y-136374630D01*
X96520004Y-136354435D01*
X96519996Y-136354435D01*
X96340750Y-136374630D01*
X96340745Y-136374631D01*
X96170476Y-136434211D01*
X96017737Y-136530184D01*
X95890184Y-136657737D01*
X95794210Y-136810478D01*
X95734630Y-136980750D01*
X95726898Y-137049383D01*
X95699832Y-137113797D01*
X95642237Y-137153352D01*
X95603678Y-137159500D01*
X94896322Y-137159500D01*
X94829283Y-137139815D01*
X94783528Y-137087011D01*
X94773102Y-137049383D01*
X94765369Y-136980750D01*
X94765368Y-136980748D01*
X94765368Y-136980745D01*
X94705789Y-136810478D01*
X94609816Y-136657738D01*
X94482262Y-136530184D01*
X94329521Y-136434210D01*
X94159249Y-136374630D01*
X94072330Y-136364837D01*
X94007916Y-136337770D01*
X93998533Y-136329298D01*
X92076819Y-134407584D01*
X92043334Y-134346261D01*
X92040500Y-134319903D01*
X92040500Y-128289090D01*
X92060185Y-128222051D01*
X92112101Y-128176706D01*
X92117830Y-128174035D01*
X92311401Y-128038495D01*
X92478495Y-127871401D01*
X92614035Y-127677830D01*
X92713903Y-127463663D01*
X92775063Y-127235408D01*
X92795659Y-127000000D01*
X92775063Y-126764592D01*
X92713903Y-126536337D01*
X92614035Y-126322171D01*
X92478495Y-126128599D01*
X92478494Y-126128597D01*
X92311402Y-125961506D01*
X92311395Y-125961501D01*
X92117834Y-125825967D01*
X92117830Y-125825965D01*
X92046727Y-125792809D01*
X91903663Y-125726097D01*
X91903659Y-125726096D01*
X91903655Y-125726094D01*
X91675413Y-125664938D01*
X91675403Y-125664936D01*
X91440001Y-125644341D01*
X91439999Y-125644341D01*
X91204596Y-125664936D01*
X91204583Y-125664939D01*
X91076241Y-125699327D01*
X91006392Y-125697664D01*
X90956468Y-125667233D01*
X88236819Y-122947584D01*
X88203334Y-122886261D01*
X88200500Y-122859903D01*
X88200500Y-118910575D01*
X88220185Y-118843536D01*
X88272989Y-118797781D01*
X88338382Y-118787355D01*
X88407667Y-118795161D01*
X88472081Y-118822227D01*
X88481465Y-118830700D01*
X94169298Y-124518533D01*
X94202783Y-124579856D01*
X94204837Y-124592330D01*
X94214630Y-124679249D01*
X94274210Y-124849521D01*
X94274211Y-124849522D01*
X94370184Y-125002262D01*
X94497738Y-125129816D01*
X94650478Y-125225789D01*
X94820745Y-125285368D01*
X94820750Y-125285369D01*
X94999996Y-125305565D01*
X95000000Y-125305565D01*
X95000004Y-125305565D01*
X95179249Y-125285369D01*
X95179252Y-125285368D01*
X95179255Y-125285368D01*
X95349522Y-125225789D01*
X95502262Y-125129816D01*
X95629816Y-125002262D01*
X95725789Y-124849522D01*
X95747316Y-124788000D01*
X95788038Y-124731225D01*
X95852990Y-124705477D01*
X95921552Y-124718933D01*
X95952039Y-124741274D01*
X96733681Y-125522916D01*
X96767166Y-125584239D01*
X96770000Y-125610597D01*
X96770000Y-126566988D01*
X96712993Y-126534075D01*
X96585826Y-126500000D01*
X96454174Y-126500000D01*
X96327007Y-126534075D01*
X96270000Y-126566988D01*
X96270000Y-125669364D01*
X96269999Y-125669364D01*
X96056513Y-125726567D01*
X96056507Y-125726570D01*
X95842422Y-125826399D01*
X95842420Y-125826400D01*
X95648926Y-125961886D01*
X95648920Y-125961891D01*
X95481891Y-126128920D01*
X95481886Y-126128926D01*
X95346400Y-126322420D01*
X95346399Y-126322422D01*
X95246570Y-126536507D01*
X95246567Y-126536513D01*
X95189364Y-126749999D01*
X95189364Y-126750000D01*
X96086988Y-126750000D01*
X96054075Y-126807007D01*
X96020000Y-126934174D01*
X96020000Y-127065826D01*
X96054075Y-127192993D01*
X96086988Y-127250000D01*
X95189364Y-127250000D01*
X95246567Y-127463486D01*
X95246570Y-127463492D01*
X95346399Y-127677578D01*
X95481894Y-127871082D01*
X95648917Y-128038105D01*
X95842421Y-128173600D01*
X96056507Y-128273429D01*
X96056516Y-128273433D01*
X96270000Y-128330634D01*
X96270000Y-127433012D01*
X96327007Y-127465925D01*
X96454174Y-127500000D01*
X96585826Y-127500000D01*
X96712993Y-127465925D01*
X96770000Y-127433012D01*
X96770000Y-128330633D01*
X96983483Y-128273433D01*
X96983492Y-128273429D01*
X97197578Y-128173600D01*
X97391082Y-128038105D01*
X97558105Y-127871082D01*
X97688119Y-127685405D01*
X97742696Y-127641781D01*
X97812195Y-127634588D01*
X97874549Y-127666110D01*
X97891269Y-127685405D01*
X98021505Y-127871401D01*
X98188599Y-128038495D01*
X98285384Y-128106265D01*
X98382165Y-128174032D01*
X98382167Y-128174033D01*
X98382170Y-128174035D01*
X98596337Y-128273903D01*
X98824592Y-128335063D01*
X99001034Y-128350500D01*
X99059999Y-128355659D01*
X99060000Y-128355659D01*
X99060001Y-128355659D01*
X99118966Y-128350500D01*
X99295408Y-128335063D01*
X99523663Y-128273903D01*
X99737830Y-128174035D01*
X99931401Y-128038495D01*
X100098495Y-127871401D01*
X100228425Y-127685842D01*
X100283002Y-127642217D01*
X100352500Y-127635023D01*
X100414855Y-127666546D01*
X100431575Y-127685842D01*
X100561500Y-127871395D01*
X100561505Y-127871401D01*
X100728599Y-128038495D01*
X100825384Y-128106265D01*
X100922165Y-128174032D01*
X100922167Y-128174033D01*
X100922170Y-128174035D01*
X101136337Y-128273903D01*
X101364592Y-128335063D01*
X101541034Y-128350500D01*
X101599999Y-128355659D01*
X101600000Y-128355659D01*
X101600001Y-128355659D01*
X101658966Y-128350500D01*
X101835408Y-128335063D01*
X102063663Y-128273903D01*
X102277830Y-128174035D01*
X102471401Y-128038495D01*
X102593329Y-127916566D01*
X102654648Y-127883084D01*
X102724340Y-127888068D01*
X102780274Y-127929939D01*
X102797189Y-127960917D01*
X102846202Y-128092328D01*
X102846206Y-128092335D01*
X102932452Y-128207544D01*
X102932455Y-128207547D01*
X103047664Y-128293793D01*
X103047671Y-128293797D01*
X103182517Y-128344091D01*
X103182516Y-128344091D01*
X103189444Y-128344835D01*
X103242127Y-128350500D01*
X104565500Y-128350499D01*
X104632539Y-128370184D01*
X104678294Y-128422987D01*
X104689500Y-128474499D01*
X104689500Y-130629902D01*
X104669815Y-130696941D01*
X104653181Y-130717583D01*
X99041465Y-136329298D01*
X98980142Y-136362783D01*
X98967668Y-136364837D01*
X98880750Y-136374630D01*
X98710478Y-136434210D01*
X98557737Y-136530184D01*
X98430184Y-136657737D01*
X98334211Y-136810476D01*
X98274631Y-136980745D01*
X98274630Y-136980750D01*
X98254435Y-137159996D01*
X98254435Y-137160003D01*
X98274630Y-137339249D01*
X98274631Y-137339254D01*
X98334211Y-137509523D01*
X98430184Y-137662262D01*
X98557738Y-137789816D01*
X98710478Y-137885789D01*
X98880742Y-137945367D01*
X98880745Y-137945368D01*
X98880750Y-137945369D01*
X99059996Y-137965565D01*
X99060000Y-137965565D01*
X99060004Y-137965565D01*
X99239249Y-137945369D01*
X99239252Y-137945368D01*
X99239255Y-137945368D01*
X99409522Y-137885789D01*
X99562262Y-137789816D01*
X99689816Y-137662262D01*
X99785789Y-137509522D01*
X99845368Y-137339255D01*
X99855161Y-137252329D01*
X99882226Y-137187918D01*
X99890690Y-137178543D01*
X105648506Y-131420728D01*
X105648511Y-131420724D01*
X105658714Y-131410520D01*
X105658716Y-131410520D01*
X105770520Y-131298716D01*
X105849577Y-131161784D01*
X105890500Y-131009057D01*
X105890500Y-125879059D01*
X105890501Y-125879046D01*
X105890501Y-125710945D01*
X105890501Y-125710943D01*
X105849577Y-125558215D01*
X105820639Y-125508095D01*
X105770520Y-125421284D01*
X105658716Y-125309480D01*
X105658715Y-125309479D01*
X105654385Y-125305149D01*
X105654374Y-125305139D01*
X96200904Y-115851669D01*
X96167419Y-115790346D01*
X96172403Y-115720654D01*
X96214275Y-115664721D01*
X96236268Y-115656517D01*
X96270000Y-115630634D01*
X96270000Y-114733012D01*
X96327007Y-114765925D01*
X96454174Y-114800000D01*
X96585826Y-114800000D01*
X96712993Y-114765925D01*
X96770000Y-114733012D01*
X96770000Y-115630633D01*
X96983483Y-115573433D01*
X96983492Y-115573429D01*
X97197578Y-115473600D01*
X97391082Y-115338105D01*
X97558105Y-115171082D01*
X97693600Y-114977578D01*
X97793429Y-114763492D01*
X97793432Y-114763486D01*
X97850636Y-114550000D01*
X96953012Y-114550000D01*
X96985925Y-114492993D01*
X97020000Y-114365826D01*
X97020000Y-114234174D01*
X96985925Y-114107007D01*
X96953012Y-114050000D01*
X97850636Y-114050000D01*
X97850635Y-114049999D01*
X97793432Y-113836513D01*
X97793429Y-113836507D01*
X97693600Y-113622422D01*
X97693599Y-113622420D01*
X97558113Y-113428926D01*
X97558108Y-113428920D01*
X97391078Y-113261890D01*
X97205405Y-113131879D01*
X97161780Y-113077302D01*
X97154588Y-113007804D01*
X97186110Y-112945449D01*
X97205406Y-112928730D01*
X97227315Y-112913389D01*
X100299500Y-112913389D01*
X100299500Y-113086611D01*
X100326598Y-113257701D01*
X100380127Y-113422445D01*
X100458768Y-113576788D01*
X100560586Y-113716928D01*
X100683072Y-113839414D01*
X100823212Y-113941232D01*
X100977555Y-114019873D01*
X101142299Y-114073402D01*
X101313389Y-114100500D01*
X101644470Y-114100500D01*
X101711509Y-114120185D01*
X101757264Y-114172989D01*
X101767941Y-114235941D01*
X101764785Y-114269999D01*
X101783602Y-114473082D01*
X101839417Y-114669247D01*
X101839422Y-114669260D01*
X101930327Y-114851821D01*
X102053237Y-115014581D01*
X102203958Y-115151980D01*
X102203960Y-115151982D01*
X102234808Y-115171082D01*
X102377363Y-115259348D01*
X102567544Y-115333024D01*
X102768024Y-115370500D01*
X102768026Y-115370500D01*
X102971974Y-115370500D01*
X102971976Y-115370500D01*
X103172456Y-115333024D01*
X103362637Y-115259348D01*
X103536041Y-115151981D01*
X103686764Y-115014579D01*
X103809673Y-114851821D01*
X103900582Y-114669250D01*
X103956397Y-114473083D01*
X103975215Y-114270000D01*
X103972059Y-114235941D01*
X103985474Y-114167372D01*
X104033831Y-114116940D01*
X104095530Y-114100500D01*
X104241974Y-114100500D01*
X104241976Y-114100500D01*
X104442456Y-114063024D01*
X104632637Y-113989348D01*
X104806041Y-113881981D01*
X104956764Y-113744579D01*
X105079673Y-113581821D01*
X105170582Y-113399250D01*
X105226397Y-113203083D01*
X105245215Y-113000000D01*
X105237189Y-112913389D01*
X105226397Y-112796917D01*
X105213397Y-112751229D01*
X105170582Y-112600750D01*
X105159032Y-112577555D01*
X105082179Y-112423212D01*
X105079673Y-112418179D01*
X104956764Y-112255421D01*
X104956762Y-112255418D01*
X104806041Y-112118019D01*
X104806039Y-112118017D01*
X104632642Y-112010655D01*
X104632635Y-112010651D01*
X104537546Y-111973814D01*
X104442456Y-111936976D01*
X104241976Y-111899500D01*
X104038024Y-111899500D01*
X103837544Y-111936976D01*
X103837541Y-111936976D01*
X103837541Y-111936977D01*
X103647364Y-112010651D01*
X103647357Y-112010655D01*
X103473960Y-112118017D01*
X103473958Y-112118019D01*
X103323237Y-112255418D01*
X103200327Y-112418178D01*
X103109422Y-112600739D01*
X103109417Y-112600752D01*
X103089162Y-112671941D01*
X103051882Y-112731034D01*
X102988572Y-112760591D01*
X102919333Y-112751229D01*
X102866147Y-112705918D01*
X102851965Y-112676324D01*
X102850541Y-112671941D01*
X102819873Y-112577555D01*
X102741232Y-112423212D01*
X102639414Y-112283072D01*
X102516928Y-112160586D01*
X102376788Y-112058768D01*
X102222445Y-111980127D01*
X102057701Y-111926598D01*
X102057699Y-111926597D01*
X102057698Y-111926597D01*
X101926271Y-111905781D01*
X101886611Y-111899500D01*
X101313389Y-111899500D01*
X101273728Y-111905781D01*
X101142302Y-111926597D01*
X100977552Y-111980128D01*
X100823211Y-112058768D01*
X100743256Y-112116859D01*
X100683072Y-112160586D01*
X100683070Y-112160588D01*
X100683069Y-112160588D01*
X100560588Y-112283069D01*
X100560588Y-112283070D01*
X100560586Y-112283072D01*
X100516859Y-112343256D01*
X100458768Y-112423211D01*
X100380128Y-112577552D01*
X100326597Y-112742302D01*
X100317697Y-112798495D01*
X100299500Y-112913389D01*
X97227315Y-112913389D01*
X97391401Y-112798495D01*
X97558495Y-112631401D01*
X97694035Y-112437830D01*
X97793903Y-112223663D01*
X97855063Y-111995408D01*
X97875659Y-111760000D01*
X97855063Y-111524592D01*
X97820671Y-111396239D01*
X97822334Y-111326393D01*
X97852763Y-111276470D01*
X106480520Y-102648716D01*
X106559577Y-102511784D01*
X106600501Y-102359057D01*
X106600501Y-102200942D01*
X106600501Y-102193347D01*
X106600500Y-102193329D01*
X106600500Y-93389060D01*
X106600501Y-93389047D01*
X106600501Y-93220944D01*
X106585613Y-93165381D01*
X106559577Y-93068216D01*
X106559573Y-93068209D01*
X106480524Y-92931290D01*
X106480518Y-92931282D01*
X102860914Y-89311679D01*
X102827429Y-89250356D01*
X102828821Y-89191902D01*
X102843960Y-89135408D01*
X102848070Y-89120068D01*
X102867323Y-88900000D01*
X102848070Y-88679932D01*
X102790894Y-88466550D01*
X102697534Y-88266339D01*
X102570826Y-88085380D01*
X102414620Y-87929174D01*
X102414616Y-87929171D01*
X102414615Y-87929170D01*
X102233666Y-87802468D01*
X102233658Y-87802464D01*
X102104811Y-87742382D01*
X102052371Y-87696210D01*
X102033219Y-87629017D01*
X102053435Y-87562135D01*
X102104811Y-87517618D01*
X102110802Y-87514824D01*
X102233662Y-87457534D01*
X102414620Y-87330826D01*
X102570826Y-87174620D01*
X102697534Y-86993662D01*
X102790894Y-86793450D01*
X102848070Y-86580068D01*
X102867323Y-86360000D01*
X102848070Y-86139932D01*
X102790894Y-85926550D01*
X102697534Y-85726339D01*
X102570826Y-85545380D01*
X102414620Y-85389174D01*
X102414616Y-85389171D01*
X102414615Y-85389170D01*
X102233666Y-85262468D01*
X102233658Y-85262464D01*
X102104811Y-85202382D01*
X102052371Y-85156210D01*
X102033219Y-85089017D01*
X102053435Y-85022135D01*
X102104811Y-84977618D01*
X102110802Y-84974824D01*
X102233662Y-84917534D01*
X102414620Y-84790826D01*
X102570826Y-84634620D01*
X102697534Y-84453662D01*
X102790894Y-84253450D01*
X102848070Y-84040068D01*
X102867323Y-83820000D01*
X102848070Y-83599932D01*
X102790894Y-83386550D01*
X102697534Y-83186339D01*
X102570826Y-83005380D01*
X102414620Y-82849174D01*
X102414616Y-82849171D01*
X102414615Y-82849170D01*
X102233666Y-82722468D01*
X102233662Y-82722466D01*
X102104218Y-82662105D01*
X102051779Y-82615932D01*
X102032627Y-82548739D01*
X102052843Y-82481858D01*
X102104219Y-82437340D01*
X102233416Y-82377095D01*
X102233417Y-82377094D01*
X102298188Y-82331741D01*
X101684095Y-81717647D01*
X101771571Y-81694208D01*
X101872930Y-81635689D01*
X101955689Y-81552930D01*
X102014208Y-81451571D01*
X102037647Y-81364094D01*
X102651741Y-81978188D01*
X102697094Y-81913417D01*
X102697100Y-81913407D01*
X102790419Y-81713284D01*
X102790424Y-81713270D01*
X102847573Y-81499986D01*
X102847575Y-81499976D01*
X102866821Y-81280000D01*
X102866821Y-81279999D01*
X102847575Y-81060023D01*
X102847573Y-81060013D01*
X102790424Y-80846729D01*
X102790420Y-80846720D01*
X102697096Y-80646586D01*
X102651741Y-80581811D01*
X102651740Y-80581810D01*
X102037647Y-81195904D01*
X102014208Y-81108429D01*
X101955689Y-81007070D01*
X101872930Y-80924311D01*
X101771571Y-80865792D01*
X101684095Y-80842352D01*
X102298188Y-80228259D01*
X102298187Y-80228258D01*
X102233411Y-80182901D01*
X102233405Y-80182898D01*
X102104219Y-80122658D01*
X102051779Y-80076486D01*
X102032627Y-80009293D01*
X102052843Y-79942411D01*
X102104219Y-79897894D01*
X102104811Y-79897618D01*
X102233662Y-79837534D01*
X102414620Y-79710826D01*
X102570826Y-79554620D01*
X102697534Y-79373662D01*
X102790894Y-79173450D01*
X102848070Y-78960068D01*
X102867323Y-78740000D01*
X102848070Y-78519932D01*
X102790894Y-78306550D01*
X102697534Y-78106339D01*
X102570826Y-77925380D01*
X102414620Y-77769174D01*
X102414616Y-77769171D01*
X102414615Y-77769170D01*
X102233666Y-77642468D01*
X102233662Y-77642466D01*
X102233660Y-77642465D01*
X102033450Y-77549106D01*
X102033447Y-77549105D01*
X102033445Y-77549104D01*
X101820070Y-77491930D01*
X101820062Y-77491929D01*
X101600002Y-77472677D01*
X101599998Y-77472677D01*
X101379937Y-77491929D01*
X101379929Y-77491930D01*
X101166554Y-77549104D01*
X101166548Y-77549107D01*
X100966340Y-77642465D01*
X100966338Y-77642466D01*
X100785377Y-77769175D01*
X100629175Y-77925377D01*
X100502466Y-78106338D01*
X100502465Y-78106340D01*
X100409107Y-78306548D01*
X100409104Y-78306554D01*
X100351930Y-78519929D01*
X100351929Y-78519937D01*
X100332677Y-78739997D01*
X100332677Y-78740002D01*
X100351929Y-78960062D01*
X100351930Y-78960070D01*
X100409104Y-79173445D01*
X100409105Y-79173447D01*
X100409106Y-79173450D01*
X100502466Y-79373662D01*
X100502468Y-79373666D01*
X100629170Y-79554615D01*
X100629175Y-79554621D01*
X100785378Y-79710824D01*
X100785384Y-79710829D01*
X100966333Y-79837531D01*
X100966335Y-79837532D01*
X100966338Y-79837534D01*
X101095189Y-79897618D01*
X101095781Y-79897894D01*
X101148220Y-79944066D01*
X101167372Y-80011260D01*
X101147156Y-80078141D01*
X101095781Y-80122658D01*
X100966590Y-80182901D01*
X100901811Y-80228258D01*
X101515905Y-80842352D01*
X101428429Y-80865792D01*
X101327070Y-80924311D01*
X101244311Y-81007070D01*
X101185792Y-81108429D01*
X101162352Y-81195905D01*
X100548258Y-80581811D01*
X100502901Y-80646590D01*
X100409579Y-80846720D01*
X100409575Y-80846729D01*
X100352426Y-81060013D01*
X100352424Y-81060023D01*
X100333179Y-81279999D01*
X100333179Y-81280000D01*
X100352424Y-81499976D01*
X100352426Y-81499986D01*
X100409575Y-81713270D01*
X100409580Y-81713284D01*
X100502898Y-81913405D01*
X100502901Y-81913411D01*
X100548258Y-81978187D01*
X100548259Y-81978188D01*
X101162352Y-81364094D01*
X101185792Y-81451571D01*
X101244311Y-81552930D01*
X101327070Y-81635689D01*
X101428429Y-81694208D01*
X101515905Y-81717647D01*
X100901810Y-82331740D01*
X100966589Y-82377098D01*
X101095781Y-82437342D01*
X101148220Y-82483514D01*
X101167372Y-82550708D01*
X101147156Y-82617589D01*
X101095781Y-82662106D01*
X100966340Y-82722465D01*
X100966338Y-82722466D01*
X100785377Y-82849175D01*
X100629175Y-83005377D01*
X100502466Y-83186338D01*
X100502465Y-83186340D01*
X100409107Y-83386548D01*
X100409104Y-83386554D01*
X100351930Y-83599929D01*
X100351929Y-83599937D01*
X100332677Y-83819997D01*
X100332677Y-83820002D01*
X100351929Y-84040062D01*
X100351930Y-84040070D01*
X100409104Y-84253445D01*
X100409105Y-84253447D01*
X100409106Y-84253450D01*
X100502466Y-84453662D01*
X100502468Y-84453666D01*
X100629170Y-84634615D01*
X100629175Y-84634621D01*
X100785378Y-84790824D01*
X100785384Y-84790829D01*
X100966333Y-84917531D01*
X100966335Y-84917532D01*
X100966338Y-84917534D01*
X101085748Y-84973215D01*
X101095189Y-84977618D01*
X101147628Y-85023790D01*
X101166780Y-85090984D01*
X101146564Y-85157865D01*
X101095189Y-85202382D01*
X100966340Y-85262465D01*
X100966338Y-85262466D01*
X100785377Y-85389175D01*
X100629175Y-85545377D01*
X100502466Y-85726338D01*
X100502465Y-85726340D01*
X100409107Y-85926548D01*
X100409104Y-85926554D01*
X100351930Y-86139929D01*
X100351929Y-86139937D01*
X100332677Y-86359997D01*
X100332677Y-86360002D01*
X100351929Y-86580062D01*
X100351932Y-86580076D01*
X100371178Y-86651906D01*
X100369515Y-86721755D01*
X100339084Y-86771679D01*
X97301286Y-89809478D01*
X97189481Y-89921282D01*
X97189479Y-89921285D01*
X97164420Y-89964689D01*
X97145458Y-89997534D01*
X97139361Y-90008094D01*
X97139359Y-90008096D01*
X97110425Y-90058209D01*
X97110424Y-90058210D01*
X97098211Y-90103790D01*
X97069499Y-90210943D01*
X97069499Y-90210945D01*
X97069499Y-90379046D01*
X97069500Y-90379059D01*
X97069500Y-100125500D01*
X97049815Y-100192539D01*
X96997011Y-100238294D01*
X96945500Y-100249500D01*
X95622129Y-100249500D01*
X95622123Y-100249501D01*
X95562516Y-100255908D01*
X95427671Y-100306202D01*
X95427664Y-100306206D01*
X95312455Y-100392452D01*
X95312452Y-100392455D01*
X95226206Y-100507664D01*
X95226202Y-100507671D01*
X95175908Y-100642517D01*
X95169501Y-100702116D01*
X95169500Y-100702135D01*
X95169500Y-101640903D01*
X95149815Y-101707942D01*
X95097011Y-101753697D01*
X95027853Y-101763641D01*
X94964297Y-101734616D01*
X94957819Y-101728584D01*
X94636819Y-101407584D01*
X94603334Y-101346261D01*
X94600500Y-101319903D01*
X94600500Y-86469060D01*
X94600501Y-86469047D01*
X94600501Y-86300944D01*
X94559576Y-86148214D01*
X94559573Y-86148209D01*
X94480524Y-86011290D01*
X94480518Y-86011282D01*
X91085168Y-82615932D01*
X87620913Y-79151678D01*
X87587429Y-79090356D01*
X87588821Y-79031902D01*
X87608069Y-78960072D01*
X87608069Y-78960070D01*
X87608070Y-78960068D01*
X87627323Y-78740000D01*
X87608070Y-78519932D01*
X87550894Y-78306550D01*
X87457534Y-78106339D01*
X87330826Y-77925380D01*
X87174620Y-77769174D01*
X87174616Y-77769171D01*
X87174615Y-77769170D01*
X86993666Y-77642468D01*
X86993662Y-77642466D01*
X86993660Y-77642465D01*
X86793450Y-77549106D01*
X86793447Y-77549105D01*
X86793445Y-77549104D01*
X86580070Y-77491930D01*
X86580062Y-77491929D01*
X86360002Y-77472677D01*
X86359998Y-77472677D01*
X86139937Y-77491929D01*
X86139929Y-77491930D01*
X85926554Y-77549104D01*
X85926548Y-77549107D01*
X85726340Y-77642465D01*
X85726338Y-77642466D01*
X85545377Y-77769175D01*
X85389175Y-77925377D01*
X85262466Y-78106338D01*
X85262465Y-78106340D01*
X85169107Y-78306548D01*
X85169104Y-78306554D01*
X85111930Y-78519929D01*
X85111929Y-78519937D01*
X85092677Y-78739997D01*
X85092677Y-78740002D01*
X85111929Y-78960062D01*
X85111930Y-78960070D01*
X85169104Y-79173445D01*
X85169105Y-79173447D01*
X85169106Y-79173450D01*
X85262466Y-79373662D01*
X85262468Y-79373666D01*
X85389170Y-79554615D01*
X85389175Y-79554621D01*
X85545378Y-79710824D01*
X85545384Y-79710829D01*
X85726333Y-79837531D01*
X85726335Y-79837532D01*
X85726338Y-79837534D01*
X85845748Y-79893215D01*
X85855189Y-79897618D01*
X85907628Y-79943790D01*
X85926780Y-80010984D01*
X85906564Y-80077865D01*
X85855189Y-80122382D01*
X85726340Y-80182465D01*
X85726338Y-80182466D01*
X85545377Y-80309175D01*
X85389175Y-80465377D01*
X85262466Y-80646338D01*
X85262465Y-80646340D01*
X85169107Y-80846548D01*
X85169104Y-80846554D01*
X85111930Y-81059929D01*
X85111929Y-81059937D01*
X85092677Y-81279997D01*
X85092677Y-81280002D01*
X85111929Y-81500062D01*
X85111930Y-81500070D01*
X85169104Y-81713445D01*
X85169105Y-81713447D01*
X85169106Y-81713450D01*
X85174259Y-81724500D01*
X85262466Y-81913662D01*
X85262468Y-81913666D01*
X85389170Y-82094615D01*
X85389175Y-82094621D01*
X85545378Y-82250824D01*
X85545384Y-82250829D01*
X85726333Y-82377531D01*
X85726335Y-82377532D01*
X85726338Y-82377534D01*
X85845748Y-82433215D01*
X85855189Y-82437618D01*
X85907628Y-82483790D01*
X85926780Y-82550984D01*
X85906564Y-82617865D01*
X85855189Y-82662382D01*
X85726340Y-82722465D01*
X85726338Y-82722466D01*
X85545377Y-82849175D01*
X85389175Y-83005377D01*
X85262466Y-83186338D01*
X85262465Y-83186340D01*
X85169107Y-83386548D01*
X85169104Y-83386554D01*
X85111930Y-83599929D01*
X85111929Y-83599937D01*
X85092677Y-83819997D01*
X85092677Y-83820002D01*
X85111929Y-84040062D01*
X85111930Y-84040070D01*
X85169104Y-84253445D01*
X85169105Y-84253447D01*
X85169106Y-84253450D01*
X85262466Y-84453662D01*
X85262468Y-84453666D01*
X85389170Y-84634615D01*
X85389175Y-84634621D01*
X85545378Y-84790824D01*
X85545384Y-84790829D01*
X85726333Y-84917531D01*
X85726335Y-84917532D01*
X85726338Y-84917534D01*
X85845748Y-84973215D01*
X85855189Y-84977618D01*
X85907628Y-85023790D01*
X85926780Y-85090984D01*
X85906564Y-85157865D01*
X85855189Y-85202382D01*
X85726340Y-85262465D01*
X85726338Y-85262466D01*
X85545377Y-85389175D01*
X85389175Y-85545377D01*
X85262466Y-85726338D01*
X85262465Y-85726340D01*
X85169107Y-85926548D01*
X85169104Y-85926554D01*
X85111930Y-86139929D01*
X85111929Y-86139937D01*
X85092677Y-86359997D01*
X85092677Y-86360002D01*
X85111929Y-86580062D01*
X85111930Y-86580070D01*
X85169104Y-86793445D01*
X85169105Y-86793447D01*
X85169106Y-86793450D01*
X85191253Y-86840944D01*
X85262466Y-86993662D01*
X85262468Y-86993666D01*
X85389170Y-87174615D01*
X85389175Y-87174621D01*
X85545378Y-87330824D01*
X85545384Y-87330829D01*
X85726333Y-87457531D01*
X85726335Y-87457532D01*
X85726338Y-87457534D01*
X85845748Y-87513215D01*
X85855189Y-87517618D01*
X85907628Y-87563790D01*
X85926780Y-87630984D01*
X85906564Y-87697865D01*
X85855189Y-87742382D01*
X85726340Y-87802465D01*
X85726338Y-87802466D01*
X85545377Y-87929175D01*
X85389175Y-88085377D01*
X85262466Y-88266338D01*
X85262465Y-88266340D01*
X85169107Y-88466548D01*
X85169104Y-88466554D01*
X85111930Y-88679929D01*
X85111929Y-88679937D01*
X85092677Y-88899997D01*
X85092677Y-88900002D01*
X85111929Y-89120062D01*
X85111930Y-89120070D01*
X85169104Y-89333445D01*
X85169105Y-89333447D01*
X85169106Y-89333450D01*
X85183195Y-89363664D01*
X85262466Y-89533662D01*
X85262468Y-89533666D01*
X85389170Y-89714615D01*
X85389175Y-89714621D01*
X85545378Y-89870824D01*
X85545384Y-89870829D01*
X85726333Y-89997531D01*
X85726335Y-89997532D01*
X85726338Y-89997534D01*
X85845748Y-90053215D01*
X85855189Y-90057618D01*
X85907628Y-90103790D01*
X85926780Y-90170984D01*
X85906564Y-90237865D01*
X85855189Y-90282382D01*
X85726340Y-90342465D01*
X85726338Y-90342466D01*
X85545377Y-90469175D01*
X85389175Y-90625377D01*
X85262466Y-90806338D01*
X85262465Y-90806340D01*
X85169107Y-91006548D01*
X85169104Y-91006554D01*
X85111930Y-91219929D01*
X85111929Y-91219937D01*
X85092677Y-91439997D01*
X85092677Y-91440002D01*
X85111929Y-91660062D01*
X85111932Y-91660076D01*
X85131178Y-91731906D01*
X85129515Y-91801755D01*
X85099084Y-91851679D01*
X84929286Y-92021478D01*
X84817481Y-92133282D01*
X84817477Y-92133287D01*
X84769067Y-92217138D01*
X84769066Y-92217137D01*
X84738424Y-92270211D01*
X84738423Y-92270215D01*
X84697499Y-92422943D01*
X84697499Y-92422945D01*
X84697499Y-92591046D01*
X84697500Y-92591059D01*
X84697500Y-123311330D01*
X84697499Y-123311348D01*
X84697499Y-123477054D01*
X84697498Y-123477054D01*
X84738423Y-123629784D01*
X84738424Y-123629788D01*
X84744618Y-123640516D01*
X84744621Y-123640520D01*
X84817477Y-123766712D01*
X84817481Y-123766717D01*
X84936349Y-123885585D01*
X84936355Y-123885590D01*
X86486333Y-125435568D01*
X86519818Y-125496891D01*
X86514834Y-125566583D01*
X86472962Y-125622516D01*
X86407498Y-125646933D01*
X86387844Y-125646777D01*
X86360001Y-125644341D01*
X86359999Y-125644341D01*
X86124596Y-125664936D01*
X86124586Y-125664938D01*
X85896344Y-125726094D01*
X85896335Y-125726098D01*
X85682171Y-125825964D01*
X85682169Y-125825965D01*
X85488600Y-125961503D01*
X85366284Y-126083819D01*
X85304961Y-126117303D01*
X85235269Y-126112319D01*
X85179336Y-126070447D01*
X85162421Y-126039470D01*
X85113354Y-125907913D01*
X85113350Y-125907906D01*
X85027190Y-125792812D01*
X85027187Y-125792809D01*
X84912093Y-125706649D01*
X84912086Y-125706645D01*
X84777379Y-125656403D01*
X84777372Y-125656401D01*
X84717844Y-125650000D01*
X84070000Y-125650000D01*
X84070000Y-126566988D01*
X84012993Y-126534075D01*
X83885826Y-126500000D01*
X83754174Y-126500000D01*
X83627007Y-126534075D01*
X83570000Y-126566988D01*
X83570000Y-125650000D01*
X82922155Y-125650000D01*
X82862627Y-125656401D01*
X82862620Y-125656403D01*
X82727913Y-125706645D01*
X82727906Y-125706649D01*
X82612812Y-125792809D01*
X82612809Y-125792812D01*
X82526649Y-125907906D01*
X82526645Y-125907913D01*
X82476403Y-126042620D01*
X82476401Y-126042627D01*
X82470000Y-126102155D01*
X78210500Y-126102155D01*
X78210500Y-121919999D01*
X79924341Y-121919999D01*
X79924341Y-121920000D01*
X79944936Y-122155403D01*
X79944938Y-122155413D01*
X80006094Y-122383655D01*
X80006096Y-122383659D01*
X80006097Y-122383663D01*
X80105965Y-122597830D01*
X80105967Y-122597834D01*
X80214281Y-122752521D01*
X80241505Y-122791401D01*
X80408599Y-122958495D01*
X80505384Y-123026265D01*
X80602165Y-123094032D01*
X80602167Y-123094033D01*
X80602170Y-123094035D01*
X80816337Y-123193903D01*
X81044592Y-123255063D01*
X81232918Y-123271539D01*
X81279999Y-123275659D01*
X81280000Y-123275659D01*
X81280001Y-123275659D01*
X81319234Y-123272226D01*
X81515408Y-123255063D01*
X81743663Y-123193903D01*
X81957830Y-123094035D01*
X82151401Y-122958495D01*
X82318495Y-122791401D01*
X82454035Y-122597830D01*
X82553903Y-122383663D01*
X82615063Y-122155408D01*
X82635659Y-121920000D01*
X82615063Y-121684592D01*
X82553903Y-121456337D01*
X82454035Y-121242171D01*
X82318495Y-121048599D01*
X82196567Y-120926671D01*
X82163084Y-120865351D01*
X82168068Y-120795659D01*
X82209939Y-120739725D01*
X82240915Y-120722810D01*
X82372331Y-120673796D01*
X82487546Y-120587546D01*
X82573796Y-120472331D01*
X82624091Y-120337483D01*
X82630500Y-120277873D01*
X82630499Y-118482128D01*
X82624091Y-118422517D01*
X82573796Y-118287669D01*
X82573795Y-118287668D01*
X82573793Y-118287664D01*
X82487547Y-118172455D01*
X82487544Y-118172452D01*
X82372335Y-118086206D01*
X82372328Y-118086202D01*
X82237482Y-118035908D01*
X82237483Y-118035908D01*
X82177883Y-118029501D01*
X82177881Y-118029500D01*
X82177873Y-118029500D01*
X82177864Y-118029500D01*
X80382129Y-118029500D01*
X80382123Y-118029501D01*
X80322516Y-118035908D01*
X80187671Y-118086202D01*
X80187664Y-118086206D01*
X80072455Y-118172452D01*
X80072452Y-118172455D01*
X79986206Y-118287664D01*
X79986202Y-118287671D01*
X79935908Y-118422517D01*
X79929501Y-118482116D01*
X79929501Y-118482123D01*
X79929500Y-118482135D01*
X79929500Y-120277870D01*
X79929501Y-120277876D01*
X79935908Y-120337483D01*
X79986202Y-120472328D01*
X79986206Y-120472335D01*
X80072452Y-120587544D01*
X80072455Y-120587547D01*
X80187664Y-120673793D01*
X80187671Y-120673797D01*
X80319081Y-120722810D01*
X80375015Y-120764681D01*
X80399432Y-120830145D01*
X80384580Y-120898418D01*
X80363430Y-120926673D01*
X80241503Y-121048600D01*
X80105965Y-121242169D01*
X80105964Y-121242171D01*
X80006098Y-121456335D01*
X80006094Y-121456344D01*
X79944938Y-121684586D01*
X79944936Y-121684596D01*
X79924341Y-121919999D01*
X78210500Y-121919999D01*
X78210500Y-88899999D01*
X79924341Y-88899999D01*
X79924341Y-88900000D01*
X79944936Y-89135403D01*
X79944938Y-89135413D01*
X80006094Y-89363655D01*
X80006096Y-89363659D01*
X80006097Y-89363663D01*
X80085369Y-89533662D01*
X80105965Y-89577830D01*
X80105967Y-89577834D01*
X80241501Y-89771395D01*
X80241506Y-89771402D01*
X80408597Y-89938493D01*
X80408603Y-89938498D01*
X80594158Y-90068425D01*
X80637783Y-90123002D01*
X80644977Y-90192500D01*
X80613454Y-90254855D01*
X80594158Y-90271575D01*
X80408597Y-90401505D01*
X80241505Y-90568597D01*
X80105965Y-90762169D01*
X80105964Y-90762171D01*
X80006098Y-90976335D01*
X80006094Y-90976344D01*
X79944938Y-91204586D01*
X79944936Y-91204596D01*
X79924341Y-91439999D01*
X79924341Y-91440000D01*
X79944936Y-91675403D01*
X79944938Y-91675413D01*
X80006094Y-91903655D01*
X80006096Y-91903659D01*
X80006097Y-91903663D01*
X80061035Y-92021478D01*
X80105965Y-92117830D01*
X80105967Y-92117834D01*
X80241501Y-92311395D01*
X80241506Y-92311402D01*
X80408597Y-92478493D01*
X80408603Y-92478498D01*
X80594158Y-92608425D01*
X80637783Y-92663002D01*
X80644977Y-92732500D01*
X80613454Y-92794855D01*
X80594158Y-92811575D01*
X80408597Y-92941505D01*
X80241505Y-93108597D01*
X80105965Y-93302169D01*
X80105964Y-93302171D01*
X80006098Y-93516335D01*
X80006094Y-93516344D01*
X79944938Y-93744586D01*
X79944936Y-93744596D01*
X79924341Y-93979999D01*
X79924341Y-93980000D01*
X79944936Y-94215403D01*
X79944938Y-94215413D01*
X80006094Y-94443655D01*
X80006096Y-94443659D01*
X80006097Y-94443663D01*
X80085369Y-94613662D01*
X80105965Y-94657830D01*
X80105967Y-94657834D01*
X80172194Y-94752415D01*
X80241501Y-94851396D01*
X80241506Y-94851402D01*
X80363430Y-94973326D01*
X80396915Y-95034649D01*
X80391931Y-95104341D01*
X80350059Y-95160274D01*
X80319083Y-95177189D01*
X80187669Y-95226203D01*
X80187664Y-95226206D01*
X80072455Y-95312452D01*
X80072452Y-95312455D01*
X79986206Y-95427664D01*
X79986202Y-95427671D01*
X79935908Y-95562517D01*
X79929501Y-95622116D01*
X79929501Y-95622123D01*
X79929500Y-95622135D01*
X79929500Y-97417870D01*
X79929501Y-97417876D01*
X79935908Y-97477483D01*
X79986202Y-97612328D01*
X79986206Y-97612335D01*
X80072452Y-97727544D01*
X80072455Y-97727547D01*
X80187664Y-97813793D01*
X80187671Y-97813797D01*
X80322517Y-97864091D01*
X80322516Y-97864091D01*
X80329444Y-97864835D01*
X80382127Y-97870500D01*
X82177872Y-97870499D01*
X82237483Y-97864091D01*
X82372331Y-97813796D01*
X82487546Y-97727546D01*
X82573796Y-97612331D01*
X82624091Y-97477483D01*
X82630500Y-97417873D01*
X82630499Y-95622128D01*
X82624091Y-95562517D01*
X82573796Y-95427669D01*
X82573795Y-95427668D01*
X82573793Y-95427664D01*
X82487547Y-95312455D01*
X82487544Y-95312452D01*
X82372335Y-95226206D01*
X82372328Y-95226202D01*
X82240917Y-95177189D01*
X82184983Y-95135318D01*
X82160566Y-95069853D01*
X82175418Y-95001580D01*
X82196563Y-94973332D01*
X82318495Y-94851401D01*
X82454035Y-94657830D01*
X82553903Y-94443663D01*
X82615063Y-94215408D01*
X82635659Y-93980000D01*
X82615063Y-93744592D01*
X82562000Y-93546554D01*
X82553905Y-93516344D01*
X82553904Y-93516343D01*
X82553903Y-93516337D01*
X82454035Y-93302171D01*
X82397160Y-93220944D01*
X82318494Y-93108597D01*
X82151402Y-92941506D01*
X82151396Y-92941501D01*
X81965842Y-92811575D01*
X81922217Y-92756998D01*
X81915023Y-92687500D01*
X81946546Y-92625145D01*
X81965842Y-92608425D01*
X82067083Y-92537535D01*
X82151401Y-92478495D01*
X82318495Y-92311401D01*
X82454035Y-92117830D01*
X82553903Y-91903663D01*
X82615063Y-91675408D01*
X82635659Y-91440000D01*
X82615063Y-91204592D01*
X82562000Y-91006554D01*
X82553905Y-90976344D01*
X82553904Y-90976343D01*
X82553903Y-90976337D01*
X82454035Y-90762171D01*
X82358254Y-90625380D01*
X82318494Y-90568597D01*
X82151402Y-90401506D01*
X82151396Y-90401501D01*
X81965842Y-90271575D01*
X81922217Y-90216998D01*
X81915023Y-90147500D01*
X81946546Y-90085145D01*
X81965842Y-90068425D01*
X81988026Y-90052891D01*
X82151401Y-89938495D01*
X82318495Y-89771401D01*
X82454035Y-89577830D01*
X82553903Y-89363663D01*
X82615063Y-89135408D01*
X82635659Y-88900000D01*
X82615063Y-88664592D01*
X82562000Y-88466554D01*
X82553905Y-88436344D01*
X82553904Y-88436343D01*
X82553903Y-88436337D01*
X82454035Y-88222171D01*
X82358253Y-88085380D01*
X82318496Y-88028600D01*
X82318495Y-88028599D01*
X82196567Y-87906671D01*
X82163084Y-87845351D01*
X82168068Y-87775659D01*
X82209939Y-87719725D01*
X82240915Y-87702810D01*
X82372331Y-87653796D01*
X82487546Y-87567546D01*
X82573796Y-87452331D01*
X82624091Y-87317483D01*
X82630500Y-87257873D01*
X82630499Y-85462128D01*
X82624091Y-85402517D01*
X82619114Y-85389174D01*
X82573797Y-85267671D01*
X82573793Y-85267664D01*
X82487547Y-85152455D01*
X82487544Y-85152452D01*
X82372335Y-85066206D01*
X82372328Y-85066202D01*
X82237482Y-85015908D01*
X82237483Y-85015908D01*
X82177883Y-85009501D01*
X82177881Y-85009500D01*
X82177873Y-85009500D01*
X82177864Y-85009500D01*
X80382129Y-85009500D01*
X80382123Y-85009501D01*
X80322516Y-85015908D01*
X80187671Y-85066202D01*
X80187664Y-85066206D01*
X80072455Y-85152452D01*
X80072452Y-85152455D01*
X79986206Y-85267664D01*
X79986202Y-85267671D01*
X79935908Y-85402517D01*
X79929501Y-85462116D01*
X79929501Y-85462123D01*
X79929500Y-85462135D01*
X79929500Y-87257870D01*
X79929501Y-87257876D01*
X79935908Y-87317483D01*
X79986202Y-87452328D01*
X79986206Y-87452335D01*
X80072452Y-87567544D01*
X80072455Y-87567547D01*
X80187664Y-87653793D01*
X80187671Y-87653797D01*
X80319081Y-87702810D01*
X80375015Y-87744681D01*
X80399432Y-87810145D01*
X80384580Y-87878418D01*
X80363430Y-87906673D01*
X80241503Y-88028600D01*
X80105965Y-88222169D01*
X80105964Y-88222171D01*
X80006098Y-88436335D01*
X80006094Y-88436344D01*
X79944938Y-88664586D01*
X79944936Y-88664596D01*
X79924341Y-88899999D01*
X78210500Y-88899999D01*
X78210500Y-75814758D01*
X78230185Y-75747719D01*
X78282989Y-75701964D01*
X78352147Y-75692020D01*
X78415703Y-75721045D01*
X78438309Y-75746937D01*
X78521833Y-75874782D01*
X78521836Y-75874785D01*
X78690256Y-76057738D01*
X78886491Y-76210474D01*
X79105190Y-76328828D01*
X79340386Y-76409571D01*
X79585665Y-76450500D01*
X79834335Y-76450500D01*
X80079614Y-76409571D01*
X80314810Y-76328828D01*
X80533509Y-76210474D01*
X80729744Y-76057738D01*
X80898164Y-75874785D01*
X81034173Y-75666607D01*
X81134063Y-75438881D01*
X81195108Y-75197821D01*
X81195109Y-75197812D01*
X81215643Y-74950005D01*
X81215643Y-74949994D01*
X81195109Y-74702187D01*
X81195107Y-74702175D01*
X81134063Y-74461118D01*
X81034173Y-74233393D01*
X80898166Y-74025217D01*
X80876557Y-74001744D01*
X80729744Y-73842262D01*
X80533509Y-73689526D01*
X80533507Y-73689525D01*
X80533506Y-73689524D01*
X80527395Y-73686217D01*
X80522474Y-73683554D01*
X80472885Y-73634335D01*
X80457777Y-73566119D01*
X80481947Y-73500563D01*
X80537723Y-73458482D01*
X80581493Y-73450500D01*
X104838507Y-73450500D01*
X104905546Y-73470185D01*
G37*
%TD.AperFunction*%
%TD*%
M02*
