%TF.GenerationSoftware,KiCad,Pcbnew,8.0.5*%
%TF.CreationDate,2024-11-23T17:52:30+00:00*%
%TF.ProjectId,DataGadget,44617461-4761-4646-9765-742e6b696361,rev?*%
%TF.SameCoordinates,Original*%
%TF.FileFunction,Legend,Bot*%
%TF.FilePolarity,Positive*%
%FSLAX46Y46*%
G04 Gerber Fmt 4.6, Leading zero omitted, Abs format (unit mm)*
G04 Created by KiCad (PCBNEW 8.0.5) date 2024-11-23 17:52:30*
%MOMM*%
%LPD*%
G01*
G04 APERTURE LIST*
%ADD10C,0.100000*%
%ADD11C,0.000000*%
%ADD12R,1.700000X1.700000*%
%ADD13O,1.700000X1.700000*%
%ADD14C,1.524000*%
%ADD15O,1.600000X1.200000*%
%ADD16O,1.200000X1.200000*%
G04 APERTURE END LIST*
D10*
X80372419Y-77100877D02*
X79372419Y-77100877D01*
X79372419Y-77100877D02*
X79372419Y-77338972D01*
X79372419Y-77338972D02*
X79420038Y-77481829D01*
X79420038Y-77481829D02*
X79515276Y-77577067D01*
X79515276Y-77577067D02*
X79610514Y-77624686D01*
X79610514Y-77624686D02*
X79800990Y-77672305D01*
X79800990Y-77672305D02*
X79943847Y-77672305D01*
X79943847Y-77672305D02*
X80134323Y-77624686D01*
X80134323Y-77624686D02*
X80229561Y-77577067D01*
X80229561Y-77577067D02*
X80324800Y-77481829D01*
X80324800Y-77481829D02*
X80372419Y-77338972D01*
X80372419Y-77338972D02*
X80372419Y-77100877D01*
X79420038Y-78624686D02*
X79372419Y-78529448D01*
X79372419Y-78529448D02*
X79372419Y-78386591D01*
X79372419Y-78386591D02*
X79420038Y-78243734D01*
X79420038Y-78243734D02*
X79515276Y-78148496D01*
X79515276Y-78148496D02*
X79610514Y-78100877D01*
X79610514Y-78100877D02*
X79800990Y-78053258D01*
X79800990Y-78053258D02*
X79943847Y-78053258D01*
X79943847Y-78053258D02*
X80134323Y-78100877D01*
X80134323Y-78100877D02*
X80229561Y-78148496D01*
X80229561Y-78148496D02*
X80324800Y-78243734D01*
X80324800Y-78243734D02*
X80372419Y-78386591D01*
X80372419Y-78386591D02*
X80372419Y-78481829D01*
X80372419Y-78481829D02*
X80324800Y-78624686D01*
X80324800Y-78624686D02*
X80277180Y-78672305D01*
X80277180Y-78672305D02*
X79943847Y-78672305D01*
X79943847Y-78672305D02*
X79943847Y-78481829D01*
X80372419Y-79100877D02*
X79372419Y-79100877D01*
X79372419Y-79100877D02*
X79372419Y-79481829D01*
X79372419Y-79481829D02*
X79420038Y-79577067D01*
X79420038Y-79577067D02*
X79467657Y-79624686D01*
X79467657Y-79624686D02*
X79562895Y-79672305D01*
X79562895Y-79672305D02*
X79705752Y-79672305D01*
X79705752Y-79672305D02*
X79800990Y-79624686D01*
X79800990Y-79624686D02*
X79848609Y-79577067D01*
X79848609Y-79577067D02*
X79896228Y-79481829D01*
X79896228Y-79481829D02*
X79896228Y-79100877D01*
X79372419Y-80719925D02*
X80372419Y-81053258D01*
X80372419Y-81053258D02*
X79372419Y-81386591D01*
X79467657Y-81672306D02*
X79420038Y-81719925D01*
X79420038Y-81719925D02*
X79372419Y-81815163D01*
X79372419Y-81815163D02*
X79372419Y-82053258D01*
X79372419Y-82053258D02*
X79420038Y-82148496D01*
X79420038Y-82148496D02*
X79467657Y-82196115D01*
X79467657Y-82196115D02*
X79562895Y-82243734D01*
X79562895Y-82243734D02*
X79658133Y-82243734D01*
X79658133Y-82243734D02*
X79800990Y-82196115D01*
X79800990Y-82196115D02*
X80372419Y-81624687D01*
X80372419Y-81624687D02*
X80372419Y-82243734D01*
D11*
%TO.C,G\u002A\u002A\u002A*%
G36*
X104756722Y-76566278D02*
G01*
X104809758Y-76706496D01*
X104732495Y-76819317D01*
X104638000Y-76842667D01*
X104500683Y-76793530D01*
X104468666Y-76724725D01*
X104529968Y-76603906D01*
X104657735Y-76540093D01*
X104756722Y-76566278D01*
G37*
G36*
X78526296Y-142989068D02*
G01*
X78537611Y-142990210D01*
X78617727Y-143005910D01*
X78545189Y-143017819D01*
X78336668Y-143023864D01*
X78264333Y-143024217D01*
X78017175Y-143020487D01*
X77894906Y-143009986D01*
X77917469Y-142994795D01*
X77944944Y-142990893D01*
X78224927Y-142976679D01*
X78526296Y-142989068D01*
G37*
G36*
X107753725Y-127409833D02*
G01*
X107779117Y-127896667D01*
X107478558Y-127896667D01*
X107172413Y-127835584D01*
X107008666Y-127727333D01*
X106862956Y-127522008D01*
X106871757Y-127322916D01*
X106989378Y-127137461D01*
X107221800Y-126978568D01*
X107433878Y-126937582D01*
X107728333Y-126923000D01*
X107753725Y-127409833D01*
G37*
G36*
X77946833Y-136702472D02*
G01*
X78364033Y-136747113D01*
X78699932Y-136868386D01*
X78930122Y-137050048D01*
X79030195Y-137275860D01*
X79020046Y-137416572D01*
X78900145Y-137650540D01*
X78664108Y-137812669D01*
X78291071Y-137915526D01*
X78158500Y-137935512D01*
X77714000Y-137993815D01*
X77714000Y-137347907D01*
X77714000Y-136702000D01*
X77946833Y-136702472D01*
G37*
G36*
X89884613Y-132538799D02*
G01*
X90026272Y-132714819D01*
X90080047Y-132945159D01*
X90033147Y-133178251D01*
X89887161Y-133352866D01*
X89622248Y-133472222D01*
X89379129Y-133429293D01*
X89187970Y-133282334D01*
X89053292Y-133055762D01*
X89063476Y-132826945D01*
X89198109Y-132630492D01*
X89436780Y-132501013D01*
X89667859Y-132468667D01*
X89884613Y-132538799D01*
G37*
G36*
X79999630Y-124900946D02*
G01*
X80141653Y-125098278D01*
X80169333Y-125267807D01*
X80095306Y-125531059D01*
X79905681Y-125729121D01*
X79649144Y-125837845D01*
X79374380Y-125833089D01*
X79197737Y-125749651D01*
X79072375Y-125565855D01*
X79041052Y-125317276D01*
X79103292Y-125079632D01*
X79202722Y-124960005D01*
X79492230Y-124819730D01*
X79770511Y-124804070D01*
X79999630Y-124900946D01*
G37*
G36*
X90495813Y-136509188D02*
G01*
X90683939Y-136666991D01*
X90751766Y-136882763D01*
X90684254Y-137117859D01*
X90529581Y-137288521D01*
X90238798Y-137439585D01*
X89961143Y-137439770D01*
X89803731Y-137358167D01*
X89645861Y-137147899D01*
X89623780Y-136909719D01*
X89719071Y-136685671D01*
X89913316Y-136517800D01*
X90188096Y-136448151D01*
X90202430Y-136448000D01*
X90495813Y-136509188D01*
G37*
G36*
X90495813Y-136509188D02*
G01*
X90683939Y-136666991D01*
X90751766Y-136882763D01*
X90684254Y-137117859D01*
X90529581Y-137288521D01*
X90238798Y-137439585D01*
X89961143Y-137439770D01*
X89803731Y-137358167D01*
X89645861Y-137147899D01*
X89623780Y-136909719D01*
X89719071Y-136685671D01*
X89913316Y-136517800D01*
X90188096Y-136448151D01*
X90202430Y-136448000D01*
X90495813Y-136509188D01*
G37*
G36*
X94874634Y-127939664D02*
G01*
X95031981Y-128126597D01*
X95069370Y-128351533D01*
X95038671Y-128620187D01*
X94924731Y-128792374D01*
X94758732Y-128899992D01*
X94539302Y-128986348D01*
X94373629Y-128952943D01*
X94224000Y-128828000D01*
X94080134Y-128585416D01*
X94070326Y-128322709D01*
X94176140Y-128086334D01*
X94379145Y-127922749D01*
X94601933Y-127875500D01*
X94874634Y-127939664D01*
G37*
G36*
X95001338Y-132423741D02*
G01*
X95177442Y-132598102D01*
X95241893Y-132834562D01*
X95177484Y-133088827D01*
X95070666Y-133230667D01*
X94864225Y-133354296D01*
X94617086Y-133396754D01*
X94400950Y-133351976D01*
X94325840Y-133293693D01*
X94188515Y-133023240D01*
X94191050Y-132753614D01*
X94315433Y-132526532D01*
X94543651Y-132383713D01*
X94730790Y-132355778D01*
X95001338Y-132423741D01*
G37*
G36*
X97851723Y-129562583D02*
G01*
X97985247Y-129806248D01*
X97985790Y-129808398D01*
X97983213Y-130090432D01*
X97847452Y-130313794D01*
X97612671Y-130445662D01*
X97314333Y-130453476D01*
X97042360Y-130334086D01*
X96890503Y-130136134D01*
X96870352Y-129900578D01*
X96993497Y-129668379D01*
X97071751Y-129596145D01*
X97357289Y-129448780D01*
X97629841Y-129440509D01*
X97851723Y-129562583D01*
G37*
G36*
X101170176Y-79807454D02*
G01*
X101402484Y-79967612D01*
X101476029Y-80180719D01*
X101386425Y-80431220D01*
X101357690Y-80472341D01*
X101155757Y-80646081D01*
X100909800Y-80728346D01*
X100674655Y-80713054D01*
X100505162Y-80594126D01*
X100489651Y-80568594D01*
X100410785Y-80279873D01*
X100470068Y-80026203D01*
X100637550Y-79841079D01*
X100883283Y-79757997D01*
X101170176Y-79807454D01*
G37*
G36*
X103122159Y-87913569D02*
G01*
X103327486Y-88078417D01*
X103439041Y-88302090D01*
X103434386Y-88542799D01*
X103319619Y-88732286D01*
X103104965Y-88842060D01*
X102826613Y-88857879D01*
X102559632Y-88782828D01*
X102436666Y-88696000D01*
X102289143Y-88455521D01*
X102287428Y-88213017D01*
X102412921Y-88007009D01*
X102647024Y-87876014D01*
X102845500Y-87849333D01*
X103122159Y-87913569D01*
G37*
G36*
X103194356Y-84143447D02*
G01*
X103335587Y-84250249D01*
X103448847Y-84516843D01*
X103420632Y-84767996D01*
X103278092Y-84972785D01*
X103048376Y-85100285D01*
X102758635Y-85119575D01*
X102606000Y-85081243D01*
X102386464Y-84926315D01*
X102283520Y-84694454D01*
X102308141Y-84441087D01*
X102440877Y-84247189D01*
X102669069Y-84125483D01*
X102942870Y-84090980D01*
X103194356Y-84143447D01*
G37*
G36*
X79674622Y-108912250D02*
G01*
X79803958Y-109078777D01*
X79831164Y-109300910D01*
X79747825Y-109533314D01*
X79607581Y-109687188D01*
X79426005Y-109819127D01*
X79302772Y-109849495D01*
X79165515Y-109784371D01*
X79087505Y-109730866D01*
X78930288Y-109537938D01*
X78904191Y-109309056D01*
X78991084Y-109088251D01*
X79172836Y-108919557D01*
X79431318Y-108847007D01*
X79451572Y-108846667D01*
X79674622Y-108912250D01*
G37*
G36*
X82060027Y-121785782D02*
G01*
X82311000Y-121865587D01*
X82472813Y-121995384D01*
X82552133Y-122250253D01*
X82496799Y-122496498D01*
X82339595Y-122700251D01*
X82113309Y-122827646D01*
X81850727Y-122844816D01*
X81700019Y-122793647D01*
X81493129Y-122612775D01*
X81402698Y-122373176D01*
X81423836Y-122123430D01*
X81551653Y-121912118D01*
X81781258Y-121787824D01*
X81801702Y-121783506D01*
X82060027Y-121785782D01*
G37*
G36*
X83521422Y-118525996D02*
G01*
X83593532Y-118602172D01*
X83709749Y-118829025D01*
X83683464Y-119015809D01*
X83556000Y-119176000D01*
X83353225Y-119291462D01*
X83083778Y-119344072D01*
X82820719Y-119328420D01*
X82641600Y-119243733D01*
X82546340Y-119043101D01*
X82561351Y-118799449D01*
X82677122Y-118589449D01*
X82728172Y-118545801D01*
X83000494Y-118430165D01*
X83285251Y-118424889D01*
X83521422Y-118525996D01*
G37*
G36*
X84473837Y-95527057D02*
G01*
X84686207Y-95670198D01*
X84812528Y-95853716D01*
X84826000Y-95930279D01*
X84757988Y-96109430D01*
X84589656Y-96306146D01*
X84374562Y-96467308D01*
X84219503Y-96531816D01*
X83990604Y-96527875D01*
X83817337Y-96408004D01*
X83670763Y-96163380D01*
X83664267Y-95904281D01*
X83778714Y-95673888D01*
X83994966Y-95515381D01*
X84233333Y-95469333D01*
X84473837Y-95527057D01*
G37*
G36*
X93256060Y-95641624D02*
G01*
X93408972Y-95714458D01*
X93529273Y-95910897D01*
X93535043Y-96153712D01*
X93431645Y-96369698D01*
X93356166Y-96435314D01*
X93009943Y-96594443D01*
X92708581Y-96599314D01*
X92551833Y-96525801D01*
X92409545Y-96337222D01*
X92359479Y-96084437D01*
X92406387Y-95840486D01*
X92499027Y-95714458D01*
X92704703Y-95628517D01*
X92984807Y-95604239D01*
X93256060Y-95641624D01*
G37*
G36*
X94411632Y-78506934D02*
G01*
X94603291Y-78672999D01*
X94665987Y-78948426D01*
X94665656Y-78967221D01*
X94587744Y-79258476D01*
X94398761Y-79455862D01*
X94137414Y-79544505D01*
X93842408Y-79509533D01*
X93600418Y-79376521D01*
X93436493Y-79186867D01*
X93377333Y-79001667D01*
X93453397Y-78786338D01*
X93647954Y-78598369D01*
X93910557Y-78476595D01*
X94092235Y-78451333D01*
X94411632Y-78506934D01*
G37*
G36*
X98386280Y-98533018D02*
G01*
X98548860Y-98759702D01*
X98590175Y-98901497D01*
X98570158Y-99173454D01*
X98425576Y-99397649D01*
X98199323Y-99551439D01*
X97934294Y-99612183D01*
X97673383Y-99557237D01*
X97535531Y-99458198D01*
X97382176Y-99222942D01*
X97392870Y-98979637D01*
X97568624Y-98716849D01*
X97604153Y-98680154D01*
X97881887Y-98486052D01*
X98153276Y-98439404D01*
X98386280Y-98533018D01*
G37*
G36*
X104545666Y-90718857D02*
G01*
X104734471Y-90918495D01*
X104807317Y-91201853D01*
X104807333Y-91206360D01*
X104736980Y-91413802D01*
X104557561Y-91583175D01*
X104316537Y-91698315D01*
X104061366Y-91743058D01*
X103839508Y-91701238D01*
X103709645Y-91580233D01*
X103629924Y-91278381D01*
X103693721Y-90996483D01*
X103876463Y-90774983D01*
X104153580Y-90654327D01*
X104278822Y-90643333D01*
X104545666Y-90718857D01*
G37*
G36*
X106547351Y-93324293D02*
G01*
X106703306Y-93499920D01*
X106754646Y-93804999D01*
X106754666Y-93812767D01*
X106681748Y-94071873D01*
X106491828Y-94259321D01*
X106228159Y-94358154D01*
X105933993Y-94351418D01*
X105672838Y-94236866D01*
X105510049Y-94044596D01*
X105485546Y-93822915D01*
X105579631Y-93603363D01*
X105772606Y-93417479D01*
X106044774Y-93296803D01*
X106277924Y-93268000D01*
X106547351Y-93324293D01*
G37*
G36*
X106590310Y-77889280D02*
G01*
X106803716Y-78037688D01*
X106917407Y-78233521D01*
X106924000Y-78291824D01*
X106849828Y-78508462D01*
X106661356Y-78671882D01*
X106409648Y-78765310D01*
X106145769Y-78771970D01*
X105920783Y-78675090D01*
X105878788Y-78635166D01*
X105758401Y-78401703D01*
X105780627Y-78167034D01*
X105923571Y-77970094D01*
X106165339Y-77849815D01*
X106331333Y-77830444D01*
X106590310Y-77889280D01*
G37*
G36*
X106994596Y-130883766D02*
G01*
X107139001Y-131099498D01*
X107178000Y-131348699D01*
X107106374Y-131603736D01*
X106922496Y-131783469D01*
X106672865Y-131871515D01*
X106403981Y-131851489D01*
X106162343Y-131707010D01*
X106162000Y-131706667D01*
X106020496Y-131508348D01*
X106023039Y-131315023D01*
X106173540Y-131092465D01*
X106240153Y-131022820D01*
X106512194Y-130833969D01*
X106774667Y-130791437D01*
X106994596Y-130883766D01*
G37*
G36*
X83276752Y-115140705D02*
G01*
X83588196Y-115230185D01*
X83758625Y-115385557D01*
X83810000Y-115624222D01*
X83736195Y-115857734D01*
X83552741Y-116066486D01*
X83316580Y-116195361D01*
X83202066Y-116212667D01*
X83033899Y-116155579D01*
X82844855Y-116016946D01*
X82832484Y-116004848D01*
X82657764Y-115749729D01*
X82652094Y-115501957D01*
X82803531Y-115271802D01*
X82985225Y-115146960D01*
X83212023Y-115131653D01*
X83276752Y-115140705D01*
G37*
G36*
X92730042Y-134403606D02*
G01*
X92767733Y-134432933D01*
X92857964Y-134628512D01*
X92849755Y-134881942D01*
X92749906Y-135118416D01*
X92700000Y-135178000D01*
X92445619Y-135323336D01*
X92153211Y-135319754D01*
X92001500Y-135255885D01*
X91887713Y-135103987D01*
X91846243Y-134871220D01*
X91875756Y-134629194D01*
X91974916Y-134449516D01*
X92017100Y-134418979D01*
X92257471Y-134345580D01*
X92521405Y-134340944D01*
X92730042Y-134403606D01*
G37*
G36*
X93086076Y-140973079D02*
G01*
X93313657Y-141118194D01*
X93445668Y-141335693D01*
X93462000Y-141456561D01*
X93387056Y-141698034D01*
X93192556Y-141884206D01*
X92923991Y-141997620D01*
X92626856Y-142020817D01*
X92346643Y-141936341D01*
X92295505Y-141904199D01*
X92144397Y-141706470D01*
X92113445Y-141449379D01*
X92204096Y-141194317D01*
X92276666Y-141104667D01*
X92522906Y-140953053D01*
X92807601Y-140913611D01*
X93086076Y-140973079D01*
G37*
G36*
X97293890Y-107993734D02*
G01*
X97547151Y-108115085D01*
X97698488Y-108304632D01*
X97730965Y-108583095D01*
X97630749Y-108822160D01*
X97433473Y-109000854D01*
X97174771Y-109098199D01*
X96890278Y-109093222D01*
X96615629Y-108964946D01*
X96598966Y-108951840D01*
X96459221Y-108747725D01*
X96405884Y-108479241D01*
X96448512Y-108225492D01*
X96500671Y-108138240D01*
X96713592Y-107997385D01*
X96997018Y-107951859D01*
X97293890Y-107993734D01*
G37*
G36*
X83616486Y-101191582D02*
G01*
X83897862Y-101332063D01*
X84104524Y-101574886D01*
X84205602Y-101886806D01*
X84191408Y-102156138D01*
X84047281Y-102454253D01*
X83791776Y-102674972D01*
X83473245Y-102795702D01*
X83140039Y-102793852D01*
X82963333Y-102729951D01*
X82707226Y-102515935D01*
X82579260Y-102237575D01*
X82571648Y-101931512D01*
X82676604Y-101634385D01*
X82886344Y-101382836D01*
X83193080Y-101213505D01*
X83291267Y-101186690D01*
X83616486Y-101191582D01*
G37*
G36*
X95327191Y-102053624D02*
G01*
X95552692Y-102225847D01*
X95658981Y-102471360D01*
X95633155Y-102756187D01*
X95462311Y-103046353D01*
X95415846Y-103095846D01*
X95138046Y-103285398D01*
X94839492Y-103347621D01*
X94566635Y-103278680D01*
X94438003Y-103176582D01*
X94328173Y-102963403D01*
X94278258Y-102670756D01*
X94277926Y-102660121D01*
X94333061Y-102329091D01*
X94516344Y-102107852D01*
X94824315Y-101999641D01*
X94995379Y-101988667D01*
X95327191Y-102053624D01*
G37*
G36*
X100014937Y-104139522D02*
G01*
X100279739Y-104300302D01*
X100450474Y-104575863D01*
X100500413Y-104949480D01*
X100499083Y-104973167D01*
X100409224Y-105199746D01*
X100202182Y-105362408D01*
X99921403Y-105450834D01*
X99610331Y-105454702D01*
X99312412Y-105363693D01*
X99188418Y-105284521D01*
X99001955Y-105045105D01*
X98953157Y-104763507D01*
X99036471Y-104487897D01*
X99246344Y-104266443D01*
X99310055Y-104229202D01*
X99682799Y-104110247D01*
X100014937Y-104139522D01*
G37*
G36*
X104544738Y-80895758D02*
G01*
X104790854Y-81039168D01*
X104864265Y-81128732D01*
X104947717Y-81288427D01*
X104928564Y-81421156D01*
X104854976Y-81545446D01*
X104679025Y-81732680D01*
X104501060Y-81841779D01*
X104322764Y-81901102D01*
X104186750Y-81902443D01*
X104032534Y-81865915D01*
X103885727Y-81752635D01*
X103775333Y-81545364D01*
X103730487Y-81319292D01*
X103763557Y-81171822D01*
X103977573Y-80964180D01*
X104255806Y-80871460D01*
X104544738Y-80895758D01*
G37*
G36*
X82274537Y-111917914D02*
G01*
X82430541Y-111998871D01*
X82431823Y-112000500D01*
X82559044Y-112249630D01*
X82525383Y-112482617D01*
X82444457Y-112608929D01*
X82257255Y-112771759D01*
X82004312Y-112825265D01*
X81958121Y-112826000D01*
X81722897Y-112800235D01*
X81555912Y-112736962D01*
X81540933Y-112724400D01*
X81450671Y-112529728D01*
X81459778Y-112283924D01*
X81561983Y-112068198D01*
X81594166Y-112034789D01*
X81784367Y-111938819D01*
X82035152Y-111898879D01*
X82274537Y-111917914D01*
G37*
G36*
X84794062Y-129732329D02*
G01*
X85046886Y-129922709D01*
X85203134Y-130197695D01*
X85290220Y-130560455D01*
X85225642Y-130864059D01*
X85002845Y-131136625D01*
X84979596Y-131156583D01*
X84667782Y-131321521D01*
X84297529Y-131376187D01*
X83934163Y-131318754D01*
X83694418Y-131192521D01*
X83520919Y-130961320D01*
X83476954Y-130673768D01*
X83551594Y-130368088D01*
X83733912Y-130082505D01*
X84012978Y-129855239D01*
X84087966Y-129816057D01*
X84473383Y-129696423D01*
X84794062Y-129732329D01*
G37*
G36*
X91792155Y-130222562D02*
G01*
X91984241Y-130366673D01*
X92016521Y-130405751D01*
X92154194Y-130606350D01*
X92170766Y-130752042D01*
X92062525Y-130909955D01*
X91984181Y-130990848D01*
X91729739Y-131154183D01*
X91452953Y-131191681D01*
X91208317Y-131099893D01*
X91146788Y-131043833D01*
X91040635Y-130834954D01*
X91010724Y-130577527D01*
X91061114Y-130351590D01*
X91108266Y-130284267D01*
X91255731Y-130216834D01*
X91485657Y-130183445D01*
X91525454Y-130182667D01*
X91792155Y-130222562D01*
G37*
G36*
X106934301Y-122273223D02*
G01*
X107044578Y-122339007D01*
X107253960Y-122566960D01*
X107334657Y-122867278D01*
X107287510Y-123203257D01*
X107113362Y-123538191D01*
X107014332Y-123657268D01*
X106760586Y-123847673D01*
X106492190Y-123919478D01*
X106254851Y-123866025D01*
X106155433Y-123782421D01*
X106058895Y-123544351D01*
X106071539Y-123236891D01*
X106178186Y-122905577D01*
X106363659Y-122595947D01*
X106612779Y-122353536D01*
X106637244Y-122336939D01*
X106800346Y-122251865D01*
X106934301Y-122273223D01*
G37*
G36*
X82799934Y-141856222D02*
G01*
X82995722Y-142059443D01*
X83097445Y-142362492D01*
X83088305Y-142736200D01*
X83085441Y-142751965D01*
X83029154Y-143052000D01*
X82297744Y-143050752D01*
X81953134Y-143047662D01*
X81756230Y-143036796D01*
X81685438Y-143013577D01*
X81719159Y-142973430D01*
X81778000Y-142940635D01*
X81914128Y-142844561D01*
X81966803Y-142705650D01*
X81963361Y-142481355D01*
X82000886Y-142145062D01*
X82158527Y-141907475D01*
X82418678Y-141790445D01*
X82526877Y-141782000D01*
X82799934Y-141856222D01*
G37*
G36*
X87711882Y-142366579D02*
G01*
X87833196Y-142569760D01*
X87874000Y-142834767D01*
X87874000Y-143052000D01*
X86498166Y-143044946D01*
X85991790Y-143041802D01*
X85639042Y-143037003D01*
X85424216Y-143028446D01*
X85331609Y-143014029D01*
X85345514Y-142991649D01*
X85450226Y-142959203D01*
X85592483Y-142923698D01*
X85908342Y-142833874D01*
X86299645Y-142704325D01*
X86686083Y-142561767D01*
X86716520Y-142549752D01*
X87040837Y-142428508D01*
X87320700Y-142337484D01*
X87506891Y-142292309D01*
X87534558Y-142290000D01*
X87711882Y-142366579D01*
G37*
G36*
X90688822Y-91856055D02*
G01*
X90920966Y-92100659D01*
X90924309Y-92106105D01*
X91074716Y-92490669D01*
X91067629Y-92870455D01*
X90904884Y-93215109D01*
X90853471Y-93277542D01*
X90660916Y-93453690D01*
X90444692Y-93542216D01*
X90197304Y-93574447D01*
X89910500Y-93576966D01*
X89667421Y-93547949D01*
X89593435Y-93525790D01*
X89331925Y-93338434D01*
X89194040Y-93076779D01*
X89172030Y-92773367D01*
X89258148Y-92460737D01*
X89444644Y-92171432D01*
X89723770Y-91937992D01*
X90000647Y-91815673D01*
X90384202Y-91761737D01*
X90688822Y-91856055D01*
G37*
G36*
X90688822Y-91856055D02*
G01*
X90920966Y-92100659D01*
X90924309Y-92106105D01*
X91074716Y-92490669D01*
X91067629Y-92870455D01*
X90904884Y-93215109D01*
X90853471Y-93277542D01*
X90660916Y-93453690D01*
X90444692Y-93542216D01*
X90197304Y-93574447D01*
X89910500Y-93576966D01*
X89667421Y-93547949D01*
X89593435Y-93525790D01*
X89331925Y-93338434D01*
X89194040Y-93076779D01*
X89172030Y-92773367D01*
X89258148Y-92460737D01*
X89444644Y-92171432D01*
X89723770Y-91937992D01*
X90000647Y-91815673D01*
X90384202Y-91761737D01*
X90688822Y-91856055D01*
G37*
G36*
X91559367Y-74113171D02*
G01*
X91770903Y-74279824D01*
X91993354Y-74508333D01*
X92186393Y-74758407D01*
X92288098Y-74936940D01*
X92415883Y-75334367D01*
X92435445Y-75698433D01*
X92347185Y-75988898D01*
X92276666Y-76080667D01*
X92058896Y-76206694D01*
X91741266Y-76236965D01*
X91304133Y-76172932D01*
X91236748Y-76157580D01*
X90869354Y-76043509D01*
X90593019Y-75902888D01*
X90438210Y-75753576D01*
X90415859Y-75676326D01*
X90460767Y-75467762D01*
X90576068Y-75187711D01*
X90738743Y-74874275D01*
X90925774Y-74565561D01*
X91114145Y-74299673D01*
X91280837Y-74114715D01*
X91399073Y-74048667D01*
X91559367Y-74113171D01*
G37*
G36*
X99373866Y-73561833D02*
G01*
X99483767Y-73930020D01*
X99544468Y-74252240D01*
X99553061Y-74495614D01*
X99506640Y-74627262D01*
X99469290Y-74641333D01*
X99333683Y-74570595D01*
X99139334Y-74374450D01*
X98907001Y-74076999D01*
X98657445Y-73702343D01*
X98649650Y-73689744D01*
X98494668Y-73445085D01*
X98376208Y-73270041D01*
X98319598Y-73202014D01*
X98319363Y-73202000D01*
X98270704Y-73272027D01*
X98167055Y-73458242D01*
X98028083Y-73724849D01*
X97982104Y-73815833D01*
X97723417Y-74305396D01*
X97512138Y-74650217D01*
X97351079Y-74847158D01*
X97243049Y-74893080D01*
X97190859Y-74784843D01*
X97186262Y-74704833D01*
X97209877Y-74540562D01*
X97273890Y-74264025D01*
X97366506Y-73924046D01*
X97411274Y-73773500D01*
X97637357Y-73032667D01*
X98412687Y-73032667D01*
X99188018Y-73032667D01*
X99373866Y-73561833D01*
G37*
G36*
X79442864Y-102234514D02*
G01*
X79622390Y-102365360D01*
X79759162Y-102533206D01*
X79778977Y-102683537D01*
X79745541Y-102794205D01*
X79683751Y-102972492D01*
X79661333Y-103064595D01*
X79718724Y-103137693D01*
X79876913Y-103306821D01*
X80114921Y-103550344D01*
X80411771Y-103846630D01*
X80580718Y-104012702D01*
X81012546Y-104454652D01*
X81371071Y-104861091D01*
X81641828Y-105213336D01*
X81810351Y-105492705D01*
X81862666Y-105668294D01*
X81801947Y-105718403D01*
X81641231Y-105674019D01*
X81412678Y-105546515D01*
X81303869Y-105470674D01*
X81122989Y-105319770D01*
X80858181Y-105076368D01*
X80541737Y-104771128D01*
X80205949Y-104434707D01*
X80122296Y-104348841D01*
X79610636Y-103812861D01*
X79216095Y-103378757D01*
X78930891Y-103034066D01*
X78747242Y-102766322D01*
X78657365Y-102563064D01*
X78653478Y-102411826D01*
X78727800Y-102300145D01*
X78809100Y-102245645D01*
X79129644Y-102161559D01*
X79442864Y-102234514D01*
G37*
G36*
X107767142Y-80681541D02*
G01*
X107731522Y-80950268D01*
X107597468Y-81201368D01*
X107495500Y-81329804D01*
X107025584Y-81983525D01*
X106611739Y-82762371D01*
X106271006Y-83626692D01*
X106020429Y-84536840D01*
X105943215Y-84941075D01*
X105861192Y-85664488D01*
X105839345Y-86427235D01*
X105875555Y-87176389D01*
X105967705Y-87859027D01*
X106078206Y-88315000D01*
X106299664Y-88905760D01*
X106606344Y-89551159D01*
X106963952Y-90185881D01*
X107338193Y-90744611D01*
X107389605Y-90812587D01*
X107602803Y-91107909D01*
X107718752Y-91324787D01*
X107757711Y-91506701D01*
X107754827Y-91596326D01*
X107728333Y-91871000D01*
X107262090Y-91307989D01*
X106570624Y-90348779D01*
X106035815Y-89327865D01*
X105653525Y-88236620D01*
X105523035Y-87685562D01*
X105427980Y-86970439D01*
X105404158Y-86166980D01*
X105448673Y-85339094D01*
X105558631Y-84550691D01*
X105690100Y-83997000D01*
X106091646Y-82884453D01*
X106608712Y-81868303D01*
X107230559Y-80968561D01*
X107461919Y-80695000D01*
X107763617Y-80356333D01*
X107767142Y-80681541D01*
G37*
G36*
X106929623Y-99957798D02*
G01*
X107166248Y-100151608D01*
X107239503Y-100227391D01*
X107428007Y-100428997D01*
X103735511Y-103939332D01*
X103057953Y-104582999D01*
X102404680Y-105202703D01*
X101788161Y-105786676D01*
X101220863Y-106323148D01*
X100715252Y-106800352D01*
X100283798Y-107206519D01*
X99938966Y-107529881D01*
X99693225Y-107758670D01*
X99568199Y-107873000D01*
X99093381Y-108296333D01*
X99382709Y-107915333D01*
X99501512Y-107777714D01*
X99727003Y-107534680D01*
X100045698Y-107200117D01*
X100444115Y-106787912D01*
X100908770Y-106311951D01*
X101426182Y-105786120D01*
X101982868Y-105224308D01*
X102465375Y-104740333D01*
X103261957Y-103943065D01*
X103946802Y-103256133D01*
X104528284Y-102670516D01*
X105014777Y-102177190D01*
X105414657Y-101767131D01*
X105736299Y-101431318D01*
X105988076Y-101160726D01*
X106178363Y-100946333D01*
X106315536Y-100779116D01*
X106407968Y-100650051D01*
X106464035Y-100550116D01*
X106492111Y-100470287D01*
X106500570Y-100401542D01*
X106500666Y-100392608D01*
X106541094Y-100157833D01*
X106613202Y-100004462D01*
X106749766Y-99910347D01*
X106929623Y-99957798D01*
G37*
G36*
X101605185Y-137548562D02*
G01*
X101897449Y-137740109D01*
X101974949Y-137822801D01*
X102109141Y-138007334D01*
X102168174Y-138186552D01*
X102171258Y-138434126D01*
X102163170Y-138544620D01*
X102090319Y-138932812D01*
X101933510Y-139186879D01*
X101670129Y-139330524D01*
X101364231Y-139382123D01*
X101025015Y-139375088D01*
X100731971Y-139311306D01*
X100693819Y-139295674D01*
X100450994Y-139140008D01*
X100249319Y-138944216D01*
X100089906Y-138636766D01*
X100083232Y-138506151D01*
X100574000Y-138506151D01*
X100633437Y-138833716D01*
X100798076Y-139038772D01*
X101047402Y-139112256D01*
X101360905Y-139045104D01*
X101558980Y-138941354D01*
X101757020Y-138732391D01*
X101855501Y-138454641D01*
X101832649Y-138177670D01*
X101812725Y-138130737D01*
X101711320Y-137998360D01*
X101541646Y-137929928D01*
X101317271Y-137904043D01*
X100952830Y-137936187D01*
X100708309Y-138085518D01*
X100587252Y-138349164D01*
X100574000Y-138506151D01*
X100083232Y-138506151D01*
X100074478Y-138334813D01*
X100178027Y-138054606D01*
X100375546Y-137812397D01*
X100642028Y-137624437D01*
X100952467Y-137506977D01*
X101281855Y-137476269D01*
X101605185Y-137548562D01*
G37*
G36*
X77825196Y-111379645D02*
G01*
X77919252Y-111432583D01*
X78130817Y-111612524D01*
X78402468Y-111903612D01*
X78707128Y-112271817D01*
X79017718Y-112683109D01*
X79307161Y-113103457D01*
X79510635Y-113432589D01*
X79990203Y-114421053D01*
X80312678Y-115448236D01*
X80478000Y-116497454D01*
X80486109Y-117552023D01*
X80336943Y-118595260D01*
X80030443Y-119610480D01*
X79566548Y-120581000D01*
X79536702Y-120632348D01*
X79303518Y-120984532D01*
X78991014Y-121394561D01*
X78644167Y-121805288D01*
X78437260Y-122029348D01*
X77720463Y-122774333D01*
X77717231Y-122362817D01*
X77721436Y-122175737D01*
X77751107Y-122024914D01*
X77826722Y-121875126D01*
X77968754Y-121691149D01*
X78197680Y-121437761D01*
X78348582Y-121276735D01*
X78988534Y-120483693D01*
X79470674Y-119631111D01*
X79796786Y-118714458D01*
X79968656Y-117729201D01*
X79998529Y-117087948D01*
X79923669Y-116037176D01*
X79702328Y-115001096D01*
X79345327Y-114008580D01*
X78863484Y-113088504D01*
X78267621Y-112269741D01*
X78138111Y-112123304D01*
X77919365Y-111858405D01*
X77771786Y-111629766D01*
X77702289Y-111459211D01*
X77717786Y-111368563D01*
X77825196Y-111379645D01*
G37*
G36*
X89587245Y-123328870D02*
G01*
X90077858Y-123531864D01*
X90439248Y-123841663D01*
X90665822Y-124251176D01*
X90751987Y-124753313D01*
X90752666Y-124806333D01*
X90687782Y-125305170D01*
X90483946Y-125720924D01*
X90217259Y-126009537D01*
X89773739Y-126292192D01*
X89269460Y-126433579D01*
X88747475Y-126424259D01*
X88544015Y-126376415D01*
X88136489Y-126171290D01*
X87824762Y-125850132D01*
X87620101Y-125443635D01*
X87533774Y-124982493D01*
X87550511Y-124794878D01*
X88214772Y-124794878D01*
X88268858Y-125095068D01*
X88445143Y-125366060D01*
X88750833Y-125572861D01*
X88752696Y-125573674D01*
X89133058Y-125682293D01*
X89475943Y-125647254D01*
X89603233Y-125598192D01*
X89816869Y-125413972D01*
X89933580Y-125123070D01*
X89941114Y-124765452D01*
X89908318Y-124603277D01*
X89760572Y-124275858D01*
X89519239Y-124080678D01*
X89165630Y-124004232D01*
X89076314Y-124002000D01*
X88713657Y-124069051D01*
X88444377Y-124246877D01*
X88275680Y-124500483D01*
X88214772Y-124794878D01*
X87550511Y-124794878D01*
X87577050Y-124497399D01*
X87712798Y-124112201D01*
X87977577Y-123748650D01*
X88354068Y-123477612D01*
X88802637Y-123315651D01*
X89283652Y-123279328D01*
X89587245Y-123328870D01*
G37*
G36*
X87047298Y-89320786D02*
G01*
X87047657Y-89321008D01*
X87220659Y-89510384D01*
X87237663Y-89753386D01*
X87152520Y-89948979D01*
X87030648Y-90103081D01*
X86795356Y-90361336D01*
X86457627Y-90713020D01*
X86028449Y-91147409D01*
X85518805Y-91653778D01*
X84939683Y-92221405D01*
X84302066Y-92839563D01*
X83616941Y-93497530D01*
X82895294Y-94184581D01*
X82148108Y-94889992D01*
X81386371Y-95603038D01*
X80855476Y-96096252D01*
X80278328Y-96629615D01*
X79742198Y-97122976D01*
X79259190Y-97565347D01*
X78841414Y-97945739D01*
X78500974Y-98253162D01*
X78249978Y-98476627D01*
X78100532Y-98605146D01*
X78062416Y-98631460D01*
X78124423Y-98558273D01*
X78293765Y-98371764D01*
X78561393Y-98081611D01*
X78918262Y-97697492D01*
X79355323Y-97229087D01*
X79863530Y-96686074D01*
X80433837Y-96078132D01*
X81057195Y-95414940D01*
X81724559Y-94706175D01*
X82426881Y-93961517D01*
X82495878Y-93888426D01*
X83325136Y-93010672D01*
X84046397Y-92248886D01*
X84667336Y-91595369D01*
X85195626Y-91042418D01*
X85638942Y-90582333D01*
X86004958Y-90207415D01*
X86301348Y-89909962D01*
X86535786Y-89682274D01*
X86715947Y-89516650D01*
X86849504Y-89405390D01*
X86944132Y-89340793D01*
X87007506Y-89315159D01*
X87047298Y-89320786D01*
G37*
G36*
X84186017Y-134058065D02*
G01*
X84667858Y-134194569D01*
X85087508Y-134443259D01*
X85423063Y-134794090D01*
X85652620Y-135237020D01*
X85754277Y-135762007D01*
X85757333Y-135875993D01*
X85693316Y-136435556D01*
X85495322Y-136898026D01*
X85154435Y-137277711D01*
X84702599Y-137568427D01*
X84389092Y-137679083D01*
X83994075Y-137751848D01*
X83587724Y-137779565D01*
X83240214Y-137755075D01*
X83132118Y-137728636D01*
X82617407Y-137495819D01*
X82236049Y-137182921D01*
X82171691Y-137104256D01*
X81917075Y-136641522D01*
X81801016Y-136138784D01*
X81818299Y-135629779D01*
X81831124Y-135587308D01*
X82398046Y-135587308D01*
X82447446Y-136010400D01*
X82522846Y-136217275D01*
X82781638Y-136616818D01*
X83137235Y-136906052D01*
X83555436Y-137070430D01*
X84002039Y-137095401D01*
X84366099Y-137001380D01*
X84648598Y-136794896D01*
X84831670Y-136460131D01*
X84908602Y-136010501D01*
X84910666Y-135912907D01*
X84834330Y-135479553D01*
X84618879Y-135121264D01*
X84284647Y-134856099D01*
X83851968Y-134702117D01*
X83511338Y-134670131D01*
X83064905Y-134738502D01*
X82721037Y-134929036D01*
X82493997Y-135219413D01*
X82398046Y-135587308D01*
X81831124Y-135587308D01*
X81963706Y-135148243D01*
X82232023Y-134727912D01*
X82586371Y-134422087D01*
X83123370Y-134161781D01*
X83663886Y-134043788D01*
X84186017Y-134058065D01*
G37*
G36*
X98476537Y-108824146D02*
G01*
X98645448Y-108928818D01*
X98870809Y-109113893D01*
X99160684Y-109387124D01*
X99523138Y-109756269D01*
X99966234Y-110229080D01*
X100498037Y-110813313D01*
X101126610Y-111516724D01*
X101423859Y-111852333D01*
X102499143Y-113024278D01*
X103640160Y-114177626D01*
X104774068Y-115250058D01*
X105527432Y-115946649D01*
X106158082Y-116538475D01*
X106671654Y-117031221D01*
X107073788Y-117430573D01*
X107370123Y-117742216D01*
X107566295Y-117971835D01*
X107667944Y-118125115D01*
X107686000Y-118186234D01*
X107626385Y-118312841D01*
X107475248Y-118490594D01*
X107380260Y-118580234D01*
X107032491Y-118837415D01*
X106718534Y-118977986D01*
X106460245Y-118996870D01*
X106279479Y-118888989D01*
X106249645Y-118842899D01*
X106167182Y-118551720D01*
X106248021Y-118274518D01*
X106373666Y-118109665D01*
X106512277Y-117948651D01*
X106583002Y-117844100D01*
X106585333Y-117834687D01*
X106552283Y-117741697D01*
X106448522Y-117589309D01*
X106267135Y-117370234D01*
X106001205Y-117077183D01*
X105643816Y-116702867D01*
X105188053Y-116239997D01*
X104627000Y-115681284D01*
X103953740Y-115019439D01*
X103421341Y-114499979D01*
X102448791Y-113550671D01*
X101594229Y-112710342D01*
X100851776Y-111972509D01*
X100215555Y-111330689D01*
X99679687Y-110778401D01*
X99238296Y-110309161D01*
X98885503Y-109916486D01*
X98615431Y-109593896D01*
X98422202Y-109334906D01*
X98299939Y-109133035D01*
X98242762Y-108981799D01*
X98244796Y-108874717D01*
X98275809Y-108824991D01*
X98356012Y-108792122D01*
X98476537Y-108824146D01*
G37*
G36*
X101881845Y-136081057D02*
G01*
X102153444Y-136150832D01*
X102723929Y-136398608D01*
X103173097Y-136761494D01*
X103492897Y-137228728D01*
X103675280Y-137789548D01*
X103716961Y-138241319D01*
X103690874Y-138779751D01*
X103589495Y-139210967D01*
X103392188Y-139588022D01*
X103078316Y-139963969D01*
X103026199Y-140017217D01*
X102732723Y-140292064D01*
X102472672Y-140474301D01*
X102177705Y-140606663D01*
X101976804Y-140673384D01*
X101422054Y-140808280D01*
X100939661Y-140836388D01*
X100471175Y-140758449D01*
X100266834Y-140695078D01*
X99826753Y-140516286D01*
X99503770Y-140313651D01*
X99245973Y-140052823D01*
X99193116Y-139984575D01*
X98929033Y-139495989D01*
X98789449Y-138923811D01*
X98785673Y-138688295D01*
X99244835Y-138688295D01*
X99288734Y-138976922D01*
X99466625Y-139491436D01*
X99766454Y-139895283D01*
X100197687Y-140198602D01*
X100573451Y-140353481D01*
X100860142Y-140397152D01*
X101238489Y-140389289D01*
X101641365Y-140337197D01*
X102001644Y-140248178D01*
X102170054Y-140179767D01*
X102618230Y-139864987D01*
X102953108Y-139453903D01*
X103168215Y-138977078D01*
X103257080Y-138465073D01*
X103213230Y-137948448D01*
X103030193Y-137457766D01*
X102813166Y-137143023D01*
X102405332Y-136793645D01*
X101898477Y-136578832D01*
X101300233Y-136501628D01*
X101204885Y-136502067D01*
X100616432Y-136588460D01*
X100114121Y-136810029D01*
X99711878Y-137148784D01*
X99423632Y-137586739D01*
X99263309Y-138105905D01*
X99244835Y-138688295D01*
X98785673Y-138688295D01*
X98779521Y-138304575D01*
X98879152Y-137760333D01*
X99084046Y-137310667D01*
X99422162Y-136888487D01*
X99857519Y-136527847D01*
X100354134Y-136262799D01*
X100525862Y-136201949D01*
X101032747Y-136072436D01*
X101462916Y-136032824D01*
X101881845Y-136081057D01*
G37*
G36*
X107759531Y-103328783D02*
G01*
X107756269Y-103394381D01*
X107728034Y-103493472D01*
X107654019Y-103617916D01*
X107520637Y-103782079D01*
X107314304Y-104000331D01*
X107021433Y-104287037D01*
X106628438Y-104656568D01*
X106121734Y-105123289D01*
X106119666Y-105125182D01*
X105243421Y-105932192D01*
X104487990Y-106638137D01*
X103854703Y-107241704D01*
X103344888Y-107741583D01*
X102959875Y-108136460D01*
X102700994Y-108425025D01*
X102569574Y-108605965D01*
X102553962Y-108643520D01*
X102555081Y-108907666D01*
X102675618Y-109242633D01*
X102918313Y-109651645D01*
X103285904Y-110137924D01*
X103781129Y-110704690D01*
X104406728Y-111355165D01*
X105165439Y-112092572D01*
X106060001Y-112920132D01*
X106606500Y-113410962D01*
X107020140Y-113781415D01*
X107322825Y-114060544D01*
X107531652Y-114267827D01*
X107663717Y-114422739D01*
X107736116Y-114544758D01*
X107765946Y-114653361D01*
X107770666Y-114737227D01*
X107759444Y-114901394D01*
X107718761Y-115002037D01*
X107638092Y-115031636D01*
X107506912Y-114982673D01*
X107314696Y-114847626D01*
X107050918Y-114618978D01*
X106705054Y-114289209D01*
X106266579Y-113850798D01*
X105724967Y-113296228D01*
X105660293Y-113229516D01*
X105139332Y-112692577D01*
X104585104Y-112122624D01*
X104028926Y-111551775D01*
X103502113Y-111012144D01*
X103035982Y-110535850D01*
X102721141Y-110215220D01*
X101523949Y-108998740D01*
X101873478Y-108689870D01*
X102389520Y-108228046D01*
X102998834Y-107673075D01*
X103673976Y-107050556D01*
X104387498Y-106386089D01*
X105111955Y-105705273D01*
X105819901Y-105033707D01*
X106483890Y-104396991D01*
X106695443Y-104192329D01*
X107082386Y-103818878D01*
X107364677Y-103552893D01*
X107557926Y-103382633D01*
X107677745Y-103296356D01*
X107739743Y-103282320D01*
X107759531Y-103328783D01*
G37*
G36*
X79207081Y-73089320D02*
G01*
X79381987Y-73246525D01*
X79635874Y-73485143D01*
X79948339Y-73786039D01*
X80249997Y-74081654D01*
X81312333Y-75130641D01*
X81989666Y-75271420D01*
X82416081Y-75368810D01*
X82876076Y-75487358D01*
X83259666Y-75598266D01*
X83563885Y-75697427D01*
X83739839Y-75774386D01*
X83821364Y-75855909D01*
X83842292Y-75968762D01*
X83840074Y-76057432D01*
X83770689Y-76307238D01*
X83595551Y-76635430D01*
X83337266Y-77009948D01*
X83018436Y-77398731D01*
X82661667Y-77769718D01*
X82577228Y-77848600D01*
X82070588Y-78263986D01*
X81625954Y-78525930D01*
X81238557Y-78636600D01*
X80917649Y-78603073D01*
X80745243Y-78517611D01*
X80616751Y-78379462D01*
X80527027Y-78167092D01*
X80470928Y-77858963D01*
X80443309Y-77433540D01*
X80439117Y-76881495D01*
X80821059Y-76881495D01*
X80860110Y-77293639D01*
X80970615Y-77676505D01*
X81012299Y-77766746D01*
X81105698Y-77942297D01*
X81190877Y-78042634D01*
X81300907Y-78066504D01*
X81468860Y-78012655D01*
X81727807Y-77879832D01*
X81998487Y-77729389D01*
X82474332Y-77418779D01*
X82827342Y-77093624D01*
X83049422Y-76768617D01*
X83132481Y-76458447D01*
X83068424Y-76177805D01*
X82942166Y-76016398D01*
X82574374Y-75774801D01*
X82159883Y-75668180D01*
X81738062Y-75692688D01*
X81348280Y-75844482D01*
X81029906Y-76119717D01*
X80964667Y-76209518D01*
X80855299Y-76500109D01*
X80821059Y-76881495D01*
X80439117Y-76881495D01*
X80439024Y-76869288D01*
X80442446Y-76613876D01*
X80465666Y-75276333D01*
X80204099Y-74726000D01*
X80017075Y-74377591D01*
X79772647Y-73981855D01*
X79521998Y-73621400D01*
X79508993Y-73604167D01*
X79319756Y-73346732D01*
X79186297Y-73149501D01*
X79128784Y-73043013D01*
X79131558Y-73032667D01*
X79207081Y-73089320D01*
G37*
G36*
X103381061Y-120845027D02*
G01*
X103615662Y-121005248D01*
X103890826Y-121234035D01*
X104173280Y-121500095D01*
X104429750Y-121772134D01*
X104626962Y-122018859D01*
X104730303Y-122204808D01*
X104827769Y-122697318D01*
X104817052Y-123207186D01*
X104705722Y-123683514D01*
X104501346Y-124075402D01*
X104441198Y-124149109D01*
X104271274Y-124266710D01*
X104134810Y-124229265D01*
X104055803Y-124050795D01*
X104045333Y-123917787D01*
X104024389Y-123762912D01*
X103929801Y-123681300D01*
X103713932Y-123631982D01*
X103712795Y-123631800D01*
X103420070Y-123535591D01*
X103205196Y-123339761D01*
X103051946Y-123021811D01*
X102945557Y-122567947D01*
X102879459Y-122249924D01*
X102877417Y-122242903D01*
X103127095Y-122242903D01*
X103156690Y-122532912D01*
X103243174Y-122736204D01*
X103420909Y-122935098D01*
X103648650Y-122983640D01*
X103891343Y-122877898D01*
X103960666Y-122816667D01*
X104109173Y-122577706D01*
X104089001Y-122328489D01*
X103922181Y-122093151D01*
X103668665Y-121919279D01*
X103426526Y-121906625D01*
X103247047Y-122018381D01*
X103127095Y-122242903D01*
X102877417Y-122242903D01*
X102801855Y-121983132D01*
X102731778Y-121829269D01*
X102654979Y-121743365D01*
X102567196Y-121725268D01*
X102419276Y-121779775D01*
X102224837Y-121878763D01*
X101864799Y-122112247D01*
X101618202Y-122367076D01*
X101508700Y-122617393D01*
X101505333Y-122665264D01*
X101562418Y-122823391D01*
X101705751Y-123024701D01*
X101773988Y-123098346D01*
X101967119Y-123352281D01*
X102122306Y-123665511D01*
X102217134Y-123979062D01*
X102229188Y-124233961D01*
X102219992Y-124271776D01*
X102164909Y-124389718D01*
X102076499Y-124410949D01*
X101911746Y-124335268D01*
X101801663Y-124269798D01*
X101373352Y-123937324D01*
X101108599Y-123565745D01*
X101007666Y-123160758D01*
X101070813Y-122728061D01*
X101298301Y-122273352D01*
X101688972Y-121803754D01*
X101965610Y-121552181D01*
X102287217Y-121300654D01*
X102615908Y-121074383D01*
X102913797Y-120898583D01*
X103142997Y-120798465D01*
X103220297Y-120784667D01*
X103381061Y-120845027D01*
G37*
G36*
X101752760Y-134998977D02*
G01*
X102267098Y-135082466D01*
X102717138Y-135238149D01*
X103152672Y-135480814D01*
X103388689Y-135645359D01*
X103929612Y-136142469D01*
X104329928Y-136732776D01*
X104588253Y-137413092D01*
X104703205Y-138180227D01*
X104703037Y-138675831D01*
X104670253Y-139073324D01*
X104617324Y-139452614D01*
X104553938Y-139748944D01*
X104532148Y-139818125D01*
X104222651Y-140432170D01*
X103774952Y-140955849D01*
X103200591Y-141377856D01*
X102690666Y-141621998D01*
X102250291Y-141743490D01*
X101711196Y-141818637D01*
X101138374Y-141844366D01*
X100596816Y-141817601D01*
X100171890Y-141741145D01*
X99431057Y-141456810D01*
X98812947Y-141056586D01*
X98320471Y-140543725D01*
X97956538Y-139921476D01*
X97724058Y-139193090D01*
X97681008Y-138958402D01*
X97636999Y-138221240D01*
X98117408Y-138221240D01*
X98130845Y-138770048D01*
X98197777Y-139276599D01*
X98286281Y-139598657D01*
X98587839Y-140181873D01*
X99009324Y-140654424D01*
X99360540Y-140905802D01*
X99727841Y-141106527D01*
X100047680Y-141237395D01*
X100374228Y-141310670D01*
X100761655Y-141338617D01*
X101251333Y-141333885D01*
X101671418Y-141316697D01*
X101974207Y-141287485D01*
X102211735Y-141235476D01*
X102436033Y-141149899D01*
X102653412Y-141043613D01*
X103246133Y-140645398D01*
X103733360Y-140120996D01*
X103978166Y-139732648D01*
X104064579Y-139550871D01*
X104121116Y-139364829D01*
X104153862Y-139132615D01*
X104168903Y-138812323D01*
X104172333Y-138395333D01*
X104169685Y-137967412D01*
X104156593Y-137664937D01*
X104125339Y-137444040D01*
X104068203Y-137260856D01*
X103977464Y-137071519D01*
X103921186Y-136968242D01*
X103524516Y-136420120D01*
X103009520Y-135971874D01*
X102449120Y-135670005D01*
X102166276Y-135572782D01*
X101876573Y-135513929D01*
X101523501Y-135485278D01*
X101124333Y-135478568D01*
X100710459Y-135483751D01*
X100409556Y-135506451D01*
X100165431Y-135556592D01*
X99921894Y-135644101D01*
X99744987Y-135722191D01*
X99267810Y-136005946D01*
X98833544Y-136384538D01*
X98483039Y-136815696D01*
X98257146Y-137257146D01*
X98254649Y-137264410D01*
X98158374Y-137697065D01*
X98117408Y-138221240D01*
X97636999Y-138221240D01*
X97634229Y-138174849D01*
X97736775Y-137436464D01*
X97979624Y-136760199D01*
X98353754Y-136163010D01*
X98850142Y-135661850D01*
X99459768Y-135273674D01*
X99698235Y-135167636D01*
X99958939Y-135074736D01*
X100213195Y-135016008D01*
X100511979Y-134984492D01*
X100906267Y-134973227D01*
X101124333Y-134972897D01*
X101752760Y-134998977D01*
G37*
G36*
X101752760Y-134998977D02*
G01*
X102267098Y-135082466D01*
X102717138Y-135238149D01*
X103152672Y-135480814D01*
X103388689Y-135645359D01*
X103929612Y-136142469D01*
X104329928Y-136732776D01*
X104588253Y-137413092D01*
X104703205Y-138180227D01*
X104703037Y-138675831D01*
X104670253Y-139073324D01*
X104617324Y-139452614D01*
X104553938Y-139748944D01*
X104532148Y-139818125D01*
X104222651Y-140432170D01*
X103774952Y-140955849D01*
X103200591Y-141377856D01*
X102690666Y-141621998D01*
X102250291Y-141743490D01*
X101711196Y-141818637D01*
X101138374Y-141844366D01*
X100596816Y-141817601D01*
X100171890Y-141741145D01*
X99431057Y-141456810D01*
X98812947Y-141056586D01*
X98320471Y-140543725D01*
X97956538Y-139921476D01*
X97724058Y-139193090D01*
X97681008Y-138958402D01*
X97636999Y-138221240D01*
X98117408Y-138221240D01*
X98130845Y-138770048D01*
X98197777Y-139276599D01*
X98286281Y-139598657D01*
X98587839Y-140181873D01*
X99009324Y-140654424D01*
X99360540Y-140905802D01*
X99727841Y-141106527D01*
X100047680Y-141237395D01*
X100374228Y-141310670D01*
X100761655Y-141338617D01*
X101251333Y-141333885D01*
X101671418Y-141316697D01*
X101974207Y-141287485D01*
X102211735Y-141235476D01*
X102436033Y-141149899D01*
X102653412Y-141043613D01*
X103246133Y-140645398D01*
X103733360Y-140120996D01*
X103978166Y-139732648D01*
X104064579Y-139550871D01*
X104121116Y-139364829D01*
X104153862Y-139132615D01*
X104168903Y-138812323D01*
X104172333Y-138395333D01*
X104169685Y-137967412D01*
X104156593Y-137664937D01*
X104125339Y-137444040D01*
X104068203Y-137260856D01*
X103977464Y-137071519D01*
X103921186Y-136968242D01*
X103524516Y-136420120D01*
X103009520Y-135971874D01*
X102449120Y-135670005D01*
X102166276Y-135572782D01*
X101876573Y-135513929D01*
X101523501Y-135485278D01*
X101124333Y-135478568D01*
X100710459Y-135483751D01*
X100409556Y-135506451D01*
X100165431Y-135556592D01*
X99921894Y-135644101D01*
X99744987Y-135722191D01*
X99267810Y-136005946D01*
X98833544Y-136384538D01*
X98483039Y-136815696D01*
X98257146Y-137257146D01*
X98254649Y-137264410D01*
X98158374Y-137697065D01*
X98117408Y-138221240D01*
X97636999Y-138221240D01*
X97634229Y-138174849D01*
X97736775Y-137436464D01*
X97979624Y-136760199D01*
X98353754Y-136163010D01*
X98850142Y-135661850D01*
X99459768Y-135273674D01*
X99698235Y-135167636D01*
X99958939Y-135074736D01*
X100213195Y-135016008D01*
X100511979Y-134984492D01*
X100906267Y-134973227D01*
X101124333Y-134972897D01*
X101752760Y-134998977D01*
G37*
G36*
X91307993Y-97177941D02*
G01*
X91781426Y-97360354D01*
X92168024Y-97639895D01*
X92435520Y-98003775D01*
X92450787Y-98036100D01*
X92598836Y-98548809D01*
X92578993Y-99059391D01*
X92392673Y-99562593D01*
X92041287Y-100053162D01*
X91857221Y-100242398D01*
X91424773Y-100616183D01*
X91050587Y-100849073D01*
X90713267Y-100949602D01*
X90391415Y-100926300D01*
X90254863Y-100881304D01*
X90126712Y-100807488D01*
X90082024Y-100688232D01*
X90098557Y-100463956D01*
X90098693Y-100462941D01*
X90117503Y-100243955D01*
X90078350Y-100136410D01*
X89955736Y-100085552D01*
X89919163Y-100077409D01*
X89433413Y-99936541D01*
X89092394Y-99740941D01*
X88892316Y-99492078D01*
X89936203Y-99492078D01*
X89945086Y-99670261D01*
X90085269Y-99834766D01*
X90318723Y-99973422D01*
X90607421Y-100074055D01*
X90913337Y-100124493D01*
X91198443Y-100112565D01*
X91424712Y-100026097D01*
X91474696Y-99984542D01*
X91563057Y-99874156D01*
X91531578Y-99786953D01*
X91422134Y-99696733D01*
X91163098Y-99549936D01*
X90850279Y-99441903D01*
X90527110Y-99378617D01*
X90237022Y-99366059D01*
X90023450Y-99410212D01*
X89936203Y-99492078D01*
X88892316Y-99492078D01*
X88875118Y-99470687D01*
X88760601Y-99105859D01*
X88741620Y-98959622D01*
X88753441Y-98758352D01*
X89487636Y-98758352D01*
X89558520Y-98978629D01*
X89584266Y-99008400D01*
X89784711Y-99101782D01*
X90029354Y-99075020D01*
X90242513Y-98942820D01*
X90437205Y-98631399D01*
X90492391Y-98233785D01*
X90484110Y-98125397D01*
X90444108Y-97960034D01*
X90338842Y-97893349D01*
X90163372Y-97882333D01*
X89942735Y-97912822D01*
X89779775Y-98032791D01*
X89676539Y-98170021D01*
X89528717Y-98472996D01*
X89487636Y-98758352D01*
X88753441Y-98758352D01*
X88771312Y-98454064D01*
X88951491Y-98002311D01*
X89233035Y-97663599D01*
X90641363Y-97663599D01*
X90706904Y-97782755D01*
X90779405Y-97963489D01*
X90846629Y-98245810D01*
X90886422Y-98508498D01*
X90958751Y-98908030D01*
X91068457Y-99164691D01*
X91103664Y-99206998D01*
X91246327Y-99326712D01*
X91384252Y-99354648D01*
X91587677Y-99299338D01*
X91655598Y-99274036D01*
X91877117Y-99158168D01*
X91987548Y-98993342D01*
X92020934Y-98724770D01*
X92021370Y-98685346D01*
X91955577Y-98309392D01*
X91776042Y-97975722D01*
X91514583Y-97715155D01*
X91203018Y-97558505D01*
X90873165Y-97536589D01*
X90841610Y-97542727D01*
X90671785Y-97592027D01*
X90641363Y-97663599D01*
X89233035Y-97663599D01*
X89267080Y-97622641D01*
X89703000Y-97333333D01*
X90229691Y-97155667D01*
X90779992Y-97105449D01*
X91307993Y-97177941D01*
G37*
G36*
X83456624Y-73047014D02*
G01*
X83568874Y-73100052D01*
X83712640Y-73206769D01*
X83904459Y-73382155D01*
X84160869Y-73641203D01*
X84498407Y-73998901D01*
X84875306Y-74406773D01*
X85542853Y-75129523D01*
X86241356Y-75879341D01*
X86959466Y-76644484D01*
X87685836Y-77413208D01*
X88409117Y-78173772D01*
X89117962Y-78914432D01*
X89801024Y-79623445D01*
X90446954Y-80289069D01*
X91044404Y-80899561D01*
X91582026Y-81443177D01*
X92048473Y-81908176D01*
X92432397Y-82282814D01*
X92722450Y-82555348D01*
X92890542Y-82701001D01*
X93208084Y-82952962D01*
X98221356Y-77992814D01*
X99125022Y-77099270D01*
X99916580Y-76317986D01*
X100603811Y-75641639D01*
X101194497Y-75062907D01*
X101696417Y-74574465D01*
X102117355Y-74168990D01*
X102465090Y-73839159D01*
X102747405Y-73577649D01*
X102972079Y-73377136D01*
X103146894Y-73230296D01*
X103279632Y-73129807D01*
X103378073Y-73068345D01*
X103449999Y-73038586D01*
X103491545Y-73032667D01*
X103529329Y-73040874D01*
X103539981Y-73070434D01*
X103516479Y-73128752D01*
X103451800Y-73223233D01*
X103338921Y-73361284D01*
X103170820Y-73550309D01*
X102940475Y-73797715D01*
X102640863Y-74110908D01*
X102264962Y-74497292D01*
X101805749Y-74964273D01*
X101256202Y-75519258D01*
X100609299Y-76169651D01*
X99858016Y-76922859D01*
X98995332Y-77786287D01*
X98773560Y-78008104D01*
X93798658Y-82983542D01*
X93942209Y-83348987D01*
X94025493Y-83582985D01*
X94039659Y-83740896D01*
X93982903Y-83902013D01*
X93927205Y-84008851D01*
X93768650Y-84303269D01*
X100778251Y-91313251D01*
X101921378Y-92457361D01*
X102948068Y-93486944D01*
X103862513Y-94406309D01*
X104668908Y-95219765D01*
X105371446Y-95931621D01*
X105974320Y-96546187D01*
X106481725Y-97067770D01*
X106897854Y-97500681D01*
X107226900Y-97849227D01*
X107473057Y-98117717D01*
X107640519Y-98310462D01*
X107733479Y-98431769D01*
X107756848Y-98483783D01*
X107721091Y-98519371D01*
X107630666Y-98484171D01*
X107471817Y-98367311D01*
X107230791Y-98157921D01*
X106893830Y-97845130D01*
X106626421Y-97590399D01*
X105385976Y-96390862D01*
X104054083Y-95083563D01*
X102650449Y-93688482D01*
X101194779Y-92225602D01*
X99706781Y-90714903D01*
X98206159Y-89176367D01*
X96712620Y-87629976D01*
X95245870Y-86095711D01*
X94179438Y-84969441D01*
X93865639Y-84635637D01*
X93467054Y-84210114D01*
X92993813Y-83703781D01*
X92456045Y-83127546D01*
X91863883Y-82492318D01*
X91227456Y-81809007D01*
X90556895Y-81088522D01*
X89862330Y-80341772D01*
X89153891Y-79579665D01*
X88441709Y-78813112D01*
X87735915Y-78053020D01*
X87046638Y-77310299D01*
X86384010Y-76595859D01*
X85758160Y-75920607D01*
X85179219Y-75295454D01*
X84657318Y-74731308D01*
X84202587Y-74239079D01*
X83825156Y-73829675D01*
X83535156Y-73514005D01*
X83342718Y-73302979D01*
X83267711Y-73219025D01*
X83106422Y-73032667D01*
X83359351Y-73032667D01*
X83456624Y-73047014D01*
G37*
G36*
X77885623Y-81811443D02*
G01*
X78057413Y-81978769D01*
X78327756Y-82244803D01*
X78686054Y-82599039D01*
X79121709Y-83030972D01*
X79624121Y-83530094D01*
X80182691Y-84085898D01*
X80786821Y-84687878D01*
X81336518Y-85236286D01*
X82103442Y-86002121D01*
X82758794Y-86658560D01*
X83310785Y-87215901D01*
X83767626Y-87684439D01*
X84137527Y-88074472D01*
X84428697Y-88396297D01*
X84649348Y-88660209D01*
X84807689Y-88876506D01*
X84911930Y-89055485D01*
X84970283Y-89207441D01*
X84990956Y-89342672D01*
X84982162Y-89471475D01*
X84952108Y-89604146D01*
X84916473Y-89726006D01*
X84737940Y-90107019D01*
X84464124Y-90448989D01*
X84152669Y-90683596D01*
X84001119Y-90745717D01*
X83856588Y-90745708D01*
X83657584Y-90676364D01*
X83506588Y-90607911D01*
X83137555Y-90388965D01*
X82685697Y-90042866D01*
X82163676Y-89582304D01*
X81584152Y-89019971D01*
X81559954Y-88994725D01*
X82782077Y-88994725D01*
X82835099Y-89442127D01*
X82989851Y-89769402D01*
X83258327Y-90000023D01*
X83310161Y-90028252D01*
X83519815Y-90114214D01*
X83708990Y-90119151D01*
X83953641Y-90041693D01*
X84017571Y-90015501D01*
X84304487Y-89823092D01*
X84457601Y-89562527D01*
X84481351Y-89263438D01*
X84380176Y-88955460D01*
X84158516Y-88668225D01*
X83820810Y-88431367D01*
X83777021Y-88409781D01*
X83391808Y-88286794D01*
X83070805Y-88310035D01*
X82928237Y-88383905D01*
X82836798Y-88494587D01*
X82791641Y-88683610D01*
X82782077Y-88994725D01*
X81559954Y-88994725D01*
X80959785Y-88368556D01*
X80439627Y-87791944D01*
X81270000Y-87791944D01*
X81329934Y-87938366D01*
X81483365Y-88146416D01*
X81690738Y-88375328D01*
X81912497Y-88584338D01*
X82109084Y-88732681D01*
X82229397Y-88780667D01*
X82359181Y-88711793D01*
X82488172Y-88544627D01*
X82495492Y-88530871D01*
X82600357Y-88222877D01*
X82633854Y-87874948D01*
X82605638Y-87517130D01*
X82525358Y-87179469D01*
X82402669Y-86892010D01*
X82247221Y-86684799D01*
X82068668Y-86587881D01*
X81883833Y-86626882D01*
X81756947Y-86759406D01*
X81602761Y-86995374D01*
X81450817Y-87278716D01*
X81330654Y-87553368D01*
X81271811Y-87763261D01*
X81270000Y-87791944D01*
X80439627Y-87791944D01*
X80303237Y-87640751D01*
X79627168Y-86849246D01*
X79052501Y-86143252D01*
X78751141Y-85769154D01*
X78460160Y-85415631D01*
X78241667Y-85156652D01*
X78730000Y-85156652D01*
X78748794Y-85374376D01*
X78825363Y-85555325D01*
X78989986Y-85757966D01*
X79099859Y-85870807D01*
X79381147Y-86124426D01*
X79586721Y-86234058D01*
X79733646Y-86197369D01*
X79835265Y-86018577D01*
X80091696Y-86018577D01*
X80110491Y-86381753D01*
X80195952Y-86814258D01*
X80343813Y-87104067D01*
X80546658Y-87244971D01*
X80797071Y-87230759D01*
X80997644Y-87124527D01*
X81258427Y-86854962D01*
X81396510Y-86525598D01*
X81416038Y-86175639D01*
X81321157Y-85844286D01*
X81116010Y-85570740D01*
X80815032Y-85397531D01*
X80499593Y-85345313D01*
X80275318Y-85429421D01*
X80140066Y-85652846D01*
X80091696Y-86018577D01*
X79835265Y-86018577D01*
X79838988Y-86012026D01*
X79903644Y-85760879D01*
X79975981Y-85275905D01*
X79997466Y-84824235D01*
X79968979Y-84445998D01*
X79891398Y-84181318D01*
X79868199Y-84142839D01*
X79669450Y-83988000D01*
X79418325Y-83964983D01*
X79168531Y-84073630D01*
X79089065Y-84145167D01*
X78842651Y-84530650D01*
X78735083Y-85011385D01*
X78730000Y-85156652D01*
X78241667Y-85156652D01*
X78208490Y-85117328D01*
X78025064Y-84908887D01*
X77992969Y-84874572D01*
X77828988Y-84676421D01*
X77771734Y-84544175D01*
X77787905Y-84511651D01*
X77900476Y-84526957D01*
X78049285Y-84631344D01*
X78175736Y-84773607D01*
X78222000Y-84890997D01*
X78260319Y-84948385D01*
X78366670Y-84869384D01*
X78528140Y-84666340D01*
X78653611Y-84478311D01*
X78843794Y-84098794D01*
X78906677Y-83739096D01*
X78837013Y-83375009D01*
X78629557Y-82982330D01*
X78279061Y-82536850D01*
X78218012Y-82468596D01*
X78013061Y-82226089D01*
X77863673Y-82018452D01*
X77799296Y-81887056D01*
X77798666Y-81879437D01*
X77811998Y-81767024D01*
X77822986Y-81753333D01*
X77885623Y-81811443D01*
G37*
G36*
X77816855Y-104692395D02*
G01*
X77928620Y-104774709D01*
X78098979Y-104927233D01*
X78339844Y-105160577D01*
X78663127Y-105485351D01*
X79080740Y-105912163D01*
X79553576Y-106398994D01*
X80023639Y-106883390D01*
X80502200Y-107375628D01*
X80996432Y-107883007D01*
X81513508Y-108412824D01*
X82060602Y-108972376D01*
X82644885Y-109568959D01*
X83273532Y-110209873D01*
X83953714Y-110902413D01*
X84692606Y-111653877D01*
X85497380Y-112471563D01*
X86375209Y-113362768D01*
X87333266Y-114334789D01*
X88378724Y-115394923D01*
X89518756Y-116550468D01*
X90760536Y-117808720D01*
X92111235Y-119176979D01*
X92712431Y-119785899D01*
X93863550Y-120952751D01*
X95026472Y-122133461D01*
X96192110Y-123318718D01*
X97351374Y-124499208D01*
X98495177Y-125665617D01*
X99614429Y-126808633D01*
X100700041Y-127918943D01*
X101742927Y-128987233D01*
X102733996Y-130004191D01*
X103664161Y-130960504D01*
X104524333Y-131846858D01*
X105305423Y-132653940D01*
X105998343Y-133372438D01*
X106594004Y-133993038D01*
X107083318Y-134506427D01*
X107250384Y-134683019D01*
X107505674Y-134961225D01*
X107661232Y-135158256D01*
X107738679Y-135311033D01*
X107759639Y-135456478D01*
X107755096Y-135544810D01*
X107749770Y-135583983D01*
X107737696Y-135611973D01*
X107713193Y-135623173D01*
X107670577Y-135611980D01*
X107604166Y-135572786D01*
X107508278Y-135499987D01*
X107377229Y-135387977D01*
X107205338Y-135231150D01*
X106986922Y-135023902D01*
X106716298Y-134760626D01*
X106387784Y-134435718D01*
X105995697Y-134043572D01*
X105534355Y-133578581D01*
X104998075Y-133035142D01*
X104381175Y-132407648D01*
X103677971Y-131690493D01*
X102882782Y-130878073D01*
X101989925Y-129964782D01*
X100993718Y-128945014D01*
X99888477Y-127813164D01*
X99140099Y-127046649D01*
X97944225Y-125822131D01*
X96860883Y-124713715D01*
X95884655Y-123716000D01*
X95010127Y-122823588D01*
X94231884Y-122031077D01*
X93544509Y-121333070D01*
X92942587Y-120724166D01*
X92420702Y-120198966D01*
X91973439Y-119752071D01*
X91595383Y-119378080D01*
X91281117Y-119071595D01*
X91025226Y-118827216D01*
X90822295Y-118639543D01*
X90666907Y-118503176D01*
X90553648Y-118412717D01*
X90477102Y-118362766D01*
X90431852Y-118347923D01*
X90419433Y-118351854D01*
X89996665Y-118697268D01*
X89472897Y-119159621D01*
X88858705Y-119728477D01*
X88164667Y-120393402D01*
X87401360Y-121143960D01*
X86579360Y-121969716D01*
X85709246Y-122860234D01*
X84801593Y-123805080D01*
X83866980Y-124793817D01*
X83591142Y-125088627D01*
X82677704Y-126063195D01*
X81868406Y-126917613D01*
X81155680Y-127658992D01*
X80531958Y-128294441D01*
X79989672Y-128831071D01*
X79521253Y-129275991D01*
X79119133Y-129636311D01*
X78775744Y-129919141D01*
X78483517Y-130131590D01*
X78234883Y-130280769D01*
X78022275Y-130373787D01*
X77938664Y-130398636D01*
X77754952Y-130413017D01*
X77706848Y-130331770D01*
X77792498Y-130158157D01*
X78010054Y-129895440D01*
X78357665Y-129546881D01*
X78494511Y-129419175D01*
X78942636Y-129002245D01*
X79466162Y-128507278D01*
X80054278Y-127945016D01*
X80696175Y-127326199D01*
X81381045Y-126661569D01*
X82098076Y-125961868D01*
X82836460Y-125237836D01*
X83585387Y-124500215D01*
X84334047Y-123759747D01*
X85071632Y-123027173D01*
X85787332Y-122313234D01*
X86470336Y-121628671D01*
X87109836Y-120984226D01*
X87695022Y-120390640D01*
X88215084Y-119858654D01*
X88659213Y-119399011D01*
X89016600Y-119022450D01*
X89276435Y-118739714D01*
X89427908Y-118561544D01*
X89446304Y-118536454D01*
X89678349Y-118162145D01*
X89787265Y-117857394D01*
X89772664Y-117575101D01*
X89634155Y-117268166D01*
X89433353Y-116972520D01*
X89312179Y-116829641D01*
X89080311Y-116577507D01*
X88747400Y-116225986D01*
X88323098Y-115784948D01*
X87817055Y-115264263D01*
X87238924Y-114673798D01*
X86598356Y-114023423D01*
X85905003Y-113323007D01*
X85168515Y-112582419D01*
X84398545Y-111811528D01*
X83887819Y-111302000D01*
X82890309Y-110307935D01*
X82006161Y-109425947D01*
X81228562Y-108648817D01*
X80550699Y-107969327D01*
X79965759Y-107380257D01*
X79466928Y-106874388D01*
X79047393Y-106444501D01*
X78700340Y-106083379D01*
X78418957Y-105783800D01*
X78196429Y-105538547D01*
X78025944Y-105340401D01*
X77900689Y-105182143D01*
X77813849Y-105056553D01*
X77758613Y-104956414D01*
X77728165Y-104874505D01*
X77715694Y-104803608D01*
X77714000Y-104760623D01*
X77721457Y-104695962D01*
X77751772Y-104669683D01*
X77816855Y-104692395D01*
G37*
G36*
X88072986Y-106342734D02*
G01*
X88269110Y-106454879D01*
X88531451Y-106649015D01*
X88866459Y-106931055D01*
X89280585Y-107306912D01*
X89780277Y-107782499D01*
X90371986Y-108363729D01*
X91062161Y-109056515D01*
X91857252Y-109866771D01*
X92169143Y-110187055D01*
X93348723Y-111398110D01*
X94413765Y-112486580D01*
X95365379Y-113453570D01*
X96204677Y-114300183D01*
X96932769Y-115027526D01*
X97550766Y-115636703D01*
X98059777Y-116128818D01*
X98460913Y-116504978D01*
X98755285Y-116766286D01*
X98894575Y-116878587D01*
X99141672Y-117076818D01*
X99332104Y-117253727D01*
X99425391Y-117371638D01*
X99426015Y-117373207D01*
X99433030Y-117527795D01*
X99394140Y-117775013D01*
X99352330Y-117940014D01*
X99164359Y-118340833D01*
X98856429Y-118731681D01*
X98473051Y-119062287D01*
X98228704Y-119209126D01*
X97901574Y-119312831D01*
X97541363Y-119336034D01*
X97224527Y-119276816D01*
X97138436Y-119236500D01*
X97010556Y-119131416D01*
X96805167Y-118929519D01*
X96554216Y-118663201D01*
X96369019Y-118456333D01*
X96302763Y-118384391D01*
X97447350Y-118384391D01*
X97501823Y-118584823D01*
X97589500Y-118661218D01*
X97703542Y-118725571D01*
X97788361Y-118739416D01*
X97913456Y-118699217D01*
X98061839Y-118637179D01*
X98356209Y-118459302D01*
X98587923Y-118216997D01*
X98739274Y-117946397D01*
X98792555Y-117683635D01*
X98730059Y-117464843D01*
X98669076Y-117398063D01*
X98480548Y-117344991D01*
X98230025Y-117426119D01*
X97941975Y-117630050D01*
X97738580Y-117831470D01*
X97527639Y-118125651D01*
X97447350Y-118384391D01*
X96302763Y-118384391D01*
X96173833Y-118244396D01*
X95873822Y-117932827D01*
X95486454Y-117539121D01*
X95354371Y-117406722D01*
X96340491Y-117406722D01*
X96357682Y-117719169D01*
X96473714Y-117942286D01*
X96623125Y-118051237D01*
X96784413Y-118054595D01*
X97009831Y-117949790D01*
X97071768Y-117912846D01*
X97278806Y-117725779D01*
X97477025Y-117446952D01*
X97639084Y-117129794D01*
X97737643Y-116827733D01*
X97745757Y-116595760D01*
X97634965Y-116388737D01*
X97492722Y-116253148D01*
X97245380Y-116178168D01*
X96987756Y-116271187D01*
X96719121Y-116532573D01*
X96593201Y-116707107D01*
X96420488Y-117053958D01*
X96340491Y-117406722D01*
X95354371Y-117406722D01*
X95029198Y-117080771D01*
X94519520Y-116575273D01*
X93974888Y-116040120D01*
X93412771Y-115492806D01*
X93327582Y-115410313D01*
X92244052Y-114360172D01*
X91245110Y-113388589D01*
X90334871Y-112499648D01*
X89517451Y-111697431D01*
X88796965Y-110986021D01*
X88177527Y-110369503D01*
X87946129Y-110136634D01*
X89144069Y-110136634D01*
X89192747Y-110451951D01*
X89333529Y-110749226D01*
X89584332Y-111072012D01*
X89806208Y-111307376D01*
X90055202Y-111547963D01*
X90262597Y-111725347D01*
X90399703Y-111816178D01*
X90435870Y-111819849D01*
X90495933Y-111712179D01*
X90511629Y-111674973D01*
X91125634Y-111674973D01*
X91129781Y-112014915D01*
X91148279Y-112180413D01*
X91216620Y-112402329D01*
X91364700Y-112647013D01*
X91615517Y-112950038D01*
X91717961Y-113061635D01*
X92042608Y-113389090D01*
X92344736Y-113656655D01*
X92597064Y-113842380D01*
X92772312Y-113924319D01*
X92792773Y-113926350D01*
X92833396Y-113850201D01*
X92868159Y-113737251D01*
X93208000Y-113737251D01*
X93218535Y-114078614D01*
X93262512Y-114322036D01*
X93358490Y-114538254D01*
X93461581Y-114703807D01*
X93720414Y-115051842D01*
X94005088Y-115365064D01*
X94293010Y-115626814D01*
X94561588Y-115820435D01*
X94788228Y-115929267D01*
X94950338Y-115936652D01*
X95019961Y-115852833D01*
X95052439Y-115712819D01*
X95062280Y-115667075D01*
X95374972Y-115667075D01*
X95388148Y-116036774D01*
X95459017Y-116396228D01*
X95580281Y-116680946D01*
X95714429Y-116865743D01*
X95827174Y-116967687D01*
X95850741Y-116974667D01*
X95956723Y-116917567D01*
X96125547Y-116772493D01*
X96221458Y-116675886D01*
X96474249Y-116311727D01*
X96582272Y-115928340D01*
X96544307Y-115556304D01*
X96359132Y-115226196D01*
X96282545Y-115147117D01*
X96011962Y-114975740D01*
X95755072Y-114968105D01*
X95529025Y-115120075D01*
X95421320Y-115342915D01*
X95374972Y-115667075D01*
X95062280Y-115667075D01*
X95106741Y-115460396D01*
X95171693Y-115149242D01*
X95236123Y-114833036D01*
X95288859Y-114565456D01*
X95298477Y-114514739D01*
X95263384Y-114303458D01*
X95113524Y-114033870D01*
X94878934Y-113735448D01*
X94589653Y-113437667D01*
X94275716Y-113170001D01*
X93967161Y-112961924D01*
X93694026Y-112842909D01*
X93577463Y-112826000D01*
X93403741Y-112874130D01*
X93289381Y-113031155D01*
X93226697Y-113316027D01*
X93208000Y-113737251D01*
X92868159Y-113737251D01*
X92895586Y-113648139D01*
X92967366Y-113360227D01*
X92983273Y-113289260D01*
X93083231Y-112753197D01*
X93115331Y-112344784D01*
X93079410Y-112036461D01*
X92975310Y-111800667D01*
X92974608Y-111799609D01*
X92849326Y-111645325D01*
X92644307Y-111427945D01*
X92389872Y-111175803D01*
X92116341Y-110917232D01*
X91854034Y-110680567D01*
X91633270Y-110494142D01*
X91484369Y-110386291D01*
X91445521Y-110370667D01*
X91357475Y-110448834D01*
X91275058Y-110657340D01*
X91204677Y-110957194D01*
X91152734Y-111309402D01*
X91125634Y-111674973D01*
X90511629Y-111674973D01*
X90587908Y-111494163D01*
X90676888Y-111254729D01*
X90787336Y-110860923D01*
X90828485Y-110465518D01*
X90822704Y-110137815D01*
X90799134Y-109806292D01*
X90756907Y-109588647D01*
X90677100Y-109429427D01*
X90540789Y-109273178D01*
X90520792Y-109253048D01*
X90213470Y-109041204D01*
X89896483Y-108981861D01*
X89601233Y-109063245D01*
X89359125Y-109273581D01*
X89201560Y-109601092D01*
X89169580Y-109759718D01*
X89144069Y-110136634D01*
X87946129Y-110136634D01*
X87663252Y-109851958D01*
X87258257Y-109437470D01*
X86966655Y-109130123D01*
X86884745Y-109037847D01*
X87493552Y-109037847D01*
X88040426Y-109540831D01*
X88301538Y-109779152D01*
X88483631Y-109915331D01*
X88618816Y-109940207D01*
X88739204Y-109844621D01*
X88876904Y-109619415D01*
X89064029Y-109255429D01*
X89067949Y-109247743D01*
X89255522Y-108817012D01*
X89359478Y-108436836D01*
X89375314Y-108135210D01*
X89298526Y-107940129D01*
X89280985Y-107923620D01*
X89075033Y-107853895D01*
X88791776Y-107888026D01*
X88470257Y-108006838D01*
X88149520Y-108191156D01*
X87868608Y-108421805D01*
X87666566Y-108679609D01*
X87640754Y-108729162D01*
X87493552Y-109037847D01*
X86884745Y-109037847D01*
X86792562Y-108933999D01*
X86763865Y-108897463D01*
X86595370Y-108618471D01*
X86530680Y-108345380D01*
X86558784Y-108084386D01*
X87027333Y-108084386D01*
X87049361Y-108265373D01*
X87146349Y-108331884D01*
X87252174Y-108338667D01*
X87461380Y-108287827D01*
X87704877Y-108161262D01*
X87769158Y-108115839D01*
X88024166Y-107863439D01*
X88190984Y-107581502D01*
X88249508Y-107313846D01*
X88211631Y-107151400D01*
X88093554Y-107016508D01*
X87938129Y-107008382D01*
X87728244Y-107132656D01*
X87446785Y-107394964D01*
X87435101Y-107407052D01*
X87190507Y-107685984D01*
X87062032Y-107903999D01*
X87027333Y-108084386D01*
X86558784Y-108084386D01*
X86565183Y-108024957D01*
X86660217Y-107701358D01*
X86790325Y-107432135D01*
X86994613Y-107131618D01*
X87241469Y-106834351D01*
X87499277Y-106574877D01*
X87736422Y-106387741D01*
X87921291Y-106307487D01*
X87936631Y-106306667D01*
X88072986Y-106342734D01*
G37*
G36*
X86694761Y-80926385D02*
G01*
X86828132Y-80941970D01*
X86947056Y-80969997D01*
X87069497Y-81024630D01*
X87213421Y-81120031D01*
X87396793Y-81270363D01*
X87637578Y-81489789D01*
X87953740Y-81792473D01*
X88363244Y-82192577D01*
X88616930Y-82441761D01*
X88935135Y-82752430D01*
X89361784Y-83165798D01*
X89882461Y-83668038D01*
X90482745Y-84245325D01*
X91148219Y-84883831D01*
X91864464Y-85569730D01*
X92617062Y-86289196D01*
X93391593Y-87028402D01*
X94173639Y-87773521D01*
X94605000Y-88183943D01*
X95903675Y-89421753D01*
X97116623Y-90583571D01*
X98240477Y-91666049D01*
X99271871Y-92665841D01*
X100207439Y-93579600D01*
X101043815Y-94403980D01*
X101777632Y-95135634D01*
X102405526Y-95771215D01*
X102924129Y-96307377D01*
X103330075Y-96740772D01*
X103619999Y-97068054D01*
X103790534Y-97285877D01*
X103832300Y-97358005D01*
X103953711Y-97833449D01*
X103936413Y-98305359D01*
X103791802Y-98739058D01*
X103531270Y-99099868D01*
X103178696Y-99347355D01*
X102680158Y-99521820D01*
X102214809Y-99571969D01*
X101990433Y-99544240D01*
X101910026Y-99491604D01*
X101743347Y-99349267D01*
X101487734Y-99114597D01*
X101140526Y-98784965D01*
X100699061Y-98357742D01*
X100160676Y-97830297D01*
X99522710Y-97200000D01*
X98782501Y-96464221D01*
X97937387Y-95620331D01*
X96984705Y-94665700D01*
X95921794Y-93597697D01*
X94936320Y-92605348D01*
X96003470Y-92605348D01*
X96038354Y-92882459D01*
X96155359Y-93173566D01*
X96369907Y-93505593D01*
X96697417Y-93905464D01*
X96838052Y-94062548D01*
X97036553Y-94249678D01*
X97284718Y-94442102D01*
X97539405Y-94611390D01*
X97757469Y-94729113D01*
X97895768Y-94766839D01*
X97903990Y-94764974D01*
X97972153Y-94672320D01*
X97983620Y-94641954D01*
X98503783Y-94641954D01*
X98503851Y-94695154D01*
X98521029Y-95054754D01*
X98562587Y-95360553D01*
X98620298Y-95554000D01*
X98830583Y-95891668D01*
X99101771Y-96243267D01*
X99405707Y-96580804D01*
X99714233Y-96876287D01*
X99999191Y-97101724D01*
X100232424Y-97229123D01*
X100323622Y-97247333D01*
X100456303Y-97173505D01*
X100553846Y-97024421D01*
X101096125Y-97024421D01*
X101113946Y-97677657D01*
X101239059Y-98204636D01*
X101470534Y-98603121D01*
X101807436Y-98870871D01*
X101879152Y-98904987D01*
X102255630Y-99011832D01*
X102597467Y-98973627D01*
X102777027Y-98897457D01*
X103011866Y-98730273D01*
X103144381Y-98502918D01*
X103195843Y-98172000D01*
X103198666Y-98037281D01*
X103141239Y-97636539D01*
X102985270Y-97221588D01*
X102755232Y-96825386D01*
X102475595Y-96480889D01*
X102170830Y-96221056D01*
X101865409Y-96078845D01*
X101732013Y-96062000D01*
X101463250Y-96105490D01*
X101277555Y-96249250D01*
X101161758Y-96513216D01*
X101102686Y-96917325D01*
X101096125Y-97024421D01*
X100553846Y-97024421D01*
X100578717Y-96986408D01*
X100584894Y-96972167D01*
X100661139Y-96669978D01*
X100694292Y-96273718D01*
X100684584Y-95853013D01*
X100632247Y-95477489D01*
X100579345Y-95300000D01*
X100352043Y-94840497D01*
X100068210Y-94424061D01*
X99753557Y-94077515D01*
X99433795Y-93827683D01*
X99134637Y-93701391D01*
X99037404Y-93691333D01*
X98793546Y-93743233D01*
X98628648Y-93908951D01*
X98534723Y-94203515D01*
X98503783Y-94641954D01*
X97983620Y-94641954D01*
X98049375Y-94467820D01*
X98089372Y-94319471D01*
X98149521Y-93965273D01*
X98182270Y-93564926D01*
X98187475Y-93168056D01*
X98164993Y-92824290D01*
X98114683Y-92583254D01*
X98094499Y-92539014D01*
X97999361Y-92412017D01*
X97812491Y-92192059D01*
X97559455Y-91908304D01*
X97265821Y-91589916D01*
X97215608Y-91536464D01*
X96902032Y-91205950D01*
X96682862Y-90984884D01*
X96537688Y-90858248D01*
X96446100Y-90811026D01*
X96387689Y-90828203D01*
X96342427Y-90894044D01*
X96254322Y-91125216D01*
X96164973Y-91467593D01*
X96085801Y-91863523D01*
X96028223Y-92255352D01*
X96003660Y-92585426D01*
X96003470Y-92605348D01*
X94936320Y-92605348D01*
X94745992Y-92413692D01*
X93460267Y-91116739D01*
X92301047Y-89946472D01*
X91255181Y-88890363D01*
X90316837Y-87942285D01*
X89480183Y-87096112D01*
X88739387Y-86345717D01*
X88534017Y-86137199D01*
X89865779Y-86137199D01*
X89881447Y-86518510D01*
X89930961Y-86839959D01*
X89988077Y-87002667D01*
X90253971Y-87408845D01*
X90601595Y-87808554D01*
X90950406Y-88114178D01*
X91172594Y-88269964D01*
X91306534Y-88339369D01*
X91399056Y-88338127D01*
X91481230Y-88292537D01*
X91570492Y-88174658D01*
X92023004Y-88174658D01*
X92048982Y-88600639D01*
X92112195Y-88972145D01*
X92198014Y-89215790D01*
X92337571Y-89447534D01*
X92520405Y-89695625D01*
X92721396Y-89933523D01*
X92915422Y-90134687D01*
X93077363Y-90272577D01*
X93182097Y-90320651D01*
X93208000Y-90282841D01*
X93208880Y-90279924D01*
X93802991Y-90279924D01*
X93811815Y-90601897D01*
X93838106Y-90780980D01*
X93919440Y-90933755D01*
X94095393Y-91170211D01*
X94338878Y-91456295D01*
X94583351Y-91717817D01*
X94853786Y-91993831D01*
X95076338Y-92218986D01*
X95227272Y-92369405D01*
X95282733Y-92421333D01*
X95317752Y-92348096D01*
X95403262Y-92149209D01*
X95526028Y-91855906D01*
X95658449Y-91534548D01*
X95848875Y-91036149D01*
X95953666Y-90679798D01*
X95973807Y-90462040D01*
X95970140Y-90443254D01*
X95871070Y-90222799D01*
X95682559Y-89931273D01*
X95439446Y-89612619D01*
X95176571Y-89310778D01*
X94928773Y-89069693D01*
X94806453Y-88975525D01*
X94486685Y-88824229D01*
X94223042Y-88832006D01*
X94012947Y-88999095D01*
X93976480Y-89052689D01*
X93910496Y-89241674D01*
X93856684Y-89545450D01*
X93819399Y-89909654D01*
X93802991Y-90279924D01*
X93208880Y-90279924D01*
X93233412Y-90198638D01*
X93301607Y-89990735D01*
X93400521Y-89695636D01*
X93462000Y-89514233D01*
X93626048Y-88968812D01*
X93702136Y-88537388D01*
X93691134Y-88189792D01*
X93593911Y-87895857D01*
X93512623Y-87758679D01*
X93334986Y-87541508D01*
X93100445Y-87312956D01*
X92843063Y-87098957D01*
X92596901Y-86925446D01*
X92396021Y-86818357D01*
X92274486Y-86803622D01*
X92266338Y-86809795D01*
X92155927Y-87011769D01*
X92077731Y-87336032D01*
X92033005Y-87738392D01*
X92023004Y-88174658D01*
X91570492Y-88174658D01*
X91619826Y-88109508D01*
X91709086Y-87803090D01*
X91748406Y-87412065D01*
X91737184Y-86975214D01*
X91674817Y-86531317D01*
X91560702Y-86119155D01*
X91516739Y-86008541D01*
X91297095Y-85607494D01*
X91034830Y-85295417D01*
X90753123Y-85084780D01*
X90475157Y-84988050D01*
X90224112Y-85017698D01*
X90023169Y-85186190D01*
X90013785Y-85200111D01*
X89932755Y-85421399D01*
X89883151Y-85752629D01*
X89865779Y-86137199D01*
X88534017Y-86137199D01*
X88088618Y-85684972D01*
X87522043Y-85107752D01*
X87033830Y-84607928D01*
X86618148Y-84179375D01*
X86269165Y-83815966D01*
X85981048Y-83511573D01*
X85747966Y-83260070D01*
X85564087Y-83055330D01*
X85423579Y-82891226D01*
X85320609Y-82761631D01*
X85249347Y-82660419D01*
X85203960Y-82581463D01*
X85178616Y-82518635D01*
X85170264Y-82479004D01*
X85588000Y-82479004D01*
X85663720Y-82801281D01*
X85876645Y-83152923D01*
X86205421Y-83503855D01*
X86463073Y-83711511D01*
X86797312Y-83902182D01*
X87065330Y-83939676D01*
X87272369Y-83824328D01*
X87275273Y-83820716D01*
X87712672Y-83820716D01*
X87727985Y-84162299D01*
X87729565Y-84183723D01*
X87803556Y-84675203D01*
X87959549Y-85072558D01*
X88224402Y-85423870D01*
X88615528Y-85769881D01*
X88948904Y-85985042D01*
X89223357Y-86072252D01*
X89423330Y-86030027D01*
X89533142Y-85857369D01*
X89553149Y-85680876D01*
X89562191Y-85385290D01*
X89559323Y-85020557D01*
X89552811Y-84820203D01*
X89529268Y-84407167D01*
X89491131Y-84109318D01*
X89426537Y-83872531D01*
X89323619Y-83642683D01*
X89274443Y-83550374D01*
X89030424Y-83197541D01*
X88746232Y-82933792D01*
X88457527Y-82788447D01*
X88324471Y-82769333D01*
X88110094Y-82841837D01*
X87902878Y-83024401D01*
X87757666Y-83264605D01*
X87736508Y-83331324D01*
X87715683Y-83522953D01*
X87712672Y-83820716D01*
X87275273Y-83820716D01*
X87318865Y-83766494D01*
X87390232Y-83602535D01*
X87432490Y-83339810D01*
X87449749Y-82948166D01*
X87450666Y-82799752D01*
X87446082Y-82368776D01*
X87425696Y-82073073D01*
X87379558Y-81878686D01*
X87297720Y-81751655D01*
X87170231Y-81658022D01*
X87105944Y-81623202D01*
X86723709Y-81505937D01*
X86349972Y-81529929D01*
X86017940Y-81676456D01*
X85760824Y-81926794D01*
X85611830Y-82262222D01*
X85588000Y-82479004D01*
X85170264Y-82479004D01*
X85167483Y-82465809D01*
X85164730Y-82416859D01*
X85164666Y-82401637D01*
X85238561Y-81929553D01*
X85443163Y-81520682D01*
X85752848Y-81199730D01*
X86141990Y-80991403D01*
X86584965Y-80920407D01*
X86694761Y-80926385D01*
G37*
%TD*%
%LPC*%
D12*
%TO.C,A1*%
X83820000Y-127000000D03*
D13*
X86360000Y-127000000D03*
X88900000Y-127000000D03*
X91440000Y-127000000D03*
%TD*%
D12*
%TO.C,J1*%
X104140000Y-127000000D03*
D13*
X101600000Y-127000000D03*
X99060000Y-127000000D03*
X96520000Y-127000000D03*
%TD*%
D12*
%TO.C,A3*%
X96520000Y-101600000D03*
D13*
X96520000Y-104140000D03*
X96520000Y-106680000D03*
X96520000Y-109220000D03*
X96520000Y-111760000D03*
X96520000Y-114300000D03*
%TD*%
D12*
%TO.C,BT1*%
X81280000Y-119380000D03*
D13*
X81280000Y-121920000D03*
%TD*%
D12*
%TO.C,SW1*%
X81280000Y-86360000D03*
D13*
X81280000Y-88900000D03*
X81280000Y-91440000D03*
%TD*%
D12*
%TO.C,J2*%
X81280000Y-96520000D03*
D13*
X81280000Y-93980000D03*
%TD*%
D12*
%TO.C,C1*%
X101600000Y-99060000D03*
D13*
X104140000Y-99060000D03*
%TD*%
D14*
%TO.C,A2*%
X86360000Y-78740000D03*
X86360000Y-81280000D03*
X86360000Y-83820000D03*
X86360000Y-86360000D03*
X86360000Y-88900000D03*
X86360000Y-91440000D03*
X86360000Y-93980000D03*
X101600000Y-93980000D03*
X101600000Y-91440000D03*
X101600000Y-88900000D03*
X101600000Y-86360000D03*
X101600000Y-83820000D03*
X101600000Y-81280000D03*
X101600000Y-78740000D03*
%TD*%
D12*
%TO.C,J3*%
X81280000Y-134620000D03*
D13*
X81280000Y-132080000D03*
%TD*%
D15*
%TO.C,Q1*%
X101600000Y-113000000D03*
D16*
X102870000Y-114270000D03*
X104140000Y-113000000D03*
%TD*%
%LPD*%
M02*
