%TF.GenerationSoftware,KiCad,Pcbnew,8.0.5*%
%TF.CreationDate,2024-11-23T17:52:30+00:00*%
%TF.ProjectId,DataGadget,44617461-4761-4646-9765-742e6b696361,rev?*%
%TF.SameCoordinates,Original*%
%TF.FileFunction,Copper,L1,Top*%
%TF.FilePolarity,Positive*%
%FSLAX46Y46*%
G04 Gerber Fmt 4.6, Leading zero omitted, Abs format (unit mm)*
G04 Created by KiCad (PCBNEW 8.0.5) date 2024-11-23 17:52:30*
%MOMM*%
%LPD*%
G01*
G04 APERTURE LIST*
G04 Aperture macros list*
%AMRoundRect*
0 Rectangle with rounded corners*
0 $1 Rounding radius*
0 $2 $3 $4 $5 $6 $7 $8 $9 X,Y pos of 4 corners*
0 Add a 4 corners polygon primitive as box body*
4,1,4,$2,$3,$4,$5,$6,$7,$8,$9,$2,$3,0*
0 Add four circle primitives for the rounded corners*
1,1,$1+$1,$2,$3*
1,1,$1+$1,$4,$5*
1,1,$1+$1,$6,$7*
1,1,$1+$1,$8,$9*
0 Add four rect primitives between the rounded corners*
20,1,$1+$1,$2,$3,$4,$5,0*
20,1,$1+$1,$4,$5,$6,$7,0*
20,1,$1+$1,$6,$7,$8,$9,0*
20,1,$1+$1,$8,$9,$2,$3,0*%
G04 Aperture macros list end*
%TA.AperFunction,ComponentPad*%
%ADD10R,1.700000X1.700000*%
%TD*%
%TA.AperFunction,ComponentPad*%
%ADD11O,1.700000X1.700000*%
%TD*%
%TA.AperFunction,SMDPad,CuDef*%
%ADD12O,2.000000X3.000000*%
%TD*%
%TA.AperFunction,SMDPad,CuDef*%
%ADD13RoundRect,0.152400X1.063600X0.609600X-1.063600X0.609600X-1.063600X-0.609600X1.063600X-0.609600X0*%
%TD*%
%TA.AperFunction,ComponentPad*%
%ADD14C,1.524000*%
%TD*%
%TA.AperFunction,SMDPad,CuDef*%
%ADD15RoundRect,0.152400X-1.063600X-0.609600X1.063600X-0.609600X1.063600X0.609600X-1.063600X0.609600X0*%
%TD*%
%TA.AperFunction,ComponentPad*%
%ADD16O,1.600000X1.200000*%
%TD*%
%TA.AperFunction,ComponentPad*%
%ADD17O,1.200000X1.200000*%
%TD*%
%TA.AperFunction,ViaPad*%
%ADD18C,0.600000*%
%TD*%
%TA.AperFunction,Conductor*%
%ADD19C,0.200000*%
%TD*%
%TA.AperFunction,Conductor*%
%ADD20C,0.500000*%
%TD*%
G04 APERTURE END LIST*
D10*
%TO.P,A1,1,GND*%
%TO.N,GND*%
X83820000Y-127000000D03*
D11*
%TO.P,A1,2,VCC*%
%TO.N,+3V3*%
X86360000Y-127000000D03*
%TO.P,A1,3,SCL*%
%TO.N,Net-(A1-SCL)*%
X88900000Y-127000000D03*
%TO.P,A1,4,SDA*%
%TO.N,Net-(A1-SDA)*%
X91440000Y-127000000D03*
%TD*%
D10*
%TO.P,J1,1,Pin_1*%
%TO.N,Net-(A2-A1_D1)*%
X104140000Y-127000000D03*
D11*
%TO.P,J1,2,Pin_2*%
%TO.N,Net-(A2-A2_D2)*%
X101600000Y-127000000D03*
%TO.P,J1,3,Pin_3*%
%TO.N,Net-(A2-A3_D3)*%
X99060000Y-127000000D03*
%TO.P,J1,4,Pin_4*%
%TO.N,GND*%
X96520000Y-127000000D03*
%TD*%
D10*
%TO.P,A3,1,3V3*%
%TO.N,+3V3*%
X96520000Y-101600000D03*
D11*
%TO.P,A3,2,CS*%
%TO.N,Net-(A2-A0_D0)*%
X96520000Y-104140000D03*
%TO.P,A3,3,MOSI*%
%TO.N,Net-(A2-MOSI_D10)*%
X96520000Y-106680000D03*
%TO.P,A3,4,CLK*%
%TO.N,Net-(A2-SCK_D8)*%
X96520000Y-109220000D03*
%TO.P,A3,5,MISO*%
%TO.N,Net-(A2-MISO_D9)*%
X96520000Y-111760000D03*
%TO.P,A3,6,GND*%
%TO.N,GND*%
X96520000Y-114300000D03*
%TD*%
D10*
%TO.P,BT1,1,+*%
%TO.N,Net-(BT1-+)*%
X81280000Y-119380000D03*
D11*
%TO.P,BT1,2,-*%
%TO.N,Net-(BT1--)*%
X81280000Y-121920000D03*
%TD*%
D10*
%TO.P,SW1,1,A*%
%TO.N,Net-(J2-Pin_2)*%
X81280000Y-86360000D03*
D11*
%TO.P,SW1,2,B*%
%TO.N,Net-(BT1-+)*%
X81280000Y-88900000D03*
%TO.P,SW1,3,C*%
%TO.N,unconnected-(SW1-C-Pad3)*%
X81280000Y-91440000D03*
%TD*%
D10*
%TO.P,J2,1,Pin_1*%
%TO.N,Net-(BT1--)*%
X81280000Y-96520000D03*
D11*
%TO.P,J2,2,Pin_2*%
%TO.N,Net-(J2-Pin_2)*%
X81280000Y-93980000D03*
%TD*%
D12*
%TO.P,J4,1,Pin_1*%
%TO.N,GND*%
X101600000Y-140500000D03*
%TO.P,J4,2,Pin_2*%
%TO.N,+3V3*%
X99060000Y-140500000D03*
%TO.P,J4,3,Pin_3*%
%TO.N,Net-(A1-SCL)*%
X96520000Y-140500000D03*
%TO.P,J4,4,Pin_4*%
%TO.N,Net-(A1-SDA)*%
X93980000Y-140500000D03*
%TO.P,J4,5,Pin_5*%
%TO.N,Net-(A2-MOSI_D10)*%
X91440000Y-140500000D03*
%TO.P,J4,6,Pin_6*%
%TO.N,Net-(A2-MISO_D9)*%
X88900000Y-140500000D03*
%TO.P,J4,7,Pin_7*%
%TO.N,Net-(A2-SCK_D8)*%
X86360000Y-140500000D03*
%TO.P,J4,8,Pin_8*%
%TO.N,Net-(A2-RX_D7)*%
X83820000Y-140500000D03*
%TD*%
D10*
%TO.P,C1,1*%
%TO.N,+3V3*%
X101600000Y-99060000D03*
D11*
%TO.P,C1,2*%
%TO.N,GND*%
X104140000Y-99060000D03*
%TD*%
D13*
%TO.P,A2,1,A0_D0*%
%TO.N,Net-(A2-A0_D0)*%
X85525000Y-78740000D03*
D14*
X86360000Y-78740000D03*
D13*
%TO.P,A2,2,A1_D1*%
%TO.N,Net-(A2-A1_D1)*%
X85525000Y-81280000D03*
D14*
X86360000Y-81280000D03*
D13*
%TO.P,A2,3,A2_D2*%
%TO.N,Net-(A2-A2_D2)*%
X85525000Y-83820000D03*
D14*
X86360000Y-83820000D03*
D13*
%TO.P,A2,4,A3_D3*%
%TO.N,Net-(A2-A3_D3)*%
X85525000Y-86360000D03*
D14*
X86360000Y-86360000D03*
D13*
%TO.P,A2,5,SDA_D4*%
%TO.N,Net-(A1-SDA)*%
X85525000Y-88900000D03*
D14*
X86360000Y-88900000D03*
D13*
%TO.P,A2,6,SCL_D5*%
%TO.N,Net-(A1-SCL)*%
X85525000Y-91440000D03*
D14*
X86360000Y-91440000D03*
D13*
%TO.P,A2,7,TX_D6*%
%TO.N,Net-(A2-TX_D6)*%
X85525000Y-93980000D03*
D14*
X86360000Y-93980000D03*
%TO.P,A2,8,RX_D7*%
%TO.N,Net-(A2-RX_D7)*%
X101600000Y-93980000D03*
D15*
X102435000Y-93980000D03*
D14*
%TO.P,A2,9,SCK_D8*%
%TO.N,Net-(A2-SCK_D8)*%
X101600000Y-91440000D03*
D15*
X102435000Y-91440000D03*
D14*
%TO.P,A2,10,MISO_D9*%
%TO.N,Net-(A2-MISO_D9)*%
X101600000Y-88900000D03*
D15*
X102435000Y-88900000D03*
D14*
%TO.P,A2,11,MOSI_D10*%
%TO.N,Net-(A2-MOSI_D10)*%
X101600000Y-86360000D03*
D15*
X102435000Y-86360000D03*
D14*
%TO.P,A2,12,3V3*%
%TO.N,+3V3*%
X101600000Y-83820000D03*
D15*
X102435000Y-83820000D03*
D14*
%TO.P,A2,13,GND*%
%TO.N,GND*%
X101600000Y-81280000D03*
D15*
X102435000Y-81280000D03*
D14*
%TO.P,A2,14,5V*%
%TO.N,unconnected-(A2-5V-Pad14)*%
X101600000Y-78740000D03*
D15*
X102435000Y-78740000D03*
%TD*%
D10*
%TO.P,J3,1,Pin_1*%
%TO.N,Net-(J3-Pin_1)*%
X81280000Y-134620000D03*
D11*
%TO.P,J3,2,Pin_2*%
%TO.N,GND*%
X81280000Y-132080000D03*
%TD*%
D16*
%TO.P,Q1,1,E*%
%TO.N,Net-(J3-Pin_1)*%
X101600000Y-113000000D03*
D17*
%TO.P,Q1,2,B*%
%TO.N,Net-(A2-TX_D6)*%
X102870000Y-114270000D03*
%TO.P,Q1,3,C*%
%TO.N,+3V3*%
X104140000Y-113000000D03*
%TD*%
D18*
%TO.N,Net-(A2-MISO_D9)*%
X88500000Y-118000000D03*
X95000000Y-124500000D03*
%TO.N,Net-(A2-TX_D6)*%
X99500000Y-104500000D03*
X101600000Y-96520000D03*
%TO.N,Net-(A2-SCK_D8)*%
X86360000Y-132080000D03*
X88900000Y-137160000D03*
%TO.N,Net-(A2-MOSI_D10)*%
X99060000Y-137160000D03*
%TO.N,Net-(A1-SCL)*%
X96520000Y-137160000D03*
%TO.N,Net-(A1-SDA)*%
X93980000Y-137160000D03*
%TD*%
D19*
%TO.N,Net-(A2-MISO_D9)*%
X97670000Y-110610000D02*
X96520000Y-111760000D01*
X97670000Y-108670000D02*
X97670000Y-110610000D01*
X97070000Y-108070000D02*
X97670000Y-108670000D01*
X88500000Y-113870000D02*
X94300000Y-108070000D01*
X95000000Y-133600000D02*
X95000000Y-124500000D01*
X94300000Y-108070000D02*
X97070000Y-108070000D01*
X93430000Y-135170000D02*
X95000000Y-133600000D01*
X88500000Y-118000000D02*
X88500000Y-113870000D01*
X88900000Y-139700000D02*
X88900000Y-140500000D01*
X93430000Y-135170000D02*
X88900000Y-139700000D01*
D20*
%TO.N,+3V3*%
X105440000Y-114300000D02*
X104140000Y-113000000D01*
X105440000Y-134560000D02*
X105440000Y-114300000D01*
X99060000Y-139500000D02*
X100560000Y-138000000D01*
X100560000Y-138000000D02*
X102000000Y-138000000D01*
X102000000Y-138000000D02*
X105440000Y-134560000D01*
X99060000Y-140500000D02*
X99060000Y-139500000D01*
%TO.N,Net-(J3-Pin_1)*%
X90380000Y-134620000D02*
X94000000Y-131000000D01*
X94000000Y-120600000D02*
X101600000Y-113000000D01*
X81280000Y-134620000D02*
X90380000Y-134620000D01*
X94000000Y-131000000D02*
X94000000Y-120600000D01*
D19*
%TO.N,Net-(A2-RX_D7)*%
X102361999Y-96606530D02*
X102361999Y-94741999D01*
X102361999Y-94741999D02*
X101600000Y-93980000D01*
X101848529Y-97120000D02*
X102361999Y-96606530D01*
X101351471Y-97120000D02*
X101848529Y-97120000D01*
X98611471Y-94380000D02*
X101351471Y-97120000D01*
X93580000Y-94380000D02*
X98611471Y-94380000D01*
X83820000Y-104140000D02*
X93580000Y-94380000D01*
X80130000Y-124696346D02*
X83820000Y-121006346D01*
X80130000Y-136810000D02*
X80130000Y-124696346D01*
X83820000Y-121006346D02*
X83820000Y-104140000D01*
X83820000Y-140500000D02*
X80130000Y-136810000D01*
%TO.N,Net-(A2-TX_D6)*%
X102870000Y-108370000D02*
X102870000Y-114270000D01*
X99500000Y-105000000D02*
X102870000Y-108370000D01*
X99500000Y-104500000D02*
X99500000Y-105000000D01*
X99060000Y-93980000D02*
X101600000Y-96520000D01*
X86360000Y-93980000D02*
X99060000Y-93980000D01*
%TO.N,Net-(A2-SCK_D8)*%
X93000000Y-112740000D02*
X96520000Y-109220000D01*
X93000000Y-130000000D02*
X93000000Y-112740000D01*
X92070000Y-130930000D02*
X93000000Y-130000000D01*
X87510000Y-130930000D02*
X92070000Y-130930000D01*
X86360000Y-132080000D02*
X87510000Y-130930000D01*
X86360000Y-139700000D02*
X88900000Y-137160000D01*
X86360000Y-140500000D02*
X86360000Y-139700000D01*
%TO.N,Net-(A2-MOSI_D10)*%
X98460000Y-136560000D02*
X99060000Y-137160000D01*
X93731471Y-136560000D02*
X98460000Y-136560000D01*
X91440000Y-138851471D02*
X93731471Y-136560000D01*
X91440000Y-140500000D02*
X91440000Y-138851471D01*
%TO.N,Net-(A1-SCL)*%
X96520000Y-140500000D02*
X96520000Y-137160000D01*
%TO.N,Net-(A1-SDA)*%
X93980000Y-140500000D02*
X93980000Y-137160000D01*
D20*
%TO.N,+3V3*%
X96520000Y-98980000D02*
X96520000Y-101600000D01*
X98500000Y-97000000D02*
X96520000Y-98980000D01*
X99500000Y-97000000D02*
X98500000Y-97000000D01*
X101560000Y-99060000D02*
X99500000Y-97000000D01*
X101600000Y-99060000D02*
X101560000Y-99060000D01*
X84500000Y-108500000D02*
X91400000Y-101600000D01*
X84500000Y-125140000D02*
X84500000Y-108500000D01*
X86360000Y-127000000D02*
X84500000Y-125140000D01*
X91400000Y-101600000D02*
X96520000Y-101600000D01*
X101100000Y-101600000D02*
X104140000Y-104640000D01*
X96520000Y-101600000D02*
X101100000Y-101600000D01*
X104140000Y-104640000D02*
X104140000Y-113000000D01*
X104101000Y-96559000D02*
X104101000Y-85486000D01*
X104101000Y-85486000D02*
X102435000Y-83820000D01*
X102435000Y-83820000D02*
X101600000Y-83820000D01*
X101600000Y-99060000D02*
X104101000Y-96559000D01*
%TO.N,Net-(BT1--)*%
X82580000Y-97820000D02*
X81280000Y-96520000D01*
X81280000Y-121920000D02*
X82580000Y-120620000D01*
X82580000Y-120620000D02*
X82580000Y-97820000D01*
%TO.N,Net-(J2-Pin_2)*%
X82580000Y-92680000D02*
X81280000Y-93980000D01*
X82580000Y-87660000D02*
X82580000Y-92680000D01*
X81280000Y-86360000D02*
X82580000Y-87660000D01*
%TO.N,Net-(BT1-+)*%
X79980000Y-90200000D02*
X81280000Y-88900000D01*
X79980000Y-118080000D02*
X79980000Y-90200000D01*
X81280000Y-119380000D02*
X79980000Y-118080000D01*
%TD*%
%TA.AperFunction,Conductor*%
%TO.N,GND*%
G36*
X104905546Y-73470185D02*
G01*
X104951301Y-73522989D01*
X104961245Y-73592147D01*
X104932220Y-73655703D01*
X104897526Y-73683554D01*
X104894785Y-73685037D01*
X104886493Y-73689524D01*
X104690257Y-73842261D01*
X104521833Y-74025217D01*
X104385826Y-74233393D01*
X104285936Y-74461118D01*
X104224892Y-74702175D01*
X104224890Y-74702187D01*
X104204357Y-74949994D01*
X104204357Y-74950005D01*
X104224890Y-75197812D01*
X104224892Y-75197824D01*
X104285936Y-75438881D01*
X104385826Y-75666606D01*
X104521833Y-75874782D01*
X104521836Y-75874785D01*
X104690256Y-76057738D01*
X104886491Y-76210474D01*
X105105190Y-76328828D01*
X105340386Y-76409571D01*
X105585665Y-76450500D01*
X105834335Y-76450500D01*
X106079614Y-76409571D01*
X106314810Y-76328828D01*
X106533509Y-76210474D01*
X106729744Y-76057738D01*
X106898164Y-75874785D01*
X106981691Y-75746937D01*
X107034837Y-75701580D01*
X107104069Y-75692156D01*
X107167404Y-75721658D01*
X107204736Y-75780718D01*
X107209500Y-75814758D01*
X107209500Y-140085241D01*
X107189815Y-140152280D01*
X107137011Y-140198035D01*
X107067853Y-140207979D01*
X107004297Y-140178954D01*
X106981691Y-140153063D01*
X106959620Y-140119281D01*
X106898164Y-140025215D01*
X106729744Y-139842262D01*
X106533509Y-139689526D01*
X106533507Y-139689525D01*
X106533506Y-139689524D01*
X106314811Y-139571172D01*
X106314802Y-139571169D01*
X106079616Y-139490429D01*
X105834335Y-139449500D01*
X105585665Y-139449500D01*
X105340383Y-139490429D01*
X105105197Y-139571169D01*
X105105188Y-139571172D01*
X104886493Y-139689524D01*
X104690257Y-139842261D01*
X104521833Y-140025217D01*
X104385826Y-140233393D01*
X104285936Y-140461118D01*
X104224892Y-140702175D01*
X104224890Y-140702187D01*
X104204357Y-140949994D01*
X104204357Y-140950005D01*
X104224890Y-141197812D01*
X104224892Y-141197824D01*
X104285936Y-141438881D01*
X104385826Y-141666606D01*
X104521833Y-141874782D01*
X104544848Y-141899783D01*
X104690256Y-142057738D01*
X104886491Y-142210474D01*
X104897525Y-142216445D01*
X104947115Y-142265665D01*
X104962223Y-142333881D01*
X104938053Y-142399437D01*
X104882277Y-142441518D01*
X104838507Y-142449500D01*
X102538519Y-142449500D01*
X102471480Y-142429815D01*
X102425725Y-142377011D01*
X102415781Y-142307853D01*
X102444806Y-142244297D01*
X102465634Y-142225182D01*
X102577180Y-142144138D01*
X102577186Y-142144133D01*
X102733883Y-141987436D01*
X102733883Y-141987435D01*
X101334128Y-140587680D01*
X101300643Y-140526357D01*
X101302528Y-140499999D01*
X101953553Y-140499999D01*
X101953553Y-140500001D01*
X102999728Y-141546176D01*
X103063065Y-141351245D01*
X103100000Y-141118052D01*
X103100000Y-139881947D01*
X103063065Y-139648751D01*
X102999729Y-139453823D01*
X102999728Y-139453822D01*
X101953553Y-140499999D01*
X101302528Y-140499999D01*
X101305627Y-140456665D01*
X101334128Y-140412318D01*
X101600000Y-140146447D01*
X102733883Y-139012564D01*
X102733883Y-139012562D01*
X102577187Y-138855867D01*
X102577185Y-138855866D01*
X102478127Y-138783895D01*
X102435462Y-138728565D01*
X102429483Y-138658951D01*
X102462089Y-138597156D01*
X102474028Y-138587221D01*
X102473701Y-138586822D01*
X102478410Y-138582955D01*
X102478416Y-138582952D01*
X106022952Y-135038415D01*
X106089903Y-134938215D01*
X106105084Y-134915495D01*
X106152392Y-134801284D01*
X106161659Y-134778912D01*
X106190500Y-134633917D01*
X106190500Y-134486082D01*
X106190500Y-114226082D01*
X106182573Y-114186233D01*
X106161659Y-114081088D01*
X106128518Y-114001080D01*
X106128518Y-114001079D01*
X106105085Y-113944506D01*
X106105083Y-113944503D01*
X106022954Y-113821588D01*
X106022953Y-113821587D01*
X106022951Y-113821584D01*
X105918416Y-113717049D01*
X105281352Y-113079985D01*
X105247867Y-113018662D01*
X105245562Y-113003745D01*
X105226397Y-112796917D01*
X105170582Y-112600750D01*
X105159032Y-112577555D01*
X105089458Y-112437830D01*
X105079673Y-112418179D01*
X104956764Y-112255421D01*
X104930960Y-112231897D01*
X104894680Y-112172185D01*
X104890500Y-112140261D01*
X104890500Y-104566079D01*
X104861659Y-104421092D01*
X104861658Y-104421091D01*
X104861658Y-104421087D01*
X104861656Y-104421082D01*
X104805087Y-104284511D01*
X104805080Y-104284498D01*
X104722952Y-104161585D01*
X104701366Y-104139999D01*
X104618416Y-104057049D01*
X101578416Y-101017048D01*
X101578415Y-101017047D01*
X101578413Y-101017045D01*
X101529179Y-100984150D01*
X101496355Y-100962218D01*
X101455495Y-100934916D01*
X101455494Y-100934915D01*
X101455492Y-100934914D01*
X101455490Y-100934913D01*
X101318917Y-100878343D01*
X101318907Y-100878340D01*
X101173920Y-100849500D01*
X101173918Y-100849500D01*
X97994499Y-100849500D01*
X97927460Y-100829815D01*
X97881705Y-100777011D01*
X97870499Y-100725500D01*
X97870499Y-100702129D01*
X97870498Y-100702123D01*
X97870497Y-100702116D01*
X97864091Y-100642517D01*
X97813796Y-100507669D01*
X97813795Y-100507668D01*
X97813793Y-100507664D01*
X97727547Y-100392455D01*
X97727544Y-100392452D01*
X97612335Y-100306206D01*
X97612328Y-100306202D01*
X97477482Y-100255908D01*
X97477483Y-100255908D01*
X97417883Y-100249501D01*
X97417881Y-100249500D01*
X97417873Y-100249500D01*
X97417865Y-100249500D01*
X97394500Y-100249500D01*
X97327461Y-100229815D01*
X97281706Y-100177011D01*
X97270500Y-100125500D01*
X97270500Y-99342230D01*
X97290185Y-99275191D01*
X97306819Y-99254549D01*
X98774549Y-97786819D01*
X98835872Y-97753334D01*
X98862230Y-97750500D01*
X99137770Y-97750500D01*
X99204809Y-97770185D01*
X99225451Y-97786819D01*
X100213181Y-98774549D01*
X100246666Y-98835872D01*
X100249500Y-98862230D01*
X100249500Y-99957870D01*
X100249501Y-99957876D01*
X100255908Y-100017483D01*
X100306202Y-100152328D01*
X100306206Y-100152335D01*
X100392452Y-100267544D01*
X100392455Y-100267547D01*
X100507664Y-100353793D01*
X100507671Y-100353797D01*
X100642517Y-100404091D01*
X100642516Y-100404091D01*
X100649444Y-100404835D01*
X100702127Y-100410500D01*
X102497872Y-100410499D01*
X102557483Y-100404091D01*
X102692331Y-100353796D01*
X102807546Y-100267546D01*
X102893796Y-100152331D01*
X102943002Y-100020401D01*
X102984872Y-99964468D01*
X103050337Y-99940050D01*
X103118610Y-99954901D01*
X103146865Y-99976053D01*
X103268917Y-100098105D01*
X103462421Y-100233600D01*
X103676507Y-100333429D01*
X103676516Y-100333433D01*
X103890000Y-100390634D01*
X103890000Y-99493012D01*
X103947007Y-99525925D01*
X104074174Y-99560000D01*
X104205826Y-99560000D01*
X104332993Y-99525925D01*
X104390000Y-99493012D01*
X104390000Y-100390633D01*
X104603483Y-100333433D01*
X104603492Y-100333429D01*
X104817578Y-100233600D01*
X105011082Y-100098105D01*
X105178105Y-99931082D01*
X105313600Y-99737578D01*
X105413429Y-99523492D01*
X105413432Y-99523486D01*
X105470636Y-99310000D01*
X104573012Y-99310000D01*
X104605925Y-99252993D01*
X104640000Y-99125826D01*
X104640000Y-98994174D01*
X104605925Y-98867007D01*
X104573012Y-98810000D01*
X105470636Y-98810000D01*
X105470635Y-98809999D01*
X105413432Y-98596513D01*
X105413429Y-98596507D01*
X105313600Y-98382422D01*
X105313599Y-98382420D01*
X105178113Y-98188926D01*
X105178108Y-98188920D01*
X105011082Y-98021894D01*
X104817578Y-97886399D01*
X104603492Y-97786570D01*
X104603483Y-97786566D01*
X104375326Y-97725432D01*
X104375316Y-97725430D01*
X104291362Y-97718085D01*
X104226293Y-97692632D01*
X104185315Y-97636041D01*
X104181437Y-97566279D01*
X104214485Y-97506881D01*
X104683951Y-97037416D01*
X104766084Y-96914495D01*
X104822658Y-96777913D01*
X104832096Y-96730462D01*
X104851500Y-96632920D01*
X104851500Y-85412079D01*
X104822659Y-85267092D01*
X104822658Y-85267091D01*
X104822658Y-85267087D01*
X104766084Y-85130505D01*
X104732062Y-85079587D01*
X104732062Y-85079586D01*
X104683950Y-85007581D01*
X104187819Y-84511450D01*
X104154334Y-84450127D01*
X104151500Y-84423769D01*
X104151500Y-83144473D01*
X104151499Y-83144458D01*
X104148587Y-83107453D01*
X104148586Y-83107447D01*
X104102565Y-82949045D01*
X104102564Y-82949042D01*
X104102564Y-82949041D01*
X104018592Y-82807053D01*
X104018590Y-82807051D01*
X104018587Y-82807047D01*
X103901952Y-82690412D01*
X103901948Y-82690409D01*
X103901947Y-82690408D01*
X103844511Y-82656440D01*
X103796829Y-82605371D01*
X103784326Y-82536630D01*
X103810972Y-82472040D01*
X103844514Y-82442976D01*
X103901637Y-82409193D01*
X103901643Y-82409189D01*
X104018189Y-82292643D01*
X104018196Y-82292634D01*
X104102102Y-82150756D01*
X104102103Y-82150753D01*
X104148088Y-81992473D01*
X104148089Y-81992467D01*
X104150999Y-81955488D01*
X104150999Y-80604530D01*
X104150998Y-80604508D01*
X104148089Y-80567533D01*
X104102102Y-80409242D01*
X104018196Y-80267365D01*
X104018189Y-80267356D01*
X103901643Y-80150810D01*
X103901634Y-80150803D01*
X103844513Y-80117022D01*
X103796829Y-80065953D01*
X103784326Y-79997211D01*
X103810972Y-79932622D01*
X103844514Y-79903558D01*
X103901941Y-79869596D01*
X103901942Y-79869594D01*
X103901947Y-79869592D01*
X104018592Y-79752947D01*
X104102564Y-79610959D01*
X104148587Y-79452548D01*
X104151500Y-79415534D01*
X104151500Y-78064466D01*
X104148587Y-78027452D01*
X104102564Y-77869041D01*
X104018592Y-77727053D01*
X104018590Y-77727051D01*
X104018587Y-77727047D01*
X103901952Y-77610412D01*
X103901943Y-77610405D01*
X103759957Y-77526435D01*
X103759954Y-77526434D01*
X103601552Y-77480413D01*
X103601546Y-77480412D01*
X103564541Y-77477500D01*
X103564534Y-77477500D01*
X101660540Y-77477500D01*
X101649733Y-77477028D01*
X101625750Y-77474929D01*
X101600001Y-77472677D01*
X101599999Y-77472677D01*
X101574249Y-77474929D01*
X101550266Y-77477028D01*
X101539460Y-77477500D01*
X101305458Y-77477500D01*
X101268453Y-77480412D01*
X101268447Y-77480413D01*
X101110045Y-77526434D01*
X101110042Y-77526435D01*
X100968056Y-77610405D01*
X100968046Y-77610413D01*
X100872792Y-77705666D01*
X100856237Y-77719558D01*
X100785382Y-77769172D01*
X100629172Y-77925381D01*
X100502466Y-78106338D01*
X100502465Y-78106340D01*
X100409107Y-78306548D01*
X100409104Y-78306554D01*
X100351930Y-78519929D01*
X100351929Y-78519937D01*
X100332677Y-78739997D01*
X100332677Y-78740002D01*
X100351929Y-78960062D01*
X100351930Y-78960070D01*
X100409104Y-79173445D01*
X100409105Y-79173447D01*
X100409106Y-79173450D01*
X100502466Y-79373662D01*
X100502468Y-79373666D01*
X100557705Y-79452552D01*
X100629174Y-79554620D01*
X100785380Y-79710826D01*
X100856246Y-79760446D01*
X100872789Y-79774328D01*
X100968053Y-79869592D01*
X100968054Y-79869593D01*
X100968056Y-79869594D01*
X101025486Y-79903558D01*
X101073170Y-79954627D01*
X101085673Y-80023369D01*
X101059028Y-80087958D01*
X101025487Y-80117021D01*
X100968370Y-80150800D01*
X100968357Y-80150810D01*
X100896360Y-80222806D01*
X100896360Y-80222807D01*
X101515905Y-80842352D01*
X101428429Y-80865792D01*
X101327070Y-80924311D01*
X101244311Y-81007070D01*
X101185792Y-81108429D01*
X101162352Y-81195905D01*
X100548258Y-80581811D01*
X100502901Y-80646590D01*
X100409579Y-80846720D01*
X100409575Y-80846729D01*
X100352426Y-81060013D01*
X100352424Y-81060023D01*
X100333179Y-81279999D01*
X100333179Y-81280000D01*
X100352424Y-81499976D01*
X100352426Y-81499986D01*
X100409575Y-81713270D01*
X100409580Y-81713284D01*
X100502898Y-81913405D01*
X100502901Y-81913411D01*
X100548258Y-81978187D01*
X100548259Y-81978188D01*
X101162352Y-81364094D01*
X101185792Y-81451571D01*
X101244311Y-81552930D01*
X101327070Y-81635689D01*
X101428429Y-81694208D01*
X101515904Y-81717646D01*
X100896360Y-82337191D01*
X100968360Y-82409192D01*
X100968364Y-82409195D01*
X101025486Y-82442977D01*
X101073169Y-82494046D01*
X101085673Y-82562788D01*
X101059028Y-82627377D01*
X101025487Y-82656440D01*
X100968058Y-82690403D01*
X100968046Y-82690413D01*
X100872792Y-82785666D01*
X100856237Y-82799558D01*
X100785382Y-82849172D01*
X100629172Y-83005381D01*
X100502466Y-83186338D01*
X100502465Y-83186340D01*
X100409107Y-83386548D01*
X100409104Y-83386554D01*
X100351930Y-83599929D01*
X100351929Y-83599937D01*
X100332677Y-83819997D01*
X100332677Y-83820002D01*
X100351929Y-84040062D01*
X100351930Y-84040070D01*
X100409104Y-84253445D01*
X100409105Y-84253447D01*
X100409106Y-84253450D01*
X100488527Y-84423769D01*
X100502466Y-84453662D01*
X100502468Y-84453666D01*
X100557705Y-84532552D01*
X100629174Y-84634620D01*
X100785380Y-84790826D01*
X100856246Y-84840446D01*
X100872789Y-84854328D01*
X100968053Y-84949592D01*
X101024996Y-84983268D01*
X101072679Y-85034338D01*
X101085182Y-85103079D01*
X101058536Y-85167669D01*
X101024996Y-85196732D01*
X100968053Y-85230408D01*
X100968046Y-85230413D01*
X100872792Y-85325666D01*
X100856237Y-85339558D01*
X100785382Y-85389172D01*
X100629172Y-85545381D01*
X100502466Y-85726338D01*
X100502465Y-85726340D01*
X100409107Y-85926548D01*
X100409104Y-85926554D01*
X100351930Y-86139929D01*
X100351929Y-86139937D01*
X100332677Y-86359997D01*
X100332677Y-86360002D01*
X100351929Y-86580062D01*
X100351930Y-86580070D01*
X100409104Y-86793445D01*
X100409105Y-86793447D01*
X100409106Y-86793450D01*
X100502466Y-86993662D01*
X100502468Y-86993666D01*
X100629170Y-87174615D01*
X100629174Y-87174620D01*
X100785380Y-87330826D01*
X100856246Y-87380446D01*
X100872789Y-87394328D01*
X100968053Y-87489592D01*
X101024996Y-87523268D01*
X101072679Y-87574338D01*
X101085182Y-87643079D01*
X101058536Y-87707669D01*
X101024996Y-87736732D01*
X100968053Y-87770408D01*
X100968046Y-87770413D01*
X100872792Y-87865666D01*
X100856237Y-87879558D01*
X100785382Y-87929172D01*
X100629172Y-88085381D01*
X100502466Y-88266338D01*
X100502465Y-88266340D01*
X100409107Y-88466548D01*
X100409104Y-88466554D01*
X100351930Y-88679929D01*
X100351929Y-88679937D01*
X100332677Y-88899997D01*
X100332677Y-88900002D01*
X100351929Y-89120062D01*
X100351930Y-89120070D01*
X100409104Y-89333445D01*
X100409105Y-89333447D01*
X100409106Y-89333450D01*
X100502466Y-89533662D01*
X100502468Y-89533666D01*
X100557705Y-89612552D01*
X100629174Y-89714620D01*
X100785380Y-89870826D01*
X100856246Y-89920446D01*
X100872789Y-89934328D01*
X100968053Y-90029592D01*
X101024996Y-90063268D01*
X101072679Y-90114338D01*
X101085182Y-90183079D01*
X101058536Y-90247669D01*
X101024996Y-90276732D01*
X100968053Y-90310408D01*
X100968046Y-90310413D01*
X100872792Y-90405666D01*
X100856237Y-90419558D01*
X100785382Y-90469172D01*
X100629172Y-90625381D01*
X100502466Y-90806338D01*
X100502465Y-90806340D01*
X100409107Y-91006548D01*
X100409104Y-91006554D01*
X100351930Y-91219929D01*
X100351929Y-91219937D01*
X100332677Y-91439997D01*
X100332677Y-91440002D01*
X100351929Y-91660062D01*
X100351930Y-91660070D01*
X100409104Y-91873445D01*
X100409105Y-91873447D01*
X100409106Y-91873450D01*
X100502466Y-92073662D01*
X100502468Y-92073666D01*
X100557705Y-92152552D01*
X100629174Y-92254620D01*
X100785380Y-92410826D01*
X100856246Y-92460446D01*
X100872789Y-92474328D01*
X100968053Y-92569592D01*
X101024996Y-92603268D01*
X101072679Y-92654338D01*
X101085182Y-92723079D01*
X101058536Y-92787669D01*
X101024996Y-92816732D01*
X100968053Y-92850408D01*
X100968046Y-92850413D01*
X100872792Y-92945666D01*
X100856237Y-92959558D01*
X100785382Y-93009172D01*
X100629172Y-93165381D01*
X100502466Y-93346338D01*
X100502465Y-93346340D01*
X100409107Y-93546548D01*
X100409104Y-93546554D01*
X100351930Y-93759929D01*
X100351929Y-93759937D01*
X100332677Y-93979997D01*
X100332677Y-93980002D01*
X100343582Y-94104650D01*
X100329815Y-94173150D01*
X100281200Y-94223333D01*
X100213171Y-94239266D01*
X100147328Y-94215890D01*
X100132373Y-94203138D01*
X99547590Y-93618355D01*
X99547588Y-93618352D01*
X99428717Y-93499481D01*
X99428716Y-93499480D01*
X99341904Y-93449360D01*
X99341904Y-93449359D01*
X99341900Y-93449358D01*
X99291785Y-93420423D01*
X99139057Y-93379499D01*
X98980943Y-93379499D01*
X98973347Y-93379499D01*
X98973331Y-93379500D01*
X87545304Y-93379500D01*
X87478265Y-93359815D01*
X87443729Y-93326623D01*
X87330827Y-93165381D01*
X87274044Y-93108598D01*
X87174620Y-93009174D01*
X87174616Y-93009171D01*
X87174615Y-93009170D01*
X87103761Y-92959558D01*
X87087208Y-92945669D01*
X86991947Y-92850408D01*
X86935003Y-92816731D01*
X86887321Y-92765663D01*
X86874817Y-92696921D01*
X86901462Y-92632332D01*
X86935004Y-92603268D01*
X86991947Y-92569592D01*
X87087210Y-92474327D01*
X87103756Y-92460443D01*
X87174620Y-92410826D01*
X87330826Y-92254620D01*
X87457534Y-92073662D01*
X87550894Y-91873450D01*
X87608070Y-91660068D01*
X87627323Y-91440000D01*
X87608070Y-91219932D01*
X87550894Y-91006550D01*
X87457534Y-90806339D01*
X87330826Y-90625380D01*
X87174620Y-90469174D01*
X87174616Y-90469171D01*
X87174615Y-90469170D01*
X87103761Y-90419558D01*
X87087208Y-90405669D01*
X86991947Y-90310408D01*
X86935003Y-90276731D01*
X86887321Y-90225663D01*
X86874817Y-90156921D01*
X86901462Y-90092332D01*
X86935004Y-90063268D01*
X86991947Y-90029592D01*
X87087210Y-89934327D01*
X87103756Y-89920443D01*
X87174620Y-89870826D01*
X87330826Y-89714620D01*
X87457534Y-89533662D01*
X87550894Y-89333450D01*
X87608070Y-89120068D01*
X87627323Y-88900000D01*
X87608070Y-88679932D01*
X87550894Y-88466550D01*
X87457534Y-88266339D01*
X87330826Y-88085380D01*
X87174620Y-87929174D01*
X87174616Y-87929171D01*
X87174615Y-87929170D01*
X87103761Y-87879558D01*
X87087208Y-87865669D01*
X86991947Y-87770408D01*
X86935003Y-87736731D01*
X86887321Y-87685663D01*
X86874817Y-87616921D01*
X86901462Y-87552332D01*
X86935004Y-87523268D01*
X86991947Y-87489592D01*
X87087210Y-87394327D01*
X87103756Y-87380443D01*
X87174620Y-87330826D01*
X87330826Y-87174620D01*
X87457534Y-86993662D01*
X87550894Y-86793450D01*
X87608070Y-86580068D01*
X87627323Y-86360000D01*
X87608070Y-86139932D01*
X87550894Y-85926550D01*
X87457534Y-85726339D01*
X87330826Y-85545380D01*
X87174620Y-85389174D01*
X87174616Y-85389171D01*
X87174615Y-85389170D01*
X87103761Y-85339558D01*
X87087208Y-85325669D01*
X86991947Y-85230408D01*
X86935003Y-85196731D01*
X86887321Y-85145663D01*
X86874817Y-85076921D01*
X86901462Y-85012332D01*
X86935004Y-84983268D01*
X86991947Y-84949592D01*
X87087210Y-84854327D01*
X87103756Y-84840443D01*
X87174620Y-84790826D01*
X87330826Y-84634620D01*
X87457534Y-84453662D01*
X87550894Y-84253450D01*
X87608070Y-84040068D01*
X87627323Y-83820000D01*
X87608070Y-83599932D01*
X87550894Y-83386550D01*
X87457534Y-83186339D01*
X87330826Y-83005380D01*
X87174620Y-82849174D01*
X87174616Y-82849171D01*
X87174615Y-82849170D01*
X87103761Y-82799558D01*
X87087208Y-82785669D01*
X86991947Y-82690408D01*
X86935003Y-82656731D01*
X86887321Y-82605663D01*
X86874817Y-82536921D01*
X86901462Y-82472332D01*
X86935004Y-82443268D01*
X86935498Y-82442976D01*
X86991947Y-82409592D01*
X87087210Y-82314327D01*
X87103756Y-82300443D01*
X87174620Y-82250826D01*
X87330826Y-82094620D01*
X87457534Y-81913662D01*
X87550894Y-81713450D01*
X87608070Y-81500068D01*
X87627323Y-81280000D01*
X87608070Y-81059932D01*
X87550894Y-80846550D01*
X87457534Y-80646339D01*
X87330826Y-80465380D01*
X87174620Y-80309174D01*
X87174616Y-80309171D01*
X87174615Y-80309170D01*
X87103761Y-80259558D01*
X87087208Y-80245669D01*
X86991947Y-80150408D01*
X86935003Y-80116731D01*
X86887321Y-80065663D01*
X86874817Y-79996921D01*
X86901462Y-79932332D01*
X86935004Y-79903268D01*
X86991947Y-79869592D01*
X87087210Y-79774327D01*
X87103756Y-79760443D01*
X87174620Y-79710826D01*
X87330826Y-79554620D01*
X87457534Y-79373662D01*
X87550894Y-79173450D01*
X87608070Y-78960068D01*
X87627323Y-78740000D01*
X87608070Y-78519932D01*
X87550894Y-78306550D01*
X87457534Y-78106339D01*
X87330826Y-77925380D01*
X87174620Y-77769174D01*
X87174616Y-77769171D01*
X87174615Y-77769170D01*
X87103761Y-77719558D01*
X87087208Y-77705669D01*
X86991947Y-77610408D01*
X86991946Y-77610407D01*
X86991943Y-77610405D01*
X86849957Y-77526435D01*
X86849954Y-77526434D01*
X86691552Y-77480413D01*
X86691546Y-77480412D01*
X86654541Y-77477500D01*
X86654534Y-77477500D01*
X86420540Y-77477500D01*
X86409733Y-77477028D01*
X86385750Y-77474929D01*
X86360001Y-77472677D01*
X86359999Y-77472677D01*
X86334249Y-77474929D01*
X86310266Y-77477028D01*
X86299460Y-77477500D01*
X84395458Y-77477500D01*
X84358453Y-77480412D01*
X84358447Y-77480413D01*
X84200045Y-77526434D01*
X84200042Y-77526435D01*
X84058056Y-77610405D01*
X84058047Y-77610412D01*
X83941412Y-77727047D01*
X83941405Y-77727056D01*
X83857435Y-77869042D01*
X83857434Y-77869045D01*
X83811413Y-78027447D01*
X83811412Y-78027453D01*
X83808500Y-78064458D01*
X83808500Y-79415541D01*
X83811412Y-79452546D01*
X83811413Y-79452552D01*
X83857434Y-79610954D01*
X83857435Y-79610957D01*
X83941405Y-79752943D01*
X83941412Y-79752952D01*
X84058047Y-79869587D01*
X84058050Y-79869589D01*
X84058053Y-79869592D01*
X84114996Y-79903268D01*
X84162679Y-79954338D01*
X84175182Y-80023079D01*
X84148536Y-80087669D01*
X84114996Y-80116731D01*
X84058056Y-80150406D01*
X84058053Y-80150408D01*
X84058047Y-80150412D01*
X83941412Y-80267047D01*
X83941405Y-80267056D01*
X83857435Y-80409042D01*
X83857434Y-80409045D01*
X83811413Y-80567447D01*
X83811412Y-80567453D01*
X83808500Y-80604458D01*
X83808500Y-81955541D01*
X83811412Y-81992546D01*
X83811413Y-81992552D01*
X83857434Y-82150954D01*
X83857435Y-82150957D01*
X83941405Y-82292943D01*
X83941412Y-82292952D01*
X84058047Y-82409587D01*
X84058050Y-82409589D01*
X84058053Y-82409592D01*
X84114502Y-82442976D01*
X84114996Y-82443268D01*
X84162679Y-82494338D01*
X84175182Y-82563079D01*
X84148536Y-82627669D01*
X84114996Y-82656732D01*
X84058053Y-82690408D01*
X84058047Y-82690412D01*
X83941412Y-82807047D01*
X83941405Y-82807056D01*
X83857435Y-82949042D01*
X83857434Y-82949045D01*
X83811413Y-83107447D01*
X83811412Y-83107453D01*
X83808500Y-83144458D01*
X83808500Y-84495541D01*
X83811412Y-84532546D01*
X83811413Y-84532552D01*
X83857434Y-84690954D01*
X83857435Y-84690957D01*
X83941405Y-84832943D01*
X83941412Y-84832952D01*
X84058047Y-84949587D01*
X84058050Y-84949589D01*
X84058053Y-84949592D01*
X84114996Y-84983268D01*
X84162679Y-85034338D01*
X84175182Y-85103079D01*
X84148536Y-85167669D01*
X84114996Y-85196732D01*
X84058053Y-85230408D01*
X84058047Y-85230412D01*
X83941412Y-85347047D01*
X83941405Y-85347056D01*
X83857435Y-85489042D01*
X83857434Y-85489045D01*
X83811413Y-85647447D01*
X83811412Y-85647453D01*
X83808500Y-85684458D01*
X83808500Y-87035541D01*
X83811412Y-87072546D01*
X83811413Y-87072552D01*
X83857434Y-87230954D01*
X83857435Y-87230957D01*
X83941405Y-87372943D01*
X83941412Y-87372952D01*
X84058047Y-87489587D01*
X84058050Y-87489589D01*
X84058053Y-87489592D01*
X84114996Y-87523268D01*
X84162679Y-87574338D01*
X84175182Y-87643079D01*
X84148536Y-87707669D01*
X84114996Y-87736732D01*
X84058053Y-87770408D01*
X84058047Y-87770412D01*
X83941412Y-87887047D01*
X83941405Y-87887056D01*
X83857435Y-88029042D01*
X83857434Y-88029045D01*
X83811413Y-88187447D01*
X83811412Y-88187453D01*
X83808500Y-88224458D01*
X83808500Y-89575541D01*
X83811412Y-89612546D01*
X83811413Y-89612552D01*
X83857434Y-89770954D01*
X83857435Y-89770957D01*
X83857436Y-89770959D01*
X83876218Y-89802718D01*
X83941405Y-89912943D01*
X83941412Y-89912952D01*
X84058047Y-90029587D01*
X84058050Y-90029589D01*
X84058053Y-90029592D01*
X84114996Y-90063268D01*
X84162679Y-90114338D01*
X84175182Y-90183079D01*
X84148536Y-90247669D01*
X84114996Y-90276732D01*
X84058053Y-90310408D01*
X84058047Y-90310412D01*
X83941412Y-90427047D01*
X83941405Y-90427056D01*
X83857435Y-90569042D01*
X83857434Y-90569045D01*
X83811413Y-90727447D01*
X83811412Y-90727453D01*
X83808500Y-90764458D01*
X83808500Y-92115541D01*
X83811412Y-92152546D01*
X83811413Y-92152552D01*
X83857434Y-92310954D01*
X83857435Y-92310957D01*
X83941405Y-92452943D01*
X83941412Y-92452952D01*
X84058047Y-92569587D01*
X84058050Y-92569589D01*
X84058053Y-92569592D01*
X84114996Y-92603268D01*
X84162679Y-92654338D01*
X84175182Y-92723079D01*
X84148536Y-92787669D01*
X84114996Y-92816732D01*
X84058053Y-92850408D01*
X84058047Y-92850412D01*
X83941412Y-92967047D01*
X83941405Y-92967056D01*
X83857435Y-93109042D01*
X83857434Y-93109045D01*
X83811413Y-93267447D01*
X83811412Y-93267453D01*
X83808500Y-93304458D01*
X83808500Y-94655541D01*
X83811412Y-94692546D01*
X83811413Y-94692552D01*
X83857434Y-94850954D01*
X83857435Y-94850957D01*
X83857436Y-94850959D01*
X83876218Y-94882718D01*
X83941405Y-94992943D01*
X83941412Y-94992952D01*
X84058047Y-95109587D01*
X84058051Y-95109590D01*
X84058053Y-95109592D01*
X84200041Y-95193564D01*
X84218022Y-95198788D01*
X84358447Y-95239586D01*
X84358450Y-95239586D01*
X84358452Y-95239587D01*
X84395466Y-95242500D01*
X86299460Y-95242500D01*
X86310266Y-95242971D01*
X86334249Y-95245070D01*
X86359999Y-95247323D01*
X86360000Y-95247323D01*
X86360001Y-95247323D01*
X86385750Y-95245070D01*
X86409733Y-95242971D01*
X86420540Y-95242500D01*
X86654526Y-95242500D01*
X86654534Y-95242500D01*
X86691548Y-95239587D01*
X86691550Y-95239586D01*
X86691552Y-95239586D01*
X86737619Y-95226202D01*
X86849959Y-95193564D01*
X86991947Y-95109592D01*
X87087210Y-95014327D01*
X87103756Y-95000443D01*
X87174620Y-94950826D01*
X87330826Y-94794620D01*
X87407196Y-94685550D01*
X87443730Y-94633377D01*
X87498307Y-94589752D01*
X87545305Y-94580500D01*
X92230903Y-94580500D01*
X92297942Y-94600185D01*
X92343697Y-94652989D01*
X92353641Y-94722147D01*
X92324616Y-94785703D01*
X92318584Y-94792180D01*
X87857771Y-99252993D01*
X83542181Y-103568583D01*
X83480858Y-103602068D01*
X83411166Y-103597084D01*
X83355233Y-103555212D01*
X83330816Y-103489748D01*
X83330500Y-103480902D01*
X83330500Y-97746079D01*
X83303895Y-97612332D01*
X83303893Y-97612323D01*
X83301659Y-97601088D01*
X83268278Y-97520501D01*
X83268278Y-97520500D01*
X83245085Y-97464507D01*
X83245080Y-97464498D01*
X83172246Y-97355495D01*
X83172245Y-97355493D01*
X83162954Y-97341588D01*
X83162950Y-97341583D01*
X82666818Y-96845451D01*
X82633333Y-96784128D01*
X82630499Y-96757770D01*
X82630499Y-95622129D01*
X82630498Y-95622123D01*
X82624091Y-95562516D01*
X82573797Y-95427671D01*
X82573793Y-95427664D01*
X82487547Y-95312455D01*
X82487544Y-95312452D01*
X82372335Y-95226206D01*
X82372328Y-95226202D01*
X82240917Y-95177189D01*
X82184983Y-95135318D01*
X82160566Y-95069853D01*
X82175418Y-95001580D01*
X82196563Y-94973332D01*
X82318495Y-94851401D01*
X82454035Y-94657830D01*
X82553903Y-94443663D01*
X82615063Y-94215408D01*
X82635659Y-93980000D01*
X82617022Y-93766984D01*
X82630788Y-93698485D01*
X82652865Y-93668500D01*
X83162952Y-93158415D01*
X83196238Y-93108599D01*
X83245084Y-93035495D01*
X83264550Y-92988500D01*
X83284016Y-92941506D01*
X83301657Y-92898916D01*
X83301659Y-92898912D01*
X83330500Y-92753917D01*
X83330500Y-92606082D01*
X83330500Y-87586082D01*
X83326812Y-87567544D01*
X83324964Y-87558254D01*
X83322197Y-87544341D01*
X83301659Y-87441088D01*
X83288282Y-87408794D01*
X83255986Y-87330825D01*
X83255985Y-87330823D01*
X83245084Y-87304506D01*
X83245084Y-87304505D01*
X83162951Y-87181584D01*
X83058416Y-87077049D01*
X82666818Y-86685451D01*
X82633333Y-86624128D01*
X82630499Y-86597770D01*
X82630499Y-85462129D01*
X82630498Y-85462123D01*
X82630497Y-85462116D01*
X82624091Y-85402517D01*
X82619114Y-85389174D01*
X82573797Y-85267671D01*
X82573793Y-85267664D01*
X82487547Y-85152455D01*
X82487544Y-85152452D01*
X82372335Y-85066206D01*
X82372328Y-85066202D01*
X82237482Y-85015908D01*
X82237483Y-85015908D01*
X82177883Y-85009501D01*
X82177881Y-85009500D01*
X82177873Y-85009500D01*
X82177864Y-85009500D01*
X80382129Y-85009500D01*
X80382123Y-85009501D01*
X80322516Y-85015908D01*
X80187671Y-85066202D01*
X80187664Y-85066206D01*
X80072455Y-85152452D01*
X80072452Y-85152455D01*
X79986206Y-85267664D01*
X79986202Y-85267671D01*
X79935908Y-85402517D01*
X79929501Y-85462116D01*
X79929501Y-85462123D01*
X79929500Y-85462135D01*
X79929500Y-87257870D01*
X79929501Y-87257876D01*
X79935908Y-87317483D01*
X79986202Y-87452328D01*
X79986206Y-87452335D01*
X80072452Y-87567544D01*
X80072455Y-87567547D01*
X80187664Y-87653793D01*
X80187671Y-87653797D01*
X80319081Y-87702810D01*
X80375015Y-87744681D01*
X80399432Y-87810145D01*
X80384580Y-87878418D01*
X80363430Y-87906673D01*
X80241503Y-88028600D01*
X80105965Y-88222169D01*
X80105964Y-88222171D01*
X80006098Y-88436335D01*
X80006094Y-88436344D01*
X79944938Y-88664586D01*
X79944936Y-88664596D01*
X79924341Y-88899999D01*
X79924341Y-88900001D01*
X79942977Y-89113013D01*
X79929210Y-89181513D01*
X79907130Y-89211501D01*
X79397052Y-89721578D01*
X79397049Y-89721581D01*
X79363761Y-89771400D01*
X79363762Y-89771401D01*
X79314914Y-89844508D01*
X79258343Y-89981082D01*
X79258340Y-89981092D01*
X79229500Y-90126079D01*
X79229500Y-90126082D01*
X79229500Y-118153918D01*
X79229500Y-118153920D01*
X79229499Y-118153920D01*
X79258340Y-118298907D01*
X79258343Y-118298917D01*
X79314913Y-118435490D01*
X79314914Y-118435492D01*
X79345001Y-118480520D01*
X79345002Y-118480522D01*
X79397045Y-118558414D01*
X79397049Y-118558418D01*
X79893181Y-119054548D01*
X79926666Y-119115871D01*
X79929500Y-119142229D01*
X79929500Y-120277870D01*
X79929501Y-120277876D01*
X79935908Y-120337483D01*
X79986202Y-120472328D01*
X79986206Y-120472335D01*
X80072452Y-120587544D01*
X80072455Y-120587547D01*
X80187664Y-120673793D01*
X80187671Y-120673797D01*
X80319081Y-120722810D01*
X80375015Y-120764681D01*
X80399432Y-120830145D01*
X80384580Y-120898418D01*
X80363430Y-120926673D01*
X80241503Y-121048600D01*
X80105965Y-121242169D01*
X80105964Y-121242171D01*
X80006098Y-121456335D01*
X80006094Y-121456344D01*
X79944938Y-121684586D01*
X79944936Y-121684596D01*
X79924341Y-121919999D01*
X79924341Y-121920000D01*
X79944936Y-122155403D01*
X79944938Y-122155413D01*
X80006094Y-122383655D01*
X80006096Y-122383659D01*
X80006097Y-122383663D01*
X80105965Y-122597830D01*
X80105967Y-122597834D01*
X80214281Y-122752521D01*
X80241505Y-122791401D01*
X80408599Y-122958495D01*
X80505384Y-123026265D01*
X80602165Y-123094032D01*
X80602167Y-123094033D01*
X80602170Y-123094035D01*
X80633244Y-123108525D01*
X80685684Y-123154697D01*
X80704836Y-123221890D01*
X80684621Y-123288771D01*
X80668521Y-123308588D01*
X79761286Y-124215824D01*
X79649481Y-124327628D01*
X79649475Y-124327636D01*
X79613760Y-124389498D01*
X79613760Y-124389500D01*
X79570423Y-124464560D01*
X79570423Y-124464561D01*
X79529499Y-124617289D01*
X79529499Y-124617291D01*
X79529499Y-124785392D01*
X79529500Y-124785405D01*
X79529500Y-136723330D01*
X79529499Y-136723348D01*
X79529499Y-136889054D01*
X79529498Y-136889054D01*
X79570424Y-137041789D01*
X79570425Y-137041790D01*
X79593030Y-137080942D01*
X79593031Y-137080944D01*
X79649475Y-137178709D01*
X79649481Y-137178717D01*
X79768349Y-137297585D01*
X79768355Y-137297590D01*
X82283181Y-139812416D01*
X82316666Y-139873739D01*
X82319500Y-139900097D01*
X82319500Y-141118097D01*
X82356446Y-141351368D01*
X82429433Y-141575996D01*
X82516533Y-141746937D01*
X82536657Y-141786433D01*
X82675483Y-141977510D01*
X82842490Y-142144517D01*
X82953516Y-142225182D01*
X82996181Y-142280512D01*
X83002160Y-142350126D01*
X82969554Y-142411921D01*
X82908715Y-142446278D01*
X82880630Y-142449500D01*
X80581493Y-142449500D01*
X80514454Y-142429815D01*
X80468699Y-142377011D01*
X80458755Y-142307853D01*
X80487780Y-142244297D01*
X80522473Y-142216445D01*
X80533509Y-142210474D01*
X80729744Y-142057738D01*
X80898164Y-141874785D01*
X81034173Y-141666607D01*
X81134063Y-141438881D01*
X81195108Y-141197821D01*
X81201718Y-141118052D01*
X81215643Y-140950005D01*
X81215643Y-140949994D01*
X81195109Y-140702187D01*
X81195107Y-140702175D01*
X81134063Y-140461118D01*
X81034173Y-140233393D01*
X80898166Y-140025217D01*
X80876557Y-140001744D01*
X80729744Y-139842262D01*
X80533509Y-139689526D01*
X80533507Y-139689525D01*
X80533506Y-139689524D01*
X80314811Y-139571172D01*
X80314802Y-139571169D01*
X80079616Y-139490429D01*
X79834335Y-139449500D01*
X79585665Y-139449500D01*
X79340383Y-139490429D01*
X79105197Y-139571169D01*
X79105188Y-139571172D01*
X78886493Y-139689524D01*
X78728602Y-139812416D01*
X78690256Y-139842262D01*
X78661279Y-139873739D01*
X78521836Y-140025215D01*
X78438309Y-140153063D01*
X78385162Y-140198419D01*
X78315931Y-140207843D01*
X78252595Y-140178341D01*
X78215264Y-140119281D01*
X78210500Y-140085241D01*
X78210500Y-75814758D01*
X78230185Y-75747719D01*
X78282989Y-75701964D01*
X78352147Y-75692020D01*
X78415703Y-75721045D01*
X78438309Y-75746937D01*
X78521833Y-75874782D01*
X78521836Y-75874785D01*
X78690256Y-76057738D01*
X78886491Y-76210474D01*
X79105190Y-76328828D01*
X79340386Y-76409571D01*
X79585665Y-76450500D01*
X79834335Y-76450500D01*
X80079614Y-76409571D01*
X80314810Y-76328828D01*
X80533509Y-76210474D01*
X80729744Y-76057738D01*
X80898164Y-75874785D01*
X81034173Y-75666607D01*
X81134063Y-75438881D01*
X81195108Y-75197821D01*
X81195109Y-75197812D01*
X81215643Y-74950005D01*
X81215643Y-74949994D01*
X81195109Y-74702187D01*
X81195107Y-74702175D01*
X81134063Y-74461118D01*
X81034173Y-74233393D01*
X80898166Y-74025217D01*
X80876557Y-74001744D01*
X80729744Y-73842262D01*
X80533509Y-73689526D01*
X80533507Y-73689525D01*
X80533506Y-73689524D01*
X80527395Y-73686217D01*
X80522474Y-73683554D01*
X80472885Y-73634335D01*
X80457777Y-73566119D01*
X80481947Y-73500563D01*
X80537723Y-73458482D01*
X80581493Y-73450500D01*
X104838507Y-73450500D01*
X104905546Y-73470185D01*
G37*
%TD.AperFunction*%
%TA.AperFunction,Conductor*%
G36*
X96770000Y-128330633D02*
G01*
X96983483Y-128273433D01*
X96983492Y-128273429D01*
X97197578Y-128173600D01*
X97391082Y-128038105D01*
X97558105Y-127871082D01*
X97688119Y-127685405D01*
X97742696Y-127641781D01*
X97812195Y-127634588D01*
X97874549Y-127666110D01*
X97891269Y-127685405D01*
X98021505Y-127871401D01*
X98188599Y-128038495D01*
X98285384Y-128106265D01*
X98382165Y-128174032D01*
X98382167Y-128174033D01*
X98382170Y-128174035D01*
X98596337Y-128273903D01*
X98824592Y-128335063D01*
X99001034Y-128350500D01*
X99059999Y-128355659D01*
X99060000Y-128355659D01*
X99060001Y-128355659D01*
X99118966Y-128350500D01*
X99295408Y-128335063D01*
X99523663Y-128273903D01*
X99737830Y-128174035D01*
X99931401Y-128038495D01*
X100098495Y-127871401D01*
X100228425Y-127685842D01*
X100283002Y-127642217D01*
X100352500Y-127635023D01*
X100414855Y-127666546D01*
X100431575Y-127685842D01*
X100561281Y-127871082D01*
X100561505Y-127871401D01*
X100728599Y-128038495D01*
X100825384Y-128106265D01*
X100922165Y-128174032D01*
X100922167Y-128174033D01*
X100922170Y-128174035D01*
X101136337Y-128273903D01*
X101364592Y-128335063D01*
X101541034Y-128350500D01*
X101599999Y-128355659D01*
X101600000Y-128355659D01*
X101600001Y-128355659D01*
X101658966Y-128350500D01*
X101835408Y-128335063D01*
X102063663Y-128273903D01*
X102277830Y-128174035D01*
X102471401Y-128038495D01*
X102593329Y-127916566D01*
X102654648Y-127883084D01*
X102724340Y-127888068D01*
X102780274Y-127929939D01*
X102797189Y-127960917D01*
X102846202Y-128092328D01*
X102846206Y-128092335D01*
X102932452Y-128207544D01*
X102932455Y-128207547D01*
X103047664Y-128293793D01*
X103047671Y-128293797D01*
X103182517Y-128344091D01*
X103182516Y-128344091D01*
X103189444Y-128344835D01*
X103242127Y-128350500D01*
X104565500Y-128350499D01*
X104632539Y-128370184D01*
X104678294Y-128422987D01*
X104689500Y-128474499D01*
X104689500Y-134197770D01*
X104669815Y-134264809D01*
X104653181Y-134285451D01*
X101725451Y-137213181D01*
X101664128Y-137246666D01*
X101637770Y-137249500D01*
X100486080Y-137249500D01*
X100341092Y-137278340D01*
X100341082Y-137278343D01*
X100204511Y-137334912D01*
X100204498Y-137334919D01*
X100081584Y-137417048D01*
X100056072Y-137442560D01*
X99994748Y-137476044D01*
X99925056Y-137471058D01*
X99869124Y-137429186D01*
X99844708Y-137363721D01*
X99845172Y-137340993D01*
X99845857Y-137334919D01*
X99865565Y-137160000D01*
X99862419Y-137132082D01*
X99845369Y-136980750D01*
X99845368Y-136980745D01*
X99785788Y-136810476D01*
X99735811Y-136730939D01*
X99689816Y-136657738D01*
X99562262Y-136530184D01*
X99529985Y-136509903D01*
X99409521Y-136434210D01*
X99239249Y-136374630D01*
X99152330Y-136364837D01*
X99087916Y-136337770D01*
X99078533Y-136329298D01*
X98947590Y-136198355D01*
X98947588Y-136198352D01*
X98828717Y-136079481D01*
X98828716Y-136079480D01*
X98741904Y-136029360D01*
X98741904Y-136029359D01*
X98741900Y-136029358D01*
X98691785Y-136000423D01*
X98539057Y-135959499D01*
X98380943Y-135959499D01*
X98373347Y-135959499D01*
X98373331Y-135959500D01*
X93789097Y-135959500D01*
X93722058Y-135939815D01*
X93676303Y-135887011D01*
X93666359Y-135817853D01*
X93695384Y-135754297D01*
X93701416Y-135747819D01*
X93910519Y-135538716D01*
X94246283Y-135202952D01*
X95358506Y-134090727D01*
X95358511Y-134090724D01*
X95368714Y-134080520D01*
X95368716Y-134080520D01*
X95480520Y-133968716D01*
X95553181Y-133842863D01*
X95553182Y-133842862D01*
X95559576Y-133831787D01*
X95559576Y-133831786D01*
X95559577Y-133831785D01*
X95600500Y-133679058D01*
X95600500Y-133520943D01*
X95600500Y-128242406D01*
X95620185Y-128175367D01*
X95672989Y-128129612D01*
X95742147Y-128119668D01*
X95795625Y-128140832D01*
X95842420Y-128173599D01*
X96056507Y-128273429D01*
X96056516Y-128273433D01*
X96270000Y-128330634D01*
X96270000Y-127433012D01*
X96327007Y-127465925D01*
X96454174Y-127500000D01*
X96585826Y-127500000D01*
X96712993Y-127465925D01*
X96770000Y-127433012D01*
X96770000Y-128330633D01*
G37*
%TD.AperFunction*%
%TA.AperFunction,Conductor*%
G36*
X83668834Y-122109261D02*
G01*
X83724767Y-122151133D01*
X83749184Y-122216597D01*
X83749500Y-122225443D01*
X83749500Y-125213918D01*
X83749500Y-125213920D01*
X83749499Y-125213920D01*
X83778340Y-125358907D01*
X83778342Y-125358913D01*
X83827896Y-125478547D01*
X83835365Y-125548017D01*
X83804090Y-125610496D01*
X83744001Y-125646148D01*
X83713335Y-125650000D01*
X82922155Y-125650000D01*
X82862627Y-125656401D01*
X82862620Y-125656403D01*
X82727913Y-125706645D01*
X82727906Y-125706649D01*
X82612812Y-125792809D01*
X82612809Y-125792812D01*
X82526649Y-125907906D01*
X82526645Y-125907913D01*
X82476403Y-126042620D01*
X82476401Y-126042627D01*
X82470000Y-126102155D01*
X82470000Y-126750000D01*
X83386988Y-126750000D01*
X83354075Y-126807007D01*
X83320000Y-126934174D01*
X83320000Y-127065826D01*
X83354075Y-127192993D01*
X83386988Y-127250000D01*
X82470000Y-127250000D01*
X82470000Y-127897844D01*
X82476401Y-127957372D01*
X82476403Y-127957379D01*
X82526645Y-128092086D01*
X82526649Y-128092093D01*
X82612809Y-128207187D01*
X82612812Y-128207190D01*
X82727906Y-128293350D01*
X82727913Y-128293354D01*
X82862620Y-128343596D01*
X82862627Y-128343598D01*
X82922155Y-128349999D01*
X82922172Y-128350000D01*
X83570000Y-128350000D01*
X83570000Y-127433012D01*
X83627007Y-127465925D01*
X83754174Y-127500000D01*
X83885826Y-127500000D01*
X84012993Y-127465925D01*
X84070000Y-127433012D01*
X84070000Y-128350000D01*
X84717828Y-128350000D01*
X84717844Y-128349999D01*
X84777372Y-128343598D01*
X84777379Y-128343596D01*
X84912086Y-128293354D01*
X84912093Y-128293350D01*
X85027187Y-128207190D01*
X85027190Y-128207187D01*
X85113350Y-128092093D01*
X85113354Y-128092086D01*
X85162422Y-127960529D01*
X85204293Y-127904595D01*
X85269757Y-127880178D01*
X85338030Y-127895030D01*
X85366285Y-127916181D01*
X85488599Y-128038495D01*
X85585384Y-128106265D01*
X85682165Y-128174032D01*
X85682167Y-128174033D01*
X85682170Y-128174035D01*
X85896337Y-128273903D01*
X86124592Y-128335063D01*
X86301034Y-128350500D01*
X86359999Y-128355659D01*
X86360000Y-128355659D01*
X86360001Y-128355659D01*
X86418966Y-128350500D01*
X86595408Y-128335063D01*
X86823663Y-128273903D01*
X87037830Y-128174035D01*
X87231401Y-128038495D01*
X87398495Y-127871401D01*
X87528425Y-127685842D01*
X87583002Y-127642217D01*
X87652500Y-127635023D01*
X87714855Y-127666546D01*
X87731575Y-127685842D01*
X87861281Y-127871082D01*
X87861505Y-127871401D01*
X88028599Y-128038495D01*
X88125384Y-128106265D01*
X88222165Y-128174032D01*
X88222167Y-128174033D01*
X88222170Y-128174035D01*
X88436337Y-128273903D01*
X88664592Y-128335063D01*
X88841034Y-128350500D01*
X88899999Y-128355659D01*
X88900000Y-128355659D01*
X88900001Y-128355659D01*
X88958966Y-128350500D01*
X89135408Y-128335063D01*
X89363663Y-128273903D01*
X89577830Y-128174035D01*
X89771401Y-128038495D01*
X89938495Y-127871401D01*
X90068425Y-127685842D01*
X90123002Y-127642217D01*
X90192500Y-127635023D01*
X90254855Y-127666546D01*
X90271575Y-127685842D01*
X90401281Y-127871082D01*
X90401505Y-127871401D01*
X90568599Y-128038495D01*
X90665384Y-128106265D01*
X90762165Y-128174032D01*
X90762167Y-128174033D01*
X90762170Y-128174035D01*
X90976337Y-128273903D01*
X91204592Y-128335063D01*
X91381034Y-128350500D01*
X91439999Y-128355659D01*
X91440000Y-128355659D01*
X91440001Y-128355659D01*
X91498966Y-128350500D01*
X91675408Y-128335063D01*
X91903663Y-128273903D01*
X92117830Y-128174035D01*
X92204378Y-128113433D01*
X92270582Y-128091107D01*
X92338350Y-128108117D01*
X92386163Y-128159065D01*
X92399500Y-128215009D01*
X92399500Y-129699902D01*
X92379815Y-129766941D01*
X92363181Y-129787583D01*
X91857584Y-130293181D01*
X91796261Y-130326666D01*
X91769903Y-130329500D01*
X87596670Y-130329500D01*
X87596654Y-130329499D01*
X87589058Y-130329499D01*
X87430943Y-130329499D01*
X87354579Y-130349961D01*
X87278214Y-130370423D01*
X87278209Y-130370426D01*
X87141290Y-130449475D01*
X87141282Y-130449481D01*
X86341465Y-131249298D01*
X86280142Y-131282783D01*
X86267668Y-131284837D01*
X86180750Y-131294630D01*
X86010478Y-131354210D01*
X85857737Y-131450184D01*
X85730184Y-131577737D01*
X85634211Y-131730476D01*
X85574631Y-131900745D01*
X85574630Y-131900750D01*
X85554435Y-132079996D01*
X85554435Y-132080003D01*
X85574630Y-132259249D01*
X85574631Y-132259254D01*
X85634211Y-132429523D01*
X85705819Y-132543486D01*
X85730184Y-132582262D01*
X85857738Y-132709816D01*
X86010478Y-132805789D01*
X86180745Y-132865368D01*
X86180750Y-132865369D01*
X86359996Y-132885565D01*
X86360000Y-132885565D01*
X86360004Y-132885565D01*
X86539249Y-132865369D01*
X86539252Y-132865368D01*
X86539255Y-132865368D01*
X86709522Y-132805789D01*
X86862262Y-132709816D01*
X86989816Y-132582262D01*
X87085789Y-132429522D01*
X87145368Y-132259255D01*
X87155161Y-132172329D01*
X87182226Y-132107918D01*
X87190689Y-132098544D01*
X87722417Y-131566819D01*
X87783740Y-131533334D01*
X87810098Y-131530500D01*
X91983331Y-131530500D01*
X91983347Y-131530501D01*
X92108769Y-131530501D01*
X92175808Y-131550186D01*
X92221563Y-131602990D01*
X92231507Y-131672148D01*
X92202482Y-131735704D01*
X92196450Y-131742182D01*
X90105451Y-133833181D01*
X90044128Y-133866666D01*
X90017770Y-133869500D01*
X82754499Y-133869500D01*
X82687460Y-133849815D01*
X82641705Y-133797011D01*
X82630499Y-133745500D01*
X82630499Y-133722129D01*
X82630498Y-133722123D01*
X82624091Y-133662516D01*
X82573797Y-133527671D01*
X82573793Y-133527664D01*
X82487547Y-133412455D01*
X82487544Y-133412452D01*
X82372335Y-133326206D01*
X82372328Y-133326202D01*
X82240401Y-133276997D01*
X82184467Y-133235126D01*
X82160050Y-133169662D01*
X82174902Y-133101389D01*
X82196053Y-133073133D01*
X82318108Y-132951078D01*
X82453600Y-132757578D01*
X82553429Y-132543492D01*
X82553432Y-132543486D01*
X82610636Y-132330000D01*
X81713012Y-132330000D01*
X81745925Y-132272993D01*
X81780000Y-132145826D01*
X81780000Y-132014174D01*
X81745925Y-131887007D01*
X81713012Y-131830000D01*
X82610636Y-131830000D01*
X82610635Y-131829999D01*
X82553432Y-131616513D01*
X82553429Y-131616507D01*
X82453600Y-131402422D01*
X82453599Y-131402420D01*
X82318113Y-131208926D01*
X82318108Y-131208920D01*
X82151082Y-131041894D01*
X81957578Y-130906399D01*
X81743492Y-130806570D01*
X81743486Y-130806567D01*
X81530000Y-130749364D01*
X81530000Y-131646988D01*
X81472993Y-131614075D01*
X81345826Y-131580000D01*
X81214174Y-131580000D01*
X81087007Y-131614075D01*
X81030000Y-131646988D01*
X81030000Y-130749364D01*
X81029999Y-130749363D01*
X80886593Y-130787789D01*
X80816743Y-130786126D01*
X80758881Y-130746963D01*
X80731377Y-130682735D01*
X80730500Y-130668014D01*
X80730500Y-124996443D01*
X80750185Y-124929404D01*
X80766819Y-124908762D01*
X83537819Y-122137762D01*
X83599142Y-122104277D01*
X83668834Y-122109261D01*
G37*
%TD.AperFunction*%
%TA.AperFunction,Conductor*%
G36*
X101711509Y-114120185D02*
G01*
X101757264Y-114172989D01*
X101767941Y-114235941D01*
X101764785Y-114269999D01*
X101764785Y-114270000D01*
X101783602Y-114473082D01*
X101839417Y-114669247D01*
X101839422Y-114669260D01*
X101930327Y-114851821D01*
X102053237Y-115014581D01*
X102203958Y-115151980D01*
X102203960Y-115151982D01*
X102234808Y-115171082D01*
X102377363Y-115259348D01*
X102567544Y-115333024D01*
X102768024Y-115370500D01*
X102768026Y-115370500D01*
X102971974Y-115370500D01*
X102971976Y-115370500D01*
X103172456Y-115333024D01*
X103362637Y-115259348D01*
X103536041Y-115151981D01*
X103686764Y-115014579D01*
X103809673Y-114851821D01*
X103900582Y-114669250D01*
X103956397Y-114473083D01*
X103975215Y-114270000D01*
X103972059Y-114235941D01*
X103985474Y-114167372D01*
X104033831Y-114116940D01*
X104095530Y-114100500D01*
X104127770Y-114100500D01*
X104194809Y-114120185D01*
X104215451Y-114136819D01*
X104653181Y-114574548D01*
X104686666Y-114635871D01*
X104689500Y-114662229D01*
X104689500Y-125525500D01*
X104669815Y-125592539D01*
X104617011Y-125638294D01*
X104565500Y-125649500D01*
X103242129Y-125649500D01*
X103242123Y-125649501D01*
X103182516Y-125655908D01*
X103047671Y-125706202D01*
X103047664Y-125706206D01*
X102932455Y-125792452D01*
X102932452Y-125792455D01*
X102846206Y-125907664D01*
X102846203Y-125907669D01*
X102797189Y-126039083D01*
X102755317Y-126095016D01*
X102689853Y-126119433D01*
X102621580Y-126104581D01*
X102593326Y-126083430D01*
X102471402Y-125961506D01*
X102471395Y-125961501D01*
X102277834Y-125825967D01*
X102277830Y-125825965D01*
X102206727Y-125792809D01*
X102063663Y-125726097D01*
X102063659Y-125726096D01*
X102063655Y-125726094D01*
X101835413Y-125664938D01*
X101835403Y-125664936D01*
X101600001Y-125644341D01*
X101599999Y-125644341D01*
X101364596Y-125664936D01*
X101364586Y-125664938D01*
X101136344Y-125726094D01*
X101136335Y-125726098D01*
X100922171Y-125825964D01*
X100922169Y-125825965D01*
X100728597Y-125961505D01*
X100561505Y-126128597D01*
X100431575Y-126314158D01*
X100376998Y-126357783D01*
X100307500Y-126364977D01*
X100245145Y-126333454D01*
X100228425Y-126314158D01*
X100098494Y-126128597D01*
X99931402Y-125961506D01*
X99931395Y-125961501D01*
X99737834Y-125825967D01*
X99737830Y-125825965D01*
X99666727Y-125792809D01*
X99523663Y-125726097D01*
X99523659Y-125726096D01*
X99523655Y-125726094D01*
X99295413Y-125664938D01*
X99295403Y-125664936D01*
X99060001Y-125644341D01*
X99059999Y-125644341D01*
X98824596Y-125664936D01*
X98824586Y-125664938D01*
X98596344Y-125726094D01*
X98596335Y-125726098D01*
X98382171Y-125825964D01*
X98382169Y-125825965D01*
X98188597Y-125961505D01*
X98021508Y-126128594D01*
X97891269Y-126314595D01*
X97836692Y-126358219D01*
X97767193Y-126365412D01*
X97704839Y-126333890D01*
X97688119Y-126314594D01*
X97558113Y-126128926D01*
X97558108Y-126128920D01*
X97391082Y-125961894D01*
X97197578Y-125826399D01*
X96983492Y-125726570D01*
X96983486Y-125726567D01*
X96770000Y-125669364D01*
X96770000Y-126566988D01*
X96712993Y-126534075D01*
X96585826Y-126500000D01*
X96454174Y-126500000D01*
X96327007Y-126534075D01*
X96270000Y-126566988D01*
X96270000Y-125669364D01*
X96269999Y-125669364D01*
X96056513Y-125726567D01*
X96056507Y-125726570D01*
X95842425Y-125826398D01*
X95795623Y-125859169D01*
X95729416Y-125881496D01*
X95661649Y-125864484D01*
X95613837Y-125813536D01*
X95600500Y-125757593D01*
X95600500Y-125082412D01*
X95620185Y-125015373D01*
X95627555Y-125005097D01*
X95629810Y-125002267D01*
X95629816Y-125002262D01*
X95725789Y-124849522D01*
X95785368Y-124679255D01*
X95805565Y-124500000D01*
X95786144Y-124327636D01*
X95785369Y-124320750D01*
X95785368Y-124320745D01*
X95748655Y-124215826D01*
X95725789Y-124150478D01*
X95629816Y-123997738D01*
X95502262Y-123870184D01*
X95349523Y-123774211D01*
X95179254Y-123714631D01*
X95179249Y-123714630D01*
X95000004Y-123694435D01*
X94999996Y-123694435D01*
X94888383Y-123707010D01*
X94819561Y-123694955D01*
X94768182Y-123647606D01*
X94750500Y-123583790D01*
X94750500Y-120962230D01*
X94770185Y-120895191D01*
X94786819Y-120874549D01*
X101524549Y-114136819D01*
X101585872Y-114103334D01*
X101612230Y-114100500D01*
X101644470Y-114100500D01*
X101711509Y-114120185D01*
G37*
%TD.AperFunction*%
%TA.AperFunction,Conductor*%
G36*
X100804809Y-102370185D02*
G01*
X100825451Y-102386819D01*
X103353181Y-104914548D01*
X103386666Y-104975871D01*
X103389500Y-105002229D01*
X103389500Y-107740902D01*
X103369815Y-107807941D01*
X103317011Y-107853696D01*
X103247853Y-107863640D01*
X103184297Y-107834615D01*
X103177819Y-107828583D01*
X100273875Y-104924640D01*
X100240390Y-104863317D01*
X100244514Y-104796006D01*
X100285368Y-104679255D01*
X100293886Y-104603655D01*
X100305565Y-104500003D01*
X100305565Y-104499996D01*
X100285369Y-104320750D01*
X100285368Y-104320745D01*
X100272685Y-104284498D01*
X100225789Y-104150478D01*
X100129816Y-103997738D01*
X100002262Y-103870184D01*
X99849523Y-103774211D01*
X99679254Y-103714631D01*
X99679249Y-103714630D01*
X99500004Y-103694435D01*
X99499996Y-103694435D01*
X99320750Y-103714630D01*
X99320745Y-103714631D01*
X99150476Y-103774211D01*
X98997737Y-103870184D01*
X98870184Y-103997737D01*
X98774211Y-104150476D01*
X98714631Y-104320745D01*
X98714630Y-104320750D01*
X98694435Y-104499996D01*
X98694435Y-104500003D01*
X98714630Y-104679249D01*
X98714631Y-104679254D01*
X98774211Y-104849523D01*
X98870182Y-105002259D01*
X98872441Y-105005091D01*
X98873330Y-105007268D01*
X98873889Y-105008158D01*
X98873733Y-105008255D01*
X98898854Y-105069776D01*
X98899219Y-105076929D01*
X98899498Y-105079054D01*
X98940423Y-105231785D01*
X98969358Y-105281900D01*
X98969359Y-105281904D01*
X98969360Y-105281904D01*
X98987910Y-105314035D01*
X99019479Y-105368714D01*
X99019481Y-105368717D01*
X99138349Y-105487585D01*
X99138355Y-105487590D01*
X102233181Y-108582416D01*
X102266666Y-108643739D01*
X102269500Y-108670097D01*
X102269500Y-111824744D01*
X102249815Y-111891783D01*
X102197011Y-111937538D01*
X102127853Y-111947482D01*
X102107183Y-111942675D01*
X102057702Y-111926598D01*
X102057698Y-111926597D01*
X101926271Y-111905781D01*
X101886611Y-111899500D01*
X101313389Y-111899500D01*
X101273728Y-111905781D01*
X101142302Y-111926597D01*
X100977552Y-111980128D01*
X100823211Y-112058768D01*
X100743256Y-112116859D01*
X100683072Y-112160586D01*
X100683070Y-112160588D01*
X100683069Y-112160588D01*
X100560588Y-112283069D01*
X100560588Y-112283070D01*
X100560586Y-112283072D01*
X100516859Y-112343256D01*
X100458768Y-112423211D01*
X100380128Y-112577552D01*
X100326597Y-112742302D01*
X100299500Y-112913389D01*
X100299500Y-113086610D01*
X100310470Y-113155873D01*
X100301515Y-113225167D01*
X100275678Y-113262952D01*
X93812181Y-119726450D01*
X93750858Y-119759935D01*
X93681166Y-119754951D01*
X93625233Y-119713079D01*
X93600816Y-119647615D01*
X93600500Y-119638769D01*
X93600500Y-113040096D01*
X93620185Y-112973057D01*
X93636814Y-112952420D01*
X94955568Y-111633665D01*
X95016891Y-111600181D01*
X95086583Y-111605165D01*
X95142516Y-111647037D01*
X95166933Y-111712501D01*
X95166777Y-111732154D01*
X95164341Y-111759997D01*
X95164341Y-111760000D01*
X95184936Y-111995403D01*
X95184938Y-111995413D01*
X95246094Y-112223655D01*
X95246096Y-112223659D01*
X95246097Y-112223663D01*
X95339149Y-112423213D01*
X95345965Y-112437830D01*
X95345967Y-112437834D01*
X95481501Y-112631395D01*
X95481506Y-112631402D01*
X95648597Y-112798493D01*
X95648603Y-112798498D01*
X95677969Y-112819060D01*
X95812684Y-112913389D01*
X95834594Y-112928730D01*
X95878219Y-112983307D01*
X95885413Y-113052805D01*
X95853890Y-113115160D01*
X95834595Y-113131880D01*
X95648922Y-113261890D01*
X95648920Y-113261891D01*
X95481891Y-113428920D01*
X95481886Y-113428926D01*
X95346400Y-113622420D01*
X95346399Y-113622422D01*
X95246570Y-113836507D01*
X95246567Y-113836513D01*
X95189364Y-114049999D01*
X95189364Y-114050000D01*
X96086988Y-114050000D01*
X96054075Y-114107007D01*
X96020000Y-114234174D01*
X96020000Y-114365826D01*
X96054075Y-114492993D01*
X96086988Y-114550000D01*
X95189364Y-114550000D01*
X95246567Y-114763486D01*
X95246570Y-114763492D01*
X95346399Y-114977578D01*
X95481894Y-115171082D01*
X95648917Y-115338105D01*
X95842421Y-115473600D01*
X96056507Y-115573429D01*
X96056516Y-115573433D01*
X96270000Y-115630634D01*
X96270000Y-114733012D01*
X96327007Y-114765925D01*
X96454174Y-114800000D01*
X96585826Y-114800000D01*
X96712993Y-114765925D01*
X96770000Y-114733012D01*
X96770000Y-115630633D01*
X96983483Y-115573433D01*
X96983492Y-115573429D01*
X97197578Y-115473600D01*
X97391082Y-115338105D01*
X97558105Y-115171082D01*
X97693600Y-114977578D01*
X97793429Y-114763492D01*
X97793432Y-114763486D01*
X97850636Y-114550000D01*
X96953012Y-114550000D01*
X96985925Y-114492993D01*
X97020000Y-114365826D01*
X97020000Y-114234174D01*
X96985925Y-114107007D01*
X96953012Y-114050000D01*
X97850636Y-114050000D01*
X97850635Y-114049999D01*
X97793432Y-113836513D01*
X97793429Y-113836507D01*
X97693600Y-113622422D01*
X97693599Y-113622420D01*
X97558113Y-113428926D01*
X97558108Y-113428920D01*
X97391078Y-113261890D01*
X97205405Y-113131879D01*
X97161780Y-113077302D01*
X97154588Y-113007804D01*
X97186110Y-112945449D01*
X97205406Y-112928730D01*
X97391401Y-112798495D01*
X97558495Y-112631401D01*
X97694035Y-112437830D01*
X97793903Y-112223663D01*
X97855063Y-111995408D01*
X97875659Y-111760000D01*
X97855063Y-111524592D01*
X97820672Y-111396243D01*
X97822335Y-111326394D01*
X97852766Y-111276469D01*
X98150520Y-110978716D01*
X98229577Y-110841784D01*
X98270501Y-110689057D01*
X98270501Y-110530942D01*
X98270501Y-110523347D01*
X98270500Y-110523329D01*
X98270500Y-108590945D01*
X98270500Y-108590943D01*
X98229577Y-108438216D01*
X98229577Y-108438215D01*
X98229577Y-108438214D01*
X98177837Y-108348599D01*
X98150520Y-108301284D01*
X98038716Y-108189480D01*
X98038715Y-108189479D01*
X98034385Y-108185149D01*
X98034374Y-108185139D01*
X97566815Y-107717580D01*
X97533330Y-107656257D01*
X97538314Y-107586565D01*
X97555984Y-107556252D01*
X97555390Y-107555836D01*
X97694032Y-107357834D01*
X97694031Y-107357834D01*
X97694035Y-107357830D01*
X97793903Y-107143663D01*
X97855063Y-106915408D01*
X97875659Y-106680000D01*
X97855063Y-106444592D01*
X97793903Y-106216337D01*
X97694035Y-106002171D01*
X97558495Y-105808599D01*
X97558494Y-105808597D01*
X97391402Y-105641506D01*
X97391396Y-105641501D01*
X97205842Y-105511575D01*
X97162217Y-105456998D01*
X97155023Y-105387500D01*
X97186546Y-105325145D01*
X97205842Y-105308425D01*
X97315295Y-105231785D01*
X97391401Y-105178495D01*
X97558495Y-105011401D01*
X97694035Y-104817830D01*
X97793903Y-104603663D01*
X97855063Y-104375408D01*
X97875659Y-104140000D01*
X97855063Y-103904592D01*
X97793903Y-103676337D01*
X97694035Y-103462171D01*
X97558495Y-103268599D01*
X97436567Y-103146671D01*
X97403084Y-103085351D01*
X97408068Y-103015659D01*
X97449939Y-102959725D01*
X97480915Y-102942810D01*
X97612331Y-102893796D01*
X97727546Y-102807546D01*
X97813796Y-102692331D01*
X97864091Y-102557483D01*
X97870500Y-102497873D01*
X97870500Y-102474500D01*
X97890185Y-102407461D01*
X97942989Y-102361706D01*
X97994500Y-102350500D01*
X100737770Y-102350500D01*
X100804809Y-102370185D01*
G37*
%TD.AperFunction*%
%TD*%
M02*
